# crane_hook (M3G user id 8) extracted by M3gToObj
#@default_color FF565656
mtllib crane_hook.mtl
o crane_hook
v -69.545578 255.21405 -1.148231 0.337255 0.337255 0.337255
v -69.545578 57.585449 -1.148231 0.337255 0.337255 0.337255
v 58.444878 255.21405 -1.148231 0.337255 0.337255 0.337255
v 58.444878 57.585449 -1.148231 0.337255 0.337255 0.337255
v -6.094684 1246.659302 -6.192369 0.337255 0.337255 0.337255
v -6.094684 217.147156 -6.192369 0.337255 0.337255 0.337255
v 22.464571 1246.659302 -6.192369 0.337255 0.337255 0.337255
v 22.464571 217.147156 -6.192369 0.337255 0.337255 0.337255
vt 0.408701 0.9758
vt 0.408701 0.0288
vt 0.971202 0.9758
vt 0.971202 0.0288
vt 0.100298 0.922102
vt 0.100298 0.078596
vt 0.277895 0.922102
vt 0.277895 0.078596
g crane_hook_part0
usemtl crane_hook_mat0
f 1/1 2/2 3/3
f 3/3 2/2 4/4
f 5/5 6/6 7/7
f 7/7 6/6 8/8
