# crane_hook_static (M3G user id 7) extracted by M3gToObj
#@default_color FF565656
mtllib crane_hook_static.mtl
o crane_hook_static
v -43.123322 565.964783 -1.144993 0.337255 0.337255 0.337255
v -43.123322 480.629211 -1.144993 0.337255 0.337255 0.337255
v 42.573826 565.964783 -1.144993 0.337255 0.337255 0.337255
v 42.573826 480.629211 -1.144993 0.337255 0.337255 0.337255
v 0.137901 523.002258 -6.206807 0.337255 0.337255 0.337255
v 90.181602 50.870178 -6.206807 0.337255 0.337255 0.337255
v 21.391233 529.722534 -6.206807 0.337255 0.337255 0.337255
v 112.747551 52.677948 -6.206807 0.337255 0.337255 0.337255
v -21.115431 529.722534 -6.206807 0.337255 0.337255 0.337255
v -89.9058 50.870178 -6.206807 0.337255 0.337255 0.337255
v -112.471748 52.677948 -6.206807 0.337255 0.337255 0.337255
vt 0.027806 0.9758
vt 0.027806 0.0288
vt 0.971194 0.9758
vt 0.971194 0.0288
vt 0.265301 0.878707
vt 0.264795 0.1127
vt 0.114495 0.878707
vt 0.114105 0.1127
vt 0.114495 0.878707
vt 0.264795 0.1127
vt 0.114105 0.1127
g crane_hook_static_part0
usemtl crane_hook_static_mat0
f 5/5 6/6 7/7
f 7/7 6/6 8/8
f 5/5 9/9 10/10
f 10/10 9/9 11/11
g crane_hook_static_part1
usemtl crane_hook_static_mat1
f 1/1 2/2 3/3
f 3/3 2/2 4/4
