# falling_2 (M3G user id 21) extracted by M3gToObj
#@default_color FF1A1AB0
mtllib falling_2.mtl
o falling_2
v -128.0 -128.0 128.0 0.101961 0.101961 0.690196
v -128.0 -128.0 0.0 0.101961 0.101961 0.690196
v 0.0 -128.0 128.0 0.101961 0.101961 0.690196
v 0.0 -128.0 0.0 0.101961 0.101961 0.690196
v 128.0 -128.0 128.0 0.101961 0.101961 0.690196
v 128.0 -128.0 0.0 0.101961 0.101961 0.690196
v 128.0 128.0 128.0 0.101961 0.101961 0.690196
v 128.0 128.0 0.0 0.101961 0.101961 0.690196
v 0.0 128.0 128.0 0.101961 0.101961 0.690196
v 0.0 128.0 0.0 0.101961 0.101961 0.690196
v -128.0 128.0 128.0 0.101961 0.101961 0.690196
v -128.0 128.0 0.0 0.101961 0.101961 0.690196
v -128.0 -128.0 -128.0 0.101961 0.101961 0.690196
v 0.0 -128.0 -128.0 0.101961 0.101961 0.690196
v 128.0 -128.0 -128.0 0.101961 0.101961 0.690196
v 128.0 -128.0 128.0 0.101961 0.101961 0.690196
v 128.0 128.0 128.0 0.101961 0.101961 0.690196
v 0.0 -128.0 128.0 0.101961 0.101961 0.690196
v 0.0 128.0 128.0 0.101961 0.101961 0.690196
v -128.0 -128.0 128.0 0.101961 0.101961 0.690196
v -128.0 128.0 128.0 0.101961 0.101961 0.690196
v 128.0 -128.0 -128.0 0.101961 0.101961 0.690196
v 128.0 128.0 -128.0 0.101961 0.101961 0.690196
v 128.0 -128.0 0.0 0.101961 0.101961 0.690196
v 128.0 128.0 0.0 0.101961 0.101961 0.690196
v 128.0 -128.0 128.0 0.101961 0.101961 0.690196
v 128.0 128.0 128.0 0.101961 0.101961 0.690196
v 128.0 128.0 -128.0 0.101961 0.101961 0.690196
v 0.0 128.0 -128.0 0.101961 0.101961 0.690196
v -128.0 128.0 -128.0 0.101961 0.101961 0.690196
v -128.0 -128.0 128.0 0.101961 0.101961 0.690196
v -128.0 128.0 128.0 0.101961 0.101961 0.690196
v -128.0 -128.0 0.0 0.101961 0.101961 0.690196
v -128.0 128.0 0.0 0.101961 0.101961 0.690196
v -128.0 -128.0 -128.0 0.101961 0.101961 0.690196
v -128.0 128.0 -128.0 0.101961 0.101961 0.690196
vt 0.517393 0.9589
vt 0.517393 0.503805
vt 0.747501 0.9589
vt 0.747501 0.503703
vt 0.9778 0.9589
vt 0.977698 0.503805
vt 0.4782 0.043398
vt 0.4782 0.5024
vt 0.019695 0.043105
vt 0.020193 0.501595
vt 0.4782 0.043398
vt 0.4782 0.5024
vt 0.517393 0.046398
vt 0.747501 0.046398
vt 0.977698 0.046398
vt 0.462204 0.043398
vt 0.462804 0.959105
vt 0.254399 0.043105
vt 0.255702 0.9589
vt 0.462204 0.043398
vt 0.462804 0.959105
vt 0.4782 0.043398
vt 0.4782 0.959295
vt 0.019695 0.043105
vt 0.019198 0.9589
vt 0.4782 0.043398
vt 0.4782 0.959295
vt 0.4782 0.959295
vt 0.019198 0.9589
vt 0.4782 0.959295
vt 0.4782 0.043705
vt 0.4782 0.959207
vt 0.019403 0.043398
vt 0.0187 0.959105
vt 0.4782 0.043705
vt 0.4782 0.959207
g falling_2_part0
usemtl falling_2_mat0
f 16/16 17/17 18/18
f 18/18 17/17 19/19
f 18/18 19/19 20/20
f 20/20 19/19 21/21
g falling_2_part1
usemtl falling_2_mat1
f 1/1 2/2 3/3
f 3/3 2/2 4/4
f 3/3 4/4 5/5
f 5/5 4/4 6/6
f 7/7 8/8 9/9
f 9/9 8/8 10/10
f 9/9 10/10 11/11
f 11/11 10/10 12/12
f 2/2 13/13 4/4
f 4/4 13/13 14/14
f 4/4 14/14 6/6
f 6/6 14/14 15/15
f 8/8 28/28 10/10
f 10/10 28/28 29/29
f 10/10 29/29 12/12
f 12/12 29/29 30/30
g falling_2_part2
usemtl falling_2_mat2
f 22/22 23/23 24/24
f 24/24 23/23 25/25
f 24/24 25/25 26/26
f 26/26 25/25 27/27
f 31/31 32/32 33/33
f 33/33 32/32 34/34
f 33/33 34/34 35/35
f 35/35 34/34 36/36
