# falling_4 (M3G user id 23) extracted by M3gToObj
#@default_color FF57C6DF
mtllib falling_4.mtl
o falling_4
v 0.0 -128.0 0.0 0.341176 0.776471 0.87451
v 128.0 -128.0 128.0 0.341176 0.776471 0.87451
v 0.0 -128.0 128.0 0.341176 0.776471 0.87451
v 0.0 128.0 0.0 0.341176 0.776471 0.87451
v -128.0 128.0 128.0 0.341176 0.776471 0.87451
v 0.0 128.0 128.0 0.341176 0.776471 0.87451
v 128.0 -128.0 128.0 0.341176 0.776471 0.87451
v 0.0 -128.0 0.0 0.341176 0.776471 0.87451
v 128.0 -128.0 0.0 0.341176 0.776471 0.87451
v 0.0 -128.0 0.0 0.341176 0.776471 0.87451
v 0.0 -128.0 128.0 0.341176 0.776471 0.87451
v -128.0 -128.0 0.0 0.341176 0.776471 0.87451
v 0.0 -128.0 128.0 0.341176 0.776471 0.87451
v -128.0 -128.0 128.0 0.341176 0.776471 0.87451
v -128.0 -128.0 0.0 0.341176 0.776471 0.87451
v -128.0 -128.0 0.0 0.341176 0.776471 0.87451
v -128.0 -128.0 -128.0 0.341176 0.776471 0.87451
v 0.0 -128.0 0.0 0.341176 0.776471 0.87451
v 0.0 -128.0 0.0 0.341176 0.776471 0.87451
v -128.0 -128.0 -128.0 0.341176 0.776471 0.87451
v 0.0 -128.0 -128.0 0.341176 0.776471 0.87451
v 0.0 -128.0 0.0 0.341176 0.776471 0.87451
v 0.0 -128.0 -128.0 0.341176 0.776471 0.87451
v 128.0 -128.0 0.0 0.341176 0.776471 0.87451
v 128.0 -128.0 0.0 0.341176 0.776471 0.87451
v 0.0 -128.0 -128.0 0.341176 0.776471 0.87451
v 128.0 -128.0 -128.0 0.341176 0.776471 0.87451
v 0.0 128.0 128.0 0.341176 0.776471 0.87451
v -128.0 -128.0 128.0 0.341176 0.776471 0.87451
v 0.0 -128.0 128.0 0.341176 0.776471 0.87451
v -128.0 -128.0 128.0 0.341176 0.776471 0.87451
v 0.0 128.0 128.0 0.341176 0.776471 0.87451
v -128.0 128.0 128.0 0.341176 0.776471 0.87451
v 0.0 128.0 128.0 0.341176 0.776471 0.87451
v 0.0 -128.0 128.0 0.341176 0.776471 0.87451
v 128.0 128.0 128.0 0.341176 0.776471 0.87451
v 128.0 128.0 128.0 0.341176 0.776471 0.87451
v 0.0 -128.0 128.0 0.341176 0.776471 0.87451
v 128.0 -128.0 128.0 0.341176 0.776471 0.87451
v 128.0 128.0 0.0 0.341176 0.776471 0.87451
v 128.0 -128.0 128.0 0.341176 0.776471 0.87451
v 128.0 -128.0 0.0 0.341176 0.776471 0.87451
v 128.0 -128.0 128.0 0.341176 0.776471 0.87451
v 128.0 128.0 0.0 0.341176 0.776471 0.87451
v 128.0 128.0 128.0 0.341176 0.776471 0.87451
v 128.0 128.0 -128.0 0.341176 0.776471 0.87451
v 128.0 -128.0 0.0 0.341176 0.776471 0.87451
v 128.0 -128.0 -128.0 0.341176 0.776471 0.87451
v 128.0 -128.0 0.0 0.341176 0.776471 0.87451
v 128.0 128.0 -128.0 0.341176 0.776471 0.87451
v 128.0 128.0 0.0 0.341176 0.776471 0.87451
v -128.0 128.0 0.0 0.341176 0.776471 0.87451
v -128.0 128.0 128.0 0.341176 0.776471 0.87451
v 0.0 128.0 0.0 0.341176 0.776471 0.87451
v 0.0 128.0 -128.0 0.341176 0.776471 0.87451
v -128.0 128.0 0.0 0.341176 0.776471 0.87451
v 0.0 128.0 0.0 0.341176 0.776471 0.87451
v -128.0 128.0 0.0 0.341176 0.776471 0.87451
v 0.0 128.0 -128.0 0.341176 0.776471 0.87451
v -128.0 128.0 -128.0 0.341176 0.776471 0.87451
v 128.0 128.0 -128.0 0.341176 0.776471 0.87451
v 0.0 128.0 0.0 0.341176 0.776471 0.87451
v 128.0 128.0 0.0 0.341176 0.776471 0.87451
v 0.0 128.0 0.0 0.341176 0.776471 0.87451
v 128.0 128.0 -128.0 0.341176 0.776471 0.87451
v 0.0 128.0 -128.0 0.341176 0.776471 0.87451
v 0.0 128.0 0.0 0.341176 0.776471 0.87451
v 0.0 128.0 128.0 0.341176 0.776471 0.87451
v 128.0 128.0 0.0 0.341176 0.776471 0.87451
v 128.0 128.0 0.0 0.341176 0.776471 0.87451
v 0.0 128.0 128.0 0.341176 0.776471 0.87451
v 128.0 128.0 128.0 0.341176 0.776471 0.87451
v -128.0 128.0 128.0 0.341176 0.776471 0.87451
v -128.0 -128.0 0.0 0.341176 0.776471 0.87451
v -128.0 -128.0 128.0 0.341176 0.776471 0.87451
v -128.0 -128.0 0.0 0.341176 0.776471 0.87451
v -128.0 128.0 128.0 0.341176 0.776471 0.87451
v -128.0 128.0 0.0 0.341176 0.776471 0.87451
v -128.0 -128.0 -128.0 0.341176 0.776471 0.87451
v -128.0 128.0 0.0 0.341176 0.776471 0.87451
v -128.0 128.0 -128.0 0.341176 0.776471 0.87451
v -128.0 128.0 0.0 0.341176 0.776471 0.87451
v -128.0 -128.0 -128.0 0.341176 0.776471 0.87451
v -128.0 -128.0 0.0 0.341176 0.776471 0.87451
vt 0.747501 0.503698
vt 0.9778 0.958895
vt 0.747501 0.958895
vt 0.020193 0.501605
vt 0.4782 0.043393
vt 0.019695 0.0431
vt 0.9778 0.958895
vt 0.747501 0.503698
vt 0.977698 0.5038
vt 0.747501 0.503698
vt 0.747501 0.958895
vt 0.517393 0.5038
vt 0.747501 0.958895
vt 0.517393 0.958895
vt 0.517393 0.5038
vt 0.517393 0.5038
vt 0.517393 0.046393
vt 0.747501 0.503698
vt 0.747501 0.503698
vt 0.517393 0.046393
vt 0.747501 0.046393
vt 0.747501 0.503698
vt 0.747501 0.046393
vt 0.977698 0.5038
vt 0.977698 0.5038
vt 0.747501 0.046393
vt 0.977698 0.046393
vt 0.757307 0.960797
vt 0.963794 0.045295
vt 0.756004 0.045003
vt 0.963794 0.045295
vt 0.757307 0.960797
vt 0.964497 0.9609
vt 0.757307 0.960797
vt 0.756004 0.045003
vt 0.964497 0.9609
vt 0.964497 0.9609
vt 0.756004 0.045003
vt 0.963794 0.045295
vt 0.019198 0.958895
vt 0.4782 0.043393
vt 0.019695 0.0431
vt 0.4782 0.043393
vt 0.019198 0.958895
vt 0.4782 0.959305
vt 0.4782 0.959305
vt 0.019695 0.0431
vt 0.4782 0.043393
vt 0.019695 0.0431
vt 0.4782 0.959305
vt 0.019198 0.958895
vt 0.4782 0.502395
vt 0.4782 0.043393
vt 0.020193 0.501605
vt 0.019198 0.958895
vt 0.4782 0.502395
vt 0.020193 0.501605
vt 0.4782 0.502395
vt 0.019198 0.958895
vt 0.4782 0.959305
vt 0.4782 0.959305
vt 0.020193 0.501605
vt 0.4782 0.502395
vt 0.020193 0.501605
vt 0.4782 0.959305
vt 0.019198 0.958895
vt 0.020193 0.501605
vt 0.019695 0.0431
vt 0.4782 0.502395
vt 0.4782 0.502395
vt 0.019695 0.0431
vt 0.4782 0.043393
vt 0.4782 0.959202
vt 0.019403 0.043393
vt 0.4782 0.0437
vt 0.019403 0.043393
vt 0.4782 0.959202
vt 0.0187 0.9591
vt 0.4782 0.0437
vt 0.0187 0.9591
vt 0.4782 0.959202
vt 0.0187 0.9591
vt 0.4782 0.0437
vt 0.019403 0.043393
g falling_4_part0
usemtl falling_4_mat0
f 28/28 29/29 30/30
f 31/31 32/32 33/33
f 34/34 35/35 36/36
f 37/37 38/38 39/39
g falling_4_part1
usemtl falling_4_mat1
f 1/1 2/2 3/3
f 4/4 5/5 6/6
f 7/7 8/8 9/9
f 10/10 11/11 12/12
f 13/13 14/14 15/15
f 16/16 17/17 18/18
f 19/19 20/20 21/21
f 22/22 23/23 24/24
f 25/25 26/26 27/27
f 52/52 53/53 54/54
f 55/55 56/56 57/57
f 58/58 59/59 60/60
f 61/61 62/62 63/63
f 64/64 65/65 66/66
f 67/67 68/68 69/69
f 70/70 71/71 72/72
g falling_4_part2
usemtl falling_4_mat2
f 40/40 41/41 42/42
f 43/43 44/44 45/45
f 46/46 47/47 48/48
f 49/49 50/50 51/51
f 73/73 74/74 75/75
f 76/76 77/77 78/78
f 79/79 80/80 81/81
f 82/82 83/83 84/84
