# floor_3 (M3G user id 12) extracted by M3gToObj
#@default_color FF57DF57
mtllib floor_3.mtl
o floor_3
v -128.0 -128.0 128.0 0.341176 0.87451 0.341176
v -128.0 -128.0 0.0 0.341176 0.87451 0.341176
v 0.0 -128.0 128.0 0.341176 0.87451 0.341176
v 0.0 -128.0 0.0 0.341176 0.87451 0.341176
v 128.0 -128.0 128.0 0.341176 0.87451 0.341176
v 128.0 -128.0 0.0 0.341176 0.87451 0.341176
v 128.0 128.0 128.0 0.341176 0.87451 0.341176
v 128.0 128.0 0.0 0.341176 0.87451 0.341176
v 0.0 128.0 128.0 0.341176 0.87451 0.341176
v 0.0 128.0 0.0 0.341176 0.87451 0.341176
v -128.0 128.0 128.0 0.341176 0.87451 0.341176
v -128.0 128.0 0.0 0.341176 0.87451 0.341176
v -128.0 -128.0 -128.0 0.341176 0.87451 0.341176
v 0.0 -128.0 -128.0 0.341176 0.87451 0.341176
v 128.0 -128.0 -128.0 0.341176 0.87451 0.341176
v 128.0 -128.0 128.0 0.341176 0.87451 0.341176
v 128.0 128.0 128.0 0.341176 0.87451 0.341176
v 0.0 -128.0 128.0 0.341176 0.87451 0.341176
v 0.0 128.0 128.0 0.341176 0.87451 0.341176
v -128.0 -128.0 128.0 0.341176 0.87451 0.341176
v -128.0 128.0 128.0 0.341176 0.87451 0.341176
v 128.0 -128.0 -128.0 0.341176 0.87451 0.341176
v 128.0 128.0 -128.0 0.341176 0.87451 0.341176
v 128.0 -128.0 0.0 0.341176 0.87451 0.341176
v 128.0 128.0 0.0 0.341176 0.87451 0.341176
v 128.0 -128.0 128.0 0.341176 0.87451 0.341176
v 128.0 128.0 128.0 0.341176 0.87451 0.341176
v 128.0 128.0 -128.0 0.341176 0.87451 0.341176
v 0.0 128.0 -128.0 0.341176 0.87451 0.341176
v -128.0 128.0 -128.0 0.341176 0.87451 0.341176
v -128.0 -128.0 128.0 0.341176 0.87451 0.341176
v -128.0 128.0 128.0 0.341176 0.87451 0.341176
v -128.0 -128.0 0.0 0.341176 0.87451 0.341176
v -128.0 128.0 0.0 0.341176 0.87451 0.341176
v -128.0 -128.0 -128.0 0.341176 0.87451 0.341176
v -128.0 128.0 -128.0 0.341176 0.87451 0.341176
v -128.0 -128.0 -128.0 0.341176 0.87451 0.341176
v -128.0 128.0 -128.0 0.341176 0.87451 0.341176
v 0.0 -128.0 -128.0 0.341176 0.87451 0.341176
v 0.0 128.0 -128.0 0.341176 0.87451 0.341176
v 128.0 -128.0 -128.0 0.341176 0.87451 0.341176
v 128.0 128.0 -128.0 0.341176 0.87451 0.341176
vt 0.517207 0.959204
vt 0.517397 0.503798
vt 0.747496 0.958897
vt 0.747496 0.503696
vt 0.9778 0.959307
vt 0.977698 0.503798
vt 0.478104 0.042197
vt 0.478207 0.502396
vt 0.0202 0.041803
vt 0.0202 0.501607
vt 0.478104 0.042197
vt 0.478207 0.502396
vt 0.517207 0.046405
vt 0.747496 0.046405
vt 0.977698 0.046405
vt 0.517207 0.046405
vt 0.517207 0.959204
vt 0.977698 0.046405
vt 0.9778 0.959307
vt 0.517207 0.046405
vt 0.517207 0.959204
vt 0.478104 0.042197
vt 0.478104 0.959
vt 0.0202 0.041803
vt 0.0202 0.958605
vt 0.478104 0.042197
vt 0.478104 0.959
vt 0.478104 0.959
vt 0.0202 0.958605
vt 0.478104 0.959
vt 0.478002 0.041393
vt 0.478002 0.958605
vt 0.020302 0.041393
vt 0.020302 0.958605
vt 0.478002 0.041393
vt 0.478002 0.958605
vt 0.517105 0.046493
vt 0.517105 0.959204
vt 0.977595 0.046493
vt 0.977595 0.959204
vt 0.517105 0.046493
vt 0.517105 0.959204
g floor_3_part0
usemtl floor_3_mat0
f 16/16 17/17 18/18
f 18/18 17/17 19/19
f 18/18 19/19 20/20
f 20/20 19/19 21/21
f 22/22 23/23 24/24
f 24/24 23/23 25/25
f 24/24 25/25 26/26
f 26/26 25/25 27/27
f 31/31 32/32 33/33
f 33/33 32/32 34/34
f 33/33 34/34 35/35
f 35/35 34/34 36/36
f 37/37 38/38 39/39
f 39/39 38/38 40/40
f 39/39 40/40 41/41
f 41/41 40/40 42/42
g floor_3_part1
usemtl floor_3_mat1
f 1/1 2/2 3/3
f 3/3 2/2 4/4
f 3/3 4/4 5/5
f 5/5 4/4 6/6
f 7/7 8/8 9/9
f 9/9 8/8 10/10
f 9/9 10/10 11/11
f 11/11 10/10 12/12
f 2/2 13/13 4/4
f 4/4 13/13 14/14
f 4/4 14/14 6/6
f 6/6 14/14 15/15
f 8/8 28/28 10/10
f 10/10 28/28 29/29
f 10/10 29/29 12/12
f 12/12 29/29 30/30
