# ground (M3G user id 9) extracted by M3gToObj
#@default_color FF565656
mtllib ground.mtl
o ground
v 425.597168 -76.689117 -87.409973 0.447059 0.305882 0.078431
v 1103.548462 -76.689117 240.990585 0.513726 0.376471 0.14902
v 1103.548462 -76.689117 -87.409973 0.447059 0.305882 0.078431
v 1103.548462 -76.689117 240.990585 0.513726 0.376471 0.14902
v 425.597168 -76.689117 -87.409973 0.447059 0.305882 0.078431
v 425.597168 -76.689117 240.990585 0.447059 0.305882 0.078431
v -425.597168 -76.689117 240.990585 0.466667 0.32549 0.090196
v -1103.548462 -76.689117 -87.409973 0.447059 0.305882 0.078431
v -1103.548462 -76.689117 240.990585 0.533333 0.396078 0.168627
v -1103.548462 -76.689117 -87.409973 0.447059 0.305882 0.078431
v -425.597168 -76.689117 240.990585 0.466667 0.32549 0.090196
v -425.597168 -76.689117 -87.409973 0.45098 0.309804 0.082353
v 425.597168 -76.689117 240.990585 0.447059 0.305882 0.078431
v -425.597168 -125.927315 684.100647 0.666667 0.529412 0.164706
v 425.597168 -125.927315 684.100647 0.670588 0.533333 0.164706
v -425.597168 -125.927315 684.100647 0.666667 0.529412 0.164706
v 425.597168 -76.689117 240.990585 0.447059 0.305882 0.078431
v -425.597168 -76.689117 240.990585 0.466667 0.32549 0.090196
v 1103.548462 -76.689117 240.990585 0.529412 0.388235 0.152941
v 425.597168 -125.927315 684.100647 0.670588 0.533333 0.164706
v 1103.548462 -125.927315 684.100647 0.635294 0.498039 0.168627
v 425.597168 -125.927315 684.100647 0.670588 0.533333 0.164706
v 1103.548462 -76.689117 240.990585 0.529412 0.388235 0.152941
v 425.597168 -76.689117 240.990585 0.447059 0.305882 0.078431
v -425.597168 -76.689117 240.990585 0.466667 0.32549 0.090196
v -1103.548462 -125.927315 684.100647 0.670588 0.533333 0.164706
v -425.597168 -125.927315 684.100647 0.666667 0.529412 0.164706
v -1103.548462 -125.927315 684.100647 0.670588 0.533333 0.164706
v -425.597168 -76.689117 240.990585 0.466667 0.32549 0.090196
v -1103.548462 -76.689117 240.990585 0.54902 0.411765 0.176471
v 425.597168 -76.689117 240.990585 0.172549 0.12549 0.066667
v 425.597168 -23.577881 240.990585 0.184314 0.172549 0.164706
v -425.597168 -23.577881 240.990585 0.184314 0.172549 0.152941
v -425.597168 -23.577881 240.990585 0.184314 0.172549 0.152941
v -425.597168 -76.689117 240.990585 0.164706 0.117647 0.058824
v 425.597168 -76.689117 240.990585 0.172549 0.12549 0.066667
v 425.597168 -76.689117 -87.409973 0.137255 0.090196 0.027451
v 425.597168 -23.577881 -87.409973 0.184314 0.184314 0.184314
v 425.597168 -23.577881 240.990585 0.176471 0.168627 0.156863
v 425.597168 -23.577881 240.990585 0.176471 0.168627 0.156863
v 425.597168 -76.689117 240.990585 0.172549 0.12549 0.066667
v 425.597168 -76.689117 -87.409973 0.137255 0.090196 0.027451
v -425.597168 -76.689117 240.990585 0.164706 0.117647 0.058824
v -425.597168 -23.577881 240.990585 0.180392 0.164706 0.14902
v -425.597168 -23.577881 -87.409973 0.156863 0.129412 0.090196
v -425.597168 -23.577881 -87.409973 0.156863 0.129412 0.090196
v -425.597168 -76.689117 -87.409973 0.137255 0.090196 0.027451
v -425.597168 -76.689117 240.990585 0.164706 0.117647 0.058824
v 384.778625 -29.000145 201.014023 0.231373 0.231373 0.231373
v 384.778625 -5.425087 201.014023 0.231373 0.231373 0.231373
v -384.778625 -5.425087 201.014023 0.231373 0.231373 0.231373
v -384.778625 -5.425087 201.014023 0.231373 0.231373 0.231373
v -384.778625 -29.000145 201.014023 0.231373 0.231373 0.231373
v 384.778625 -29.000145 201.014023 0.231373 0.231373 0.231373
v 384.778625 -29.000145 -47.433411 0.219608 0.219608 0.219608
v 384.778625 -5.425087 -47.433411 0.219608 0.219608 0.219608
v 384.778625 -5.425087 201.014023 0.219608 0.219608 0.219608
v 384.778625 -5.425087 201.014023 0.219608 0.219608 0.219608
v 384.778625 -29.000145 201.014023 0.219608 0.219608 0.219608
v 384.778625 -29.000145 -47.433411 0.219608 0.219608 0.219608
v -384.778625 -29.000145 201.014023 0.219608 0.219608 0.219608
v -384.778625 -5.425087 201.014023 0.219608 0.219608 0.219608
v -384.778625 -5.425087 -47.433411 0.219608 0.219608 0.219608
v -384.778625 -5.425087 -47.433411 0.219608 0.219608 0.219608
v -384.778625 -29.000145 -47.433411 0.219608 0.219608 0.219608
v -384.778625 -29.000145 201.014023 0.219608 0.219608 0.219608
v -384.778625 -29.000145 201.014023 0.501961 0.501961 0.501961
v -425.597168 -29.000145 240.990585 0.501961 0.501961 0.501961
v 425.597168 -29.000145 240.990585 0.501961 0.501961 0.501961
v 384.778625 -29.000145 201.014023 0.501961 0.501961 0.501961
v -384.778625 -29.000145 201.014023 0.501961 0.501961 0.501961
v 425.597168 -29.000145 240.990585 0.501961 0.501961 0.501961
v 425.597168 -29.000145 -87.409973 0.223529 0.223529 0.223529
v 384.778625 -29.000145 201.014023 0.501961 0.501961 0.501961
v 425.597168 -29.000145 240.990585 0.501961 0.501961 0.501961
v 425.597168 -29.000145 -87.409973 0.223529 0.223529 0.223529
v 384.778625 -29.000145 -47.433411 0.333333 0.333333 0.333333
v 384.778625 -29.000145 201.014023 0.501961 0.501961 0.501961
v -425.597168 -29.000145 -87.409973 0.223529 0.223529 0.223529
v 384.778625 -29.000145 -47.433411 0.333333 0.333333 0.333333
v 425.597168 -29.000145 -87.409973 0.223529 0.223529 0.223529
v -425.597168 -29.000145 -87.409973 0.223529 0.223529 0.223529
v -384.778625 -29.000145 -47.433411 0.270588 0.270588 0.270588
v 384.778625 -29.000145 -47.433411 0.333333 0.333333 0.333333
v -384.778625 -29.000145 201.014023 0.501961 0.501961 0.501961
v -384.778625 -29.000145 -47.433411 0.270588 0.270588 0.270588
v -425.597168 -29.000145 240.990585 0.501961 0.501961 0.501961
v -425.597168 -29.000145 240.990585 0.501961 0.501961 0.501961
v -384.778625 -29.000145 -47.433411 0.270588 0.270588 0.270588
v -425.597168 -29.000145 -87.409973 0.223529 0.223529 0.223529
v 384.778625 -5.425087 -47.433411 0.356863 0.356863 0.356863
v -384.778625 -5.425087 -47.433411 0.34902 0.34902 0.34902
v -384.778625 -5.425087 201.014023 0.65098 0.65098 0.65098
v -384.778625 -5.425087 201.014023 0.65098 0.65098 0.65098
v 384.778625 -5.425087 201.014023 0.678431 0.678431 0.678431
v 384.778625 -5.425087 -47.433411 0.356863 0.356863 0.356863
v -563.4776 -72.310898 111.866623 0.168627 0.133333 0.086275
v -557.81958 -42.033783 143.086746 0.32549 0.258824 0.164706
v -529.462158 -72.310898 165.786148 0.513726 0.388235 0.196078
v -557.81958 -42.033783 143.086746 0.32549 0.258824 0.164706
v -563.4776 -72.310898 111.866623 0.168627 0.133333 0.086275
v -591.868652 -72.310898 145.915741 0.337255 0.258824 0.145098
v -557.81958 -42.033783 143.086746 0.32549 0.258824 0.164706
v -591.868652 -72.310898 145.915741 0.337255 0.258824 0.145098
v -529.462158 -72.310898 165.786148 0.513726 0.388235 0.196078
v 509.793793 -46.883514 268.775482 0.239216 0.192157 0.129412
v 575.265076 -83.020706 318.51886 0.501961 0.380392 0.192157
v 542.630493 -70.862717 212.127991 0.094118 0.05098 0.05098
v 449.071167 -76.183945 258.604523 0.505882 0.388235 0.2
v 509.793793 -46.883514 268.775482 0.239216 0.192157 0.129412
v 542.630493 -70.862717 212.127991 0.094118 0.05098 0.05098
v 509.793793 -46.883514 268.775482 0.239216 0.192157 0.129412
v 449.071167 -76.183945 258.604523 0.505882 0.388235 0.2
v 575.265076 -83.020706 318.51886 0.501961 0.380392 0.192157
v -85.139641 -53.484528 350.008392 0.254902 0.207843 0.137255
v -69.378029 -87.398933 381.127472 0.501961 0.384314 0.2
v -55.199314 -79.585487 310.60437 0.101961 0.058824 0.058824
v -121.445229 -81.673561 329.430725 0.211765 0.168627 0.113725
v -85.139641 -53.484528 350.008392 0.254902 0.207843 0.137255
v -55.199314 -79.585487 310.60437 0.101961 0.058824 0.058824
v -85.139641 -53.484528 350.008392 0.254902 0.207843 0.137255
v -121.445229 -81.673561 329.430725 0.211765 0.168627 0.113725
v -69.378029 -87.398933 381.127472 0.501961 0.384314 0.2
v -273.437012 -57.761719 388.536774 0.266667 0.211765 0.133333
v -290.444702 -92.854874 430.298309 0.458824 0.321569 0.101961
v -213.859451 -87.230537 379.544556 0.490196 0.372549 0.188235
v -290.444702 -82.515526 337.277863 0.490196 0.372549 0.188235
v -273.437012 -57.761719 388.536774 0.266667 0.211765 0.133333
v -213.859451 -87.230537 379.544556 0.490196 0.372549 0.188235
v -273.437012 -57.761719 388.536774 0.266667 0.211765 0.133333
v -290.444702 -82.515526 337.277863 0.490196 0.372549 0.188235
v -290.444702 -92.854874 430.298309 0.458824 0.321569 0.101961
g ground_part0
usemtl ground_mat0
f 91 92 93
f 94 95 96
g ground_part1
usemtl ground_mat1
f 67 68 69
f 70 71 72
f 73 74 75
f 76 77 78
f 79 80 81
f 82 83 84
f 85 86 87
f 88 89 90
f 97 98 99
f 100 101 102
f 103 104 105
f 106 107 108
f 109 110 111
f 112 113 114
f 115 116 117
f 118 119 120
f 121 122 123
f 124 125 126
f 127 128 129
f 130 131 132
g ground_part2
usemtl ground_mat2
f 49 50 51
f 52 53 54
f 55 56 57
f 58 59 60
f 61 62 63
f 64 65 66
g ground_part3
usemtl ground_mat3
f 31 32 33
f 34 35 36
f 37 38 39
f 40 41 42
f 43 44 45
f 46 47 48
g ground_part4
usemtl ground_mat4
f 1 2 3
f 4 5 6
f 7 8 9
f 10 11 12
f 13 14 15
f 16 17 18
f 19 20 21
f 22 23 24
f 25 26 27
f 28 29 30
