# top_bonus_2 (M3G user id 41) extracted by M3gToObj
#@default_color FF1A1AB0
mtllib top_bonus_2.mtl
o top_bonus_2
v 50.846634 166.745087 13.623642 0.101961 0.101961 0.690196
v 37.222996 166.745087 37.222996 0.101961 0.101961 0.690196
v 88.076042 128.207809 23.599352 0.101961 0.101961 0.690196
v 64.476685 128.207809 64.476685 0.101961 0.101961 0.690196
v 101.699684 75.566055 27.247284 0.101961 0.101961 0.690196
v 74.445992 75.566055 74.445992 0.101961 0.101961 0.690196
v 88.076042 22.924305 23.599352 0.101961 0.101961 0.690196
v 64.476685 22.924305 64.476685 0.101961 0.101961 0.690196
v 48.500164 -15.183426 12.995351 0.101961 0.101961 0.690196
v 35.504814 -15.183426 35.504814 0.101961 0.101961 0.690196
v 48.500164 -15.183426 12.995351 0.101961 0.101961 0.690196
v 48.500164 -15.183426 -12.995351 0.101961 0.101961 0.690196
v 88.076042 22.924305 23.599352 0.101961 0.101961 0.690196
v 88.076042 22.924305 -23.599352 0.101961 0.101961 0.690196
v 101.699684 75.566055 27.247284 0.101961 0.101961 0.690196
v 101.699684 75.566055 -27.247284 0.101961 0.101961 0.690196
v 88.076042 128.207809 23.599352 0.101961 0.101961 0.690196
v 88.076042 128.207809 -23.599352 0.101961 0.101961 0.690196
v 50.846634 166.745087 13.623642 0.101961 0.101961 0.690196
v 50.846634 166.745087 -13.623642 0.101961 0.101961 0.690196
v 48.500164 -15.183426 -12.995351 0.101961 0.101961 0.690196
v 35.504814 -15.183426 -35.504814 0.101961 0.101961 0.690196
v 88.076042 22.924305 -23.599352 0.101961 0.101961 0.690196
v 64.476685 22.924305 -64.476685 0.101961 0.101961 0.690196
v 101.699684 75.566055 -27.247284 0.101961 0.101961 0.690196
v 74.445992 75.566055 -74.445992 0.101961 0.101961 0.690196
v 88.076042 128.207809 -23.599352 0.101961 0.101961 0.690196
v 64.476685 128.207809 -64.476685 0.101961 0.101961 0.690196
v 50.846634 166.745087 -13.623642 0.101961 0.101961 0.690196
v 37.222996 166.745087 -37.222996 0.101961 0.101961 0.690196
v 127.998116 -128.0 127.998116 0.101961 0.101961 0.690196
v 127.998116 -101.400238 127.998116 0.101961 0.101961 0.690196
v -127.998116 -128.0 127.998116 0.101961 0.101961 0.690196
v -127.998116 -101.400238 127.998116 0.101961 0.101961 0.690196
v 24.298166 -59.612518 86.056534 0.101961 0.101961 0.690196
v 20.118111 -52.784668 62.476418 0.101961 0.101961 0.690196
v -24.298166 -59.612518 86.056534 0.101961 0.101961 0.690196
v -20.118111 -52.784668 62.476418 0.101961 0.101961 0.690196
v 25.958647 -62.580872 109.059654 0.101961 0.101961 0.690196
v 24.298166 -59.612518 86.056534 0.101961 0.101961 0.690196
v -25.958647 -62.580872 109.059654 0.101961 0.101961 0.690196
v -24.298166 -59.612518 86.056534 0.101961 0.101961 0.690196
v 12.206782 183.888428 45.557457 0.101961 0.101961 0.690196
v 13.623642 166.745087 50.846634 0.101961 0.101961 0.690196
v 33.350674 183.888428 33.350674 0.101961 0.101961 0.690196
v 37.222996 166.745087 37.222996 0.101961 0.101961 0.690196
v 50.846634 166.745087 13.623642 0.101961 0.101961 0.690196
v 45.557457 183.888428 12.206782 0.101961 0.101961 0.690196
v 37.222996 166.745087 37.222996 0.101961 0.101961 0.690196
v 33.350674 183.888428 33.350674 0.101961 0.101961 0.690196
v 50.846634 166.745087 -13.623642 0.101961 0.101961 0.690196
v 45.557457 183.888428 -12.206782 0.101961 0.101961 0.690196
v 50.846634 166.745087 13.623642 0.101961 0.101961 0.690196
v 45.557457 183.888428 12.206782 0.101961 0.101961 0.690196
v 37.222996 166.745087 -37.222996 0.101961 0.101961 0.690196
v 33.350674 183.888428 -33.350674 0.101961 0.101961 0.690196
v 50.846634 166.745087 -13.623642 0.101961 0.101961 0.690196
v 45.557457 183.888428 -12.206782 0.101961 0.101961 0.690196
v 127.998116 -128.0 127.998116 0.101961 0.101961 0.690196
v -127.998116 -128.0 -127.998116 0.101961 0.101961 0.690196
v 127.998116 -128.0 -127.998116 0.101961 0.101961 0.690196
v -127.998116 -128.0 -127.998116 0.101961 0.101961 0.690196
v 127.998116 -128.0 127.998116 0.101961 0.101961 0.690196
v -127.998116 -128.0 127.998116 0.101961 0.101961 0.690196
v 127.998116 -101.400238 -127.998116 0.101961 0.101961 0.690196
v 127.998116 -101.400238 127.998116 0.101961 0.101961 0.690196
v 127.998116 -128.0 -127.998116 0.101961 0.101961 0.690196
v 127.998116 -128.0 127.998116 0.101961 0.101961 0.690196
v -127.998116 -128.0 -127.998116 0.101961 0.101961 0.690196
v -127.998116 -128.0 127.998116 0.101961 0.101961 0.690196
v -127.998116 -101.400238 -127.998116 0.101961 0.101961 0.690196
v -127.998116 -101.400238 127.998116 0.101961 0.101961 0.690196
v -35.504814 -15.183426 -35.504814 0.101961 0.101961 0.690196
v -48.500164 -15.183426 -12.995351 0.101961 0.101961 0.690196
v -64.476685 22.924305 -64.476685 0.101961 0.101961 0.690196
v -88.076042 22.924305 -23.599352 0.101961 0.101961 0.690196
v -74.445992 75.566055 -74.445992 0.101961 0.101961 0.690196
v -101.699684 75.566055 -27.247284 0.101961 0.101961 0.690196
v -64.476685 128.207809 -64.476685 0.101961 0.101961 0.690196
v -88.076042 128.207809 -23.599352 0.101961 0.101961 0.690196
v -37.222996 166.745087 -37.222996 0.101961 0.101961 0.690196
v -50.846634 166.745087 -13.623642 0.101961 0.101961 0.690196
v -48.500164 -15.183426 -12.995351 0.101961 0.101961 0.690196
v -48.500164 -15.183426 12.995351 0.101961 0.101961 0.690196
v -88.076042 22.924305 -23.599352 0.101961 0.101961 0.690196
v -88.076042 22.924305 23.599352 0.101961 0.101961 0.690196
v -101.699684 75.566055 -27.247284 0.101961 0.101961 0.690196
v -101.699684 75.566055 27.247284 0.101961 0.101961 0.690196
v -88.076042 128.207809 -23.599352 0.101961 0.101961 0.690196
v -88.076042 128.207809 23.599352 0.101961 0.101961 0.690196
v -50.846634 166.745087 -13.623642 0.101961 0.101961 0.690196
v -50.846634 166.745087 13.623642 0.101961 0.101961 0.690196
v -48.500164 -15.183426 12.995351 0.101961 0.101961 0.690196
v -35.504814 -15.183426 35.504814 0.101961 0.101961 0.690196
v -88.076042 22.924305 23.599352 0.101961 0.101961 0.690196
v -64.476685 22.924305 64.476685 0.101961 0.101961 0.690196
v -101.699684 75.566055 27.247284 0.101961 0.101961 0.690196
v -74.445992 75.566055 74.445992 0.101961 0.101961 0.690196
v -88.076042 128.207809 23.599352 0.101961 0.101961 0.690196
v -64.476685 128.207809 64.476685 0.101961 0.101961 0.690196
v -50.846634 166.745087 13.623642 0.101961 0.101961 0.690196
v -37.222996 166.745087 37.222996 0.101961 0.101961 0.690196
v -35.504814 -15.183426 35.504814 0.101961 0.101961 0.690196
v -12.995351 -15.183426 48.500164 0.101961 0.101961 0.690196
v -64.476685 22.924305 64.476685 0.101961 0.101961 0.690196
v -23.599352 22.924305 88.076042 0.101961 0.101961 0.690196
v -74.445992 75.566055 74.445992 0.101961 0.101961 0.690196
v -27.247284 75.566055 101.699684 0.101961 0.101961 0.690196
v -64.476685 128.207809 64.476685 0.101961 0.101961 0.690196
v -23.599352 128.207809 88.076042 0.101961 0.101961 0.690196
v -37.222996 166.745087 37.222996 0.101961 0.101961 0.690196
v -13.623642 166.745087 50.846634 0.101961 0.101961 0.690196
v -12.995351 -15.183426 48.500164 0.101961 0.101961 0.690196
v 12.995351 -15.183426 48.500164 0.101961 0.101961 0.690196
v -23.599352 22.924305 88.076042 0.101961 0.101961 0.690196
v 23.599352 22.924305 88.076042 0.101961 0.101961 0.690196
v -27.247284 75.566055 101.699684 0.101961 0.101961 0.690196
v 27.247284 75.566055 101.699684 0.101961 0.101961 0.690196
v -23.599352 128.207809 88.076042 0.101961 0.101961 0.690196
v 23.599352 128.207809 88.076042 0.101961 0.101961 0.690196
v -13.623642 166.745087 50.846634 0.101961 0.101961 0.690196
v 13.623642 166.745087 50.846634 0.101961 0.101961 0.690196
v 12.995351 -15.183426 48.500164 0.101961 0.101961 0.690196
v 35.504814 -15.183426 35.504814 0.101961 0.101961 0.690196
v 23.599352 22.924305 88.076042 0.101961 0.101961 0.690196
v 64.476685 22.924305 64.476685 0.101961 0.101961 0.690196
v 27.247284 75.566055 101.699684 0.101961 0.101961 0.690196
v 74.445992 75.566055 74.445992 0.101961 0.101961 0.690196
v 23.599352 128.207809 88.076042 0.101961 0.101961 0.690196
v 64.476685 128.207809 64.476685 0.101961 0.101961 0.690196
v 13.623642 166.745087 50.846634 0.101961 0.101961 0.690196
v 37.222996 166.745087 37.222996 0.101961 0.101961 0.690196
v -35.504814 -15.183426 -35.504814 0.101961 0.101961 0.690196
v 0.0 -28.640373 0.0 0.101961 0.101961 0.690196
v -48.500164 -15.183426 -12.995351 0.101961 0.101961 0.690196
v -48.500164 -15.183426 12.995351 0.101961 0.101961 0.690196
v -35.504814 -15.183426 35.504814 0.101961 0.101961 0.690196
v -35.504814 -15.183426 35.504814 0.101961 0.101961 0.690196
v -12.995351 -15.183426 48.500164 0.101961 0.101961 0.690196
v 12.995351 -15.183426 48.500164 0.101961 0.101961 0.690196
v 35.504814 -15.183426 35.504814 0.101961 0.101961 0.690196
v 35.504814 -15.183426 35.504814 0.101961 0.101961 0.690196
v 48.500164 -15.183426 12.995351 0.101961 0.101961 0.690196
v 25.958647 -62.580872 -109.014778 0.101961 0.101961 0.690196
v -25.958647 -62.580872 -109.014778 0.101961 0.101961 0.690196
v 24.298166 -59.612518 -86.056534 0.101961 0.101961 0.690196
v -24.298166 -59.612518 -86.056534 0.101961 0.101961 0.690196
v 48.500164 -15.183426 -12.995351 0.101961 0.101961 0.690196
v 35.504814 -15.183426 -35.504814 0.101961 0.101961 0.690196
v 12.995351 -15.183426 -48.500164 0.101961 0.101961 0.690196
v 16.720215 -34.666832 -56.751282 0.101961 0.101961 0.690196
v 15.130256 -17.888916 -65.835846 0.101961 0.101961 0.690196
v -15.130256 -17.888916 -65.835846 0.101961 0.101961 0.690196
v -16.720215 -34.666832 -56.751282 0.101961 0.101961 0.690196
v -12.995351 -15.183426 -48.500164 0.101961 0.101961 0.690196
v -12.995351 -15.183426 -48.500164 0.101961 0.101961 0.690196
v -6.481648 -42.725616 -6.481648 0.101961 0.101961 0.690196
v 0.0 -28.640373 0.0 0.101961 0.101961 0.690196
v -16.720215 -34.666832 -56.751282 0.101961 0.101961 0.690196
v -6.481648 -42.725616 -6.481648 0.101961 0.101961 0.690196
v -12.995351 -15.183426 -48.500164 0.101961 0.101961 0.690196
v 0.0 -28.640373 0.0 0.101961 0.101961 0.690196
v 16.720215 -34.666832 -56.751282 0.101961 0.101961 0.690196
v 12.995351 -15.183426 -48.500164 0.101961 0.101961 0.690196
v 6.481648 -42.725616 -6.481648 0.101961 0.101961 0.690196
v 16.720215 -34.666832 -56.751282 0.101961 0.101961 0.690196
v 0.0 -28.640373 0.0 0.101961 0.101961 0.690196
v 6.481648 -42.725616 -6.481648 0.101961 0.101961 0.690196
v 20.118111 -52.784668 -62.476418 0.101961 0.101961 0.690196
v 16.720215 -34.666832 -56.751282 0.101961 0.101961 0.690196
v -20.118111 -52.784668 -62.476418 0.101961 0.101961 0.690196
v -6.481648 -42.725616 -6.481648 0.101961 0.101961 0.690196
v -16.720215 -34.666832 -56.751282 0.101961 0.101961 0.690196
v -20.118111 -52.784668 -62.476418 0.101961 0.101961 0.690196
v -21.605494 -77.275177 -21.605494 0.101961 0.101961 0.690196
v -6.481648 -42.725616 -6.481648 0.101961 0.101961 0.690196
v 21.605494 -77.275177 -21.605494 0.101961 0.101961 0.690196
v 20.118111 -52.784668 -62.476418 0.101961 0.101961 0.690196
v 6.481648 -42.725616 -6.481648 0.101961 0.101961 0.690196
v 21.605494 -77.275177 -21.605494 0.101961 0.101961 0.690196
v 24.298166 -59.612518 -86.056534 0.101961 0.101961 0.690196
v 20.118111 -52.784668 -62.476418 0.101961 0.101961 0.690196
v 24.298166 -59.612518 -86.056534 0.101961 0.101961 0.690196
v 24.964922 -77.275177 -103.360161 0.101961 0.101961 0.690196
v 25.958647 -62.580872 -109.014778 0.101961 0.101961 0.690196
v -25.958647 -62.580872 -109.014778 0.101961 0.101961 0.690196
v -24.964922 -77.275177 -103.360161 0.101961 0.101961 0.690196
v -24.298166 -59.612518 -86.056534 0.101961 0.101961 0.690196
v -24.298166 -59.612518 -86.056534 0.101961 0.101961 0.690196
v -21.605494 -77.275177 -21.605494 0.101961 0.101961 0.690196
v -20.118111 -52.784668 -62.476418 0.101961 0.101961 0.690196
v 21.605494 -77.275177 -21.605494 0.101961 0.101961 0.690196
v 24.964922 -77.275177 -103.360161 0.101961 0.101961 0.690196
v 24.298166 -59.612518 -86.056534 0.101961 0.101961 0.690196
v 65.835846 -17.888916 -15.130256 0.101961 0.101961 0.690196
v 48.500164 -15.183426 -12.995351 0.101961 0.101961 0.690196
v 65.835846 -17.888916 15.130256 0.101961 0.101961 0.690196
v 48.500164 -15.183426 12.995351 0.101961 0.101961 0.690196
v 56.751282 -34.666832 16.720215 0.101961 0.101961 0.690196
v 56.751282 -34.666832 -16.720215 0.101961 0.101961 0.690196
v 65.835846 -17.888916 15.130256 0.101961 0.101961 0.690196
v 65.835846 -17.888916 -15.130256 0.101961 0.101961 0.690196
v 62.476418 -52.784668 20.118111 0.101961 0.101961 0.690196
v 62.476418 -52.784668 -20.118111 0.101961 0.101961 0.690196
v 56.751282 -34.666832 16.720215 0.101961 0.101961 0.690196
v 56.751282 -34.666832 -16.720215 0.101961 0.101961 0.690196
v 86.056534 -59.612518 24.298166 0.101961 0.101961 0.690196
v 86.056534 -59.612518 -24.298166 0.101961 0.101961 0.690196
v 62.476418 -52.784668 20.118111 0.101961 0.101961 0.690196
v 62.476418 -52.784668 -20.118111 0.101961 0.101961 0.690196
v 109.034012 -62.580872 25.97788 0.101961 0.101961 0.690196
v 109.034012 -62.580872 -25.939413 0.101961 0.101961 0.690196
v 86.056534 -59.612518 24.298166 0.101961 0.101961 0.690196
v 86.056534 -59.612518 -24.298166 0.101961 0.101961 0.690196
v -24.964922 -77.275177 -103.360161 0.101961 0.101961 0.690196
v -21.605494 -77.275177 -21.605494 0.101961 0.101961 0.690196
v -24.298166 -59.612518 -86.056534 0.101961 0.101961 0.690196
v 103.379395 -77.275177 24.984156 0.101961 0.101961 0.690196
v 103.379395 -77.275177 -24.939278 0.101961 0.101961 0.690196
v 109.034012 -62.580872 25.97788 0.101961 0.101961 0.690196
v 109.034012 -62.580872 -25.939413 0.101961 0.101961 0.690196
v 48.500164 -15.183426 12.995351 0.101961 0.101961 0.690196
v 56.751282 -34.666832 16.720215 0.101961 0.101961 0.690196
v 65.835846 -17.888916 15.130256 0.101961 0.101961 0.690196
v 0.0 -28.640373 0.0 0.101961 0.101961 0.690196
v 56.751282 -34.666832 16.720215 0.101961 0.101961 0.690196
v 48.500164 -15.183426 12.995351 0.101961 0.101961 0.690196
v 6.481648 -42.89872 6.481648 0.101961 0.101961 0.690196
v 56.751282 -34.666832 16.720215 0.101961 0.101961 0.690196
v 0.0 -28.640373 0.0 0.101961 0.101961 0.690196
v 6.481648 -42.89872 6.481648 0.101961 0.101961 0.690196
v 62.476418 -52.784668 20.118111 0.101961 0.101961 0.690196
v 56.751282 -34.666832 16.720215 0.101961 0.101961 0.690196
v 21.605494 -77.275177 21.605494 0.101961 0.101961 0.690196
v 62.476418 -52.784668 20.118111 0.101961 0.101961 0.690196
v 6.481648 -42.89872 6.481648 0.101961 0.101961 0.690196
v 21.605494 -77.275177 21.605494 0.101961 0.101961 0.690196
v 86.056534 -59.612518 24.298166 0.101961 0.101961 0.690196
v 62.476418 -52.784668 20.118111 0.101961 0.101961 0.690196
v 86.056534 -59.612518 24.298166 0.101961 0.101961 0.690196
v 103.379395 -77.275177 24.984156 0.101961 0.101961 0.690196
v 109.034012 -62.580872 25.97788 0.101961 0.101961 0.690196
v -65.835846 -17.888916 15.130256 0.101961 0.101961 0.690196
v -48.500164 -15.183426 12.995351 0.101961 0.101961 0.690196
v -65.835846 -17.888916 -15.130256 0.101961 0.101961 0.690196
v -48.500164 -15.183426 -12.995351 0.101961 0.101961 0.690196
v -56.751282 -34.666832 -16.720215 0.101961 0.101961 0.690196
v -56.751282 -34.666832 16.720215 0.101961 0.101961 0.690196
v -65.835846 -17.888916 -15.130256 0.101961 0.101961 0.690196
v -65.835846 -17.888916 15.130256 0.101961 0.101961 0.690196
v -62.476418 -52.784668 -20.118111 0.101961 0.101961 0.690196
v -62.476418 -52.784668 20.118111 0.101961 0.101961 0.690196
v -56.751282 -34.666832 -16.720215 0.101961 0.101961 0.690196
v -56.751282 -34.666832 16.720215 0.101961 0.101961 0.690196
v -86.056534 -59.612518 -24.298166 0.101961 0.101961 0.690196
v -86.056534 -59.612518 24.298166 0.101961 0.101961 0.690196
v -62.476418 -52.784668 -20.118111 0.101961 0.101961 0.690196
v -62.476418 -52.784668 20.118111 0.101961 0.101961 0.690196
v -109.034012 -62.580872 -25.939413 0.101961 0.101961 0.690196
v -109.034012 -62.580872 25.97788 0.101961 0.101961 0.690196
v -86.056534 -59.612518 -24.298166 0.101961 0.101961 0.690196
v -86.056534 -59.612518 24.298166 0.101961 0.101961 0.690196
v 21.605494 -77.275177 21.605494 0.101961 0.101961 0.690196
v 103.379395 -77.275177 24.984156 0.101961 0.101961 0.690196
v 86.056534 -59.612518 24.298166 0.101961 0.101961 0.690196
v -103.379395 -77.275177 -24.939278 0.101961 0.101961 0.690196
v -103.379395 -77.275177 24.984156 0.101961 0.101961 0.690196
v -109.034012 -62.580872 -25.939413 0.101961 0.101961 0.690196
v -109.034012 -62.580872 25.97788 0.101961 0.101961 0.690196
v -65.835846 -17.888916 15.130256 0.101961 0.101961 0.690196
v -56.751282 -34.666832 16.720215 0.101961 0.101961 0.690196
v -48.500164 -15.183426 12.995351 0.101961 0.101961 0.690196
v -48.500164 -15.183426 12.995351 0.101961 0.101961 0.690196
v -6.481648 -42.552521 6.481648 0.101961 0.101961 0.690196
v 0.0 -28.640373 0.0 0.101961 0.101961 0.690196
v -56.751282 -34.666832 16.720215 0.101961 0.101961 0.690196
v -6.481648 -42.552521 6.481648 0.101961 0.101961 0.690196
v -48.500164 -15.183426 12.995351 0.101961 0.101961 0.690196
v -62.476418 -52.784668 20.118111 0.101961 0.101961 0.690196
v -6.481648 -42.552521 6.481648 0.101961 0.101961 0.690196
v -56.751282 -34.666832 16.720215 0.101961 0.101961 0.690196
v -62.476418 -52.784668 20.118111 0.101961 0.101961 0.690196
v -21.605494 -77.275177 21.605494 0.101961 0.101961 0.690196
v -6.481648 -42.552521 6.481648 0.101961 0.101961 0.690196
v -109.034012 -62.580872 25.97788 0.101961 0.101961 0.690196
v -103.379395 -77.275177 24.984156 0.101961 0.101961 0.690196
v -86.056534 -59.612518 24.298166 0.101961 0.101961 0.690196
v -86.056534 -59.612518 24.298166 0.101961 0.101961 0.690196
v -21.605494 -77.275177 21.605494 0.101961 0.101961 0.690196
v -62.476418 -52.784668 20.118111 0.101961 0.101961 0.690196
v -15.130256 -17.888916 65.835846 0.101961 0.101961 0.690196
v 15.130256 -17.888916 65.835846 0.101961 0.101961 0.690196
v -12.995351 -15.183426 48.500164 0.101961 0.101961 0.690196
v 12.995351 -15.183426 48.500164 0.101961 0.101961 0.690196
v 16.720215 -34.666832 56.751282 0.101961 0.101961 0.690196
v 15.130256 -17.888916 65.835846 0.101961 0.101961 0.690196
v -16.720215 -34.666832 56.751282 0.101961 0.101961 0.690196
v -15.130256 -17.888916 65.835846 0.101961 0.101961 0.690196
v 20.118111 -52.784668 62.476418 0.101961 0.101961 0.690196
v 16.720215 -34.666832 56.751282 0.101961 0.101961 0.690196
v -20.118111 -52.784668 62.476418 0.101961 0.101961 0.690196
v -16.720215 -34.666832 56.751282 0.101961 0.101961 0.690196
v -103.379395 -77.275177 24.984156 0.101961 0.101961 0.690196
v -21.605494 -77.275177 21.605494 0.101961 0.101961 0.690196
v -86.056534 -59.612518 24.298166 0.101961 0.101961 0.690196
v 24.964922 -77.275177 103.398628 0.101961 0.101961 0.690196
v 25.958647 -62.580872 109.059654 0.101961 0.101961 0.690196
v -24.964922 -77.275177 103.398628 0.101961 0.101961 0.690196
v -25.958647 -62.580872 109.059654 0.101961 0.101961 0.690196
v 15.130256 -17.888916 65.835846 0.101961 0.101961 0.690196
v 16.720215 -34.666832 56.751282 0.101961 0.101961 0.690196
v 12.995351 -15.183426 48.500164 0.101961 0.101961 0.690196
v -12.995351 -15.183426 48.500164 0.101961 0.101961 0.690196
v -16.720215 -34.666832 56.751282 0.101961 0.101961 0.690196
v -15.130256 -17.888916 65.835846 0.101961 0.101961 0.690196
v 0.0 -28.640373 0.0 0.101961 0.101961 0.690196
v -6.481648 -42.552521 6.481648 0.101961 0.101961 0.690196
v -12.995351 -15.183426 48.500164 0.101961 0.101961 0.690196
v -12.995351 -15.183426 48.500164 0.101961 0.101961 0.690196
v -6.481648 -42.552521 6.481648 0.101961 0.101961 0.690196
v -16.720215 -34.666832 56.751282 0.101961 0.101961 0.690196
v 12.995351 -15.183426 48.500164 0.101961 0.101961 0.690196
v 16.720215 -34.666832 56.751282 0.101961 0.101961 0.690196
v 0.0 -28.640373 0.0 0.101961 0.101961 0.690196
v 0.0 -28.640373 0.0 0.101961 0.101961 0.690196
v 16.720215 -34.666832 56.751282 0.101961 0.101961 0.690196
v 6.481648 -42.89872 6.481648 0.101961 0.101961 0.690196
v 16.720215 -34.666832 56.751282 0.101961 0.101961 0.690196
v 20.118111 -52.784668 62.476418 0.101961 0.101961 0.690196
v 6.481648 -42.89872 6.481648 0.101961 0.101961 0.690196
v -16.720215 -34.666832 56.751282 0.101961 0.101961 0.690196
v -6.481648 -42.552521 6.481648 0.101961 0.101961 0.690196
v -20.118111 -52.784668 62.476418 0.101961 0.101961 0.690196
v -6.481648 -42.552521 6.481648 0.101961 0.101961 0.690196
v -21.605494 -77.275177 21.605494 0.101961 0.101961 0.690196
v -20.118111 -52.784668 62.476418 0.101961 0.101961 0.690196
v 6.481648 -42.89872 6.481648 0.101961 0.101961 0.690196
v 20.118111 -52.784668 62.476418 0.101961 0.101961 0.690196
v 21.605494 -77.275177 21.605494 0.101961 0.101961 0.690196
v 20.118111 -52.784668 62.476418 0.101961 0.101961 0.690196
v 24.298166 -59.612518 86.056534 0.101961 0.101961 0.690196
v 21.605494 -77.275177 21.605494 0.101961 0.101961 0.690196
v 25.958647 -62.580872 109.059654 0.101961 0.101961 0.690196
v 24.964922 -77.275177 103.398628 0.101961 0.101961 0.690196
v 24.298166 -59.612518 86.056534 0.101961 0.101961 0.690196
v -24.298166 -59.612518 86.056534 0.101961 0.101961 0.690196
v -24.964922 -77.275177 103.398628 0.101961 0.101961 0.690196
v -25.958647 -62.580872 109.059654 0.101961 0.101961 0.690196
v -20.118111 -52.784668 62.476418 0.101961 0.101961 0.690196
v -21.605494 -77.275177 21.605494 0.101961 0.101961 0.690196
v -24.298166 -59.612518 86.056534 0.101961 0.101961 0.690196
v 118.246796 -101.400238 50.436325 0.101961 0.101961 0.690196
v 118.246796 -77.275177 50.436325 0.101961 0.101961 0.690196
v 48.730965 -101.400238 119.599548 0.101961 0.101961 0.690196
v 48.730965 -77.275177 119.599548 0.101961 0.101961 0.690196
v 48.730965 -101.400238 119.599548 0.101961 0.101961 0.690196
v 48.730965 -77.275177 119.599548 0.101961 0.101961 0.690196
v -49.333611 -101.400238 119.34951 0.101961 0.101961 0.690196
v -49.333611 -77.275177 119.34951 0.101961 0.101961 0.690196
v -49.333611 -101.400238 119.34951 0.101961 0.101961 0.690196
v -49.333611 -77.275177 119.34951 0.101961 0.101961 0.690196
v -118.496834 -101.400238 49.833679 0.101961 0.101961 0.690196
v -118.496834 -77.275177 49.833679 0.101961 0.101961 0.690196
v -118.496834 -101.400238 49.833679 0.101961 0.101961 0.690196
v -118.496834 -77.275177 49.833679 0.101961 0.101961 0.690196
v -118.246796 -101.400238 -48.224483 0.101961 0.101961 0.690196
v -118.246796 -77.275177 -48.224483 0.101961 0.101961 0.690196
v 118.496834 -101.400238 -47.621841 0.101961 0.101961 0.690196
v 118.496834 -77.275177 -47.621841 0.101961 0.101961 0.690196
v 118.246796 -101.400238 50.436325 0.101961 0.101961 0.690196
v 118.246796 -77.275177 50.436325 0.101961 0.101961 0.690196
v -21.605494 -77.275177 -21.605494 0.101961 0.101961 0.690196
v -24.964922 -77.275177 -103.360161 0.101961 0.101961 0.690196
v -103.379395 -77.275177 -24.939278 0.101961 0.101961 0.690196
v -48.730965 -77.275177 -117.387703 0.101961 0.101961 0.690196
v -118.246796 -77.275177 -48.224483 0.101961 0.101961 0.690196
v 118.496834 -77.275177 -47.621841 0.101961 0.101961 0.690196
v 49.333611 -77.275177 -117.137672 0.101961 0.101961 0.690196
v 103.379395 -77.275177 -24.939278 0.101961 0.101961 0.690196
v 24.964922 -77.275177 -103.360161 0.101961 0.101961 0.690196
v 21.605494 -77.275177 -21.605494 0.101961 0.101961 0.690196
v 24.964922 -77.275177 -103.360161 0.101961 0.101961 0.690196
v -24.964922 -77.275177 -103.360161 0.101961 0.101961 0.690196
v -48.730965 -77.275177 -117.387703 0.101961 0.101961 0.690196
v 21.605494 -77.275177 21.605494 0.101961 0.101961 0.690196
v 24.964922 -77.275177 103.398628 0.101961 0.101961 0.690196
v 103.379395 -77.275177 24.984156 0.101961 0.101961 0.690196
v 48.730965 -77.275177 119.599548 0.101961 0.101961 0.690196
v 118.246796 -77.275177 50.436325 0.101961 0.101961 0.690196
v 103.379395 -77.275177 24.984156 0.101961 0.101961 0.690196
v 118.246796 -77.275177 50.436325 0.101961 0.101961 0.690196
v 103.379395 -77.275177 -24.939278 0.101961 0.101961 0.690196
v -24.964922 -77.275177 103.398628 0.101961 0.101961 0.690196
v -49.333611 -77.275177 119.34951 0.101961 0.101961 0.690196
v 24.964922 -77.275177 103.398628 0.101961 0.101961 0.690196
v 48.730965 -77.275177 119.599548 0.101961 0.101961 0.690196
v -103.379395 -77.275177 -24.939278 0.101961 0.101961 0.690196
v -118.246796 -77.275177 -48.224483 0.101961 0.101961 0.690196
v -103.379395 -77.275177 24.984156 0.101961 0.101961 0.690196
v -118.496834 -77.275177 49.833679 0.101961 0.101961 0.690196
v -103.379395 -77.275177 24.984156 0.101961 0.101961 0.690196
v -24.964922 -77.275177 103.398628 0.101961 0.101961 0.690196
v -21.605494 -77.275177 21.605494 0.101961 0.101961 0.690196
v -127.998116 -101.400238 127.998116 0.101961 0.101961 0.690196
v -118.496834 -101.400238 49.833679 0.101961 0.101961 0.690196
v -127.998116 -101.400238 -127.998116 0.101961 0.101961 0.690196
v -118.246796 -101.400238 -48.224483 0.101961 0.101961 0.690196
v -48.730965 -101.400238 -117.387703 0.101961 0.101961 0.690196
v 118.246796 -101.400238 50.436325 0.101961 0.101961 0.690196
v 127.998116 -101.400238 127.998116 0.101961 0.101961 0.690196
v 118.496834 -101.400238 -47.621841 0.101961 0.101961 0.690196
v 127.998116 -101.400238 -127.998116 0.101961 0.101961 0.690196
v 49.333611 -101.400238 -117.137672 0.101961 0.101961 0.690196
v 24.298166 -59.612518 86.056534 0.101961 0.101961 0.690196
v 24.964922 -77.275177 103.398628 0.101961 0.101961 0.690196
v 21.605494 -77.275177 21.605494 0.101961 0.101961 0.690196
v 48.730965 -101.400238 119.599548 0.101961 0.101961 0.690196
v -127.998116 -101.400238 127.998116 0.101961 0.101961 0.690196
v -49.333611 -101.400238 119.34951 0.101961 0.101961 0.690196
v -118.496834 -101.400238 49.833679 0.101961 0.101961 0.690196
v 49.333611 -101.400238 -117.137672 0.101961 0.101961 0.690196
v -48.730965 -101.400238 -117.387703 0.101961 0.101961 0.690196
v -127.998116 -101.400238 -127.998116 0.101961 0.101961 0.690196
v -50.846634 166.745087 -13.623642 0.101961 0.101961 0.690196
v -45.557457 183.888428 -12.206782 0.101961 0.101961 0.690196
v -37.222996 166.745087 -37.222996 0.101961 0.101961 0.690196
v -33.350674 183.888428 -33.350674 0.101961 0.101961 0.690196
v -50.846634 166.745087 13.623642 0.101961 0.101961 0.690196
v -45.557457 183.888428 12.206782 0.101961 0.101961 0.690196
v -50.846634 166.745087 -13.623642 0.101961 0.101961 0.690196
v -45.557457 183.888428 -12.206782 0.101961 0.101961 0.690196
v -37.222996 166.745087 37.222996 0.101961 0.101961 0.690196
v -33.350674 183.888428 33.350674 0.101961 0.101961 0.690196
v -50.846634 166.745087 13.623642 0.101961 0.101961 0.690196
v -45.557457 183.888428 12.206782 0.101961 0.101961 0.690196
v -13.623642 166.745087 50.846634 0.101961 0.101961 0.690196
v -12.206782 183.888428 45.557457 0.101961 0.101961 0.690196
v -37.222996 166.745087 37.222996 0.101961 0.101961 0.690196
v -33.350674 183.888428 33.350674 0.101961 0.101961 0.690196
v 13.623642 166.745087 50.846634 0.101961 0.101961 0.690196
v 12.206782 183.888428 45.557457 0.101961 0.101961 0.690196
v -13.623642 166.745087 50.846634 0.101961 0.101961 0.690196
v -12.206782 183.888428 45.557457 0.101961 0.101961 0.690196
v -24.298166 -59.612518 86.056534 0.101961 0.101961 0.690196
v -21.605494 -77.275177 21.605494 0.101961 0.101961 0.690196
v -24.964922 -77.275177 103.398628 0.101961 0.101961 0.690196
v 48.730965 -101.400238 119.599548 0.101961 0.101961 0.690196
v 127.998116 -101.400238 127.998116 0.101961 0.101961 0.690196
v 118.246796 -101.400238 50.436325 0.101961 0.101961 0.690196
v 20.201456 190.357254 -20.201456 0.101961 0.101961 0.690196
v 33.350674 183.888428 -33.350674 0.101961 0.101961 0.690196
v 12.206782 183.888428 -45.557457 0.101961 0.101961 0.690196
v 0.0 190.357254 -27.593483 0.101961 0.101961 0.690196
v 12.206782 183.888428 -45.557457 0.101961 0.101961 0.690196
v -12.206782 183.888428 -45.557457 0.101961 0.101961 0.690196
v 0.0 190.357254 -27.593483 0.101961 0.101961 0.690196
v 20.201456 190.357254 -20.201456 0.101961 0.101961 0.690196
v 12.206782 183.888428 -45.557457 0.101961 0.101961 0.690196
v -20.201456 190.357254 -20.201456 0.101961 0.101961 0.690196
v 0.0 190.357254 -27.593483 0.101961 0.101961 0.690196
v -12.206782 183.888428 -45.557457 0.101961 0.101961 0.690196
v -33.350674 183.888428 -33.350674 0.101961 0.101961 0.690196
v -20.201456 190.357254 -20.201456 0.101961 0.101961 0.690196
v -12.206782 183.888428 -45.557457 0.101961 0.101961 0.690196
v -20.201456 190.357254 -20.201456 0.101961 0.101961 0.690196
v -33.350674 183.888428 -33.350674 0.101961 0.101961 0.690196
v -45.557457 183.888428 -12.206782 0.101961 0.101961 0.690196
v -27.593483 190.357254 0.0 0.101961 0.101961 0.690196
v -20.201456 190.357254 -20.201456 0.101961 0.101961 0.690196
v -45.557457 183.888428 -12.206782 0.101961 0.101961 0.690196
v -45.557457 183.888428 12.206782 0.101961 0.101961 0.690196
v -27.593483 190.357254 0.0 0.101961 0.101961 0.690196
v -45.557457 183.888428 -12.206782 0.101961 0.101961 0.690196
v -20.201456 190.357254 20.201456 0.101961 0.101961 0.690196
v -27.593483 190.357254 0.0 0.101961 0.101961 0.690196
v -45.557457 183.888428 12.206782 0.101961 0.101961 0.690196
v -33.350674 183.888428 33.350674 0.101961 0.101961 0.690196
v -20.201456 190.357254 20.201456 0.101961 0.101961 0.690196
v -45.557457 183.888428 12.206782 0.101961 0.101961 0.690196
v 0.0 190.357254 27.593483 0.101961 0.101961 0.690196
v -12.206782 183.888428 45.557457 0.101961 0.101961 0.690196
v 12.206782 183.888428 45.557457 0.101961 0.101961 0.690196
v 0.0 190.357254 27.593483 0.101961 0.101961 0.690196
v -20.201456 190.357254 20.201456 0.101961 0.101961 0.690196
v -12.206782 183.888428 45.557457 0.101961 0.101961 0.690196
v -20.201456 190.357254 20.201456 0.101961 0.101961 0.690196
v -33.350674 183.888428 33.350674 0.101961 0.101961 0.690196
v -12.206782 183.888428 45.557457 0.101961 0.101961 0.690196
v 20.201456 190.357254 20.201456 0.101961 0.101961 0.690196
v 12.206782 183.888428 45.557457 0.101961 0.101961 0.690196
v 33.350674 183.888428 33.350674 0.101961 0.101961 0.690196
v 0.0 190.357254 27.593483 0.101961 0.101961 0.690196
v 12.206782 183.888428 45.557457 0.101961 0.101961 0.690196
v 20.201456 190.357254 20.201456 0.101961 0.101961 0.690196
v 20.201456 190.357254 20.201456 0.101961 0.101961 0.690196
v 33.350674 183.888428 33.350674 0.101961 0.101961 0.690196
v 45.557457 183.888428 12.206782 0.101961 0.101961 0.690196
v 27.593483 190.357254 0.0 0.101961 0.101961 0.690196
v 20.201456 190.357254 20.201456 0.101961 0.101961 0.690196
v 45.557457 183.888428 12.206782 0.101961 0.101961 0.690196
v -27.593483 190.357254 0.0 0.101961 0.101961 0.690196
v -15.303356 282.568481 0.0 0.101961 0.101961 0.690196
v -20.201456 190.357254 -20.201456 0.101961 0.101961 0.690196
v -11.206647 282.568481 -11.206647 0.101961 0.101961 0.690196
v -20.201456 190.357254 20.201456 0.101961 0.101961 0.690196
v -11.206647 282.568481 11.206647 0.101961 0.101961 0.690196
v -27.593483 190.357254 0.0 0.101961 0.101961 0.690196
v -15.303356 282.568481 0.0 0.101961 0.101961 0.690196
v 0.0 190.357254 27.593483 0.101961 0.101961 0.690196
v 0.0 282.568481 15.303356 0.101961 0.101961 0.690196
v -20.201456 190.357254 20.201456 0.101961 0.101961 0.690196
v -11.206647 282.568481 11.206647 0.101961 0.101961 0.690196
v 20.201456 190.357254 20.201456 0.101961 0.101961 0.690196
v 11.206647 282.568481 11.206647 0.101961 0.101961 0.690196
v 0.0 190.357254 27.593483 0.101961 0.101961 0.690196
v 0.0 282.568481 15.303356 0.101961 0.101961 0.690196
v 27.593483 190.357254 0.0 0.101961 0.101961 0.690196
v 15.303356 282.568481 0.0 0.101961 0.101961 0.690196
v 20.201456 190.357254 20.201456 0.101961 0.101961 0.690196
v 11.206647 282.568481 11.206647 0.101961 0.101961 0.690196
v 20.201456 190.357254 -20.201456 0.101961 0.101961 0.690196
v 11.206647 282.568481 -11.206647 0.101961 0.101961 0.690196
v 27.593483 190.357254 0.0 0.101961 0.101961 0.690196
v 15.303356 282.568481 0.0 0.101961 0.101961 0.690196
v 27.593483 190.357254 0.0 0.101961 0.101961 0.690196
v 45.557457 183.888428 12.206782 0.101961 0.101961 0.690196
v 45.557457 183.888428 -12.206782 0.101961 0.101961 0.690196
v 20.201456 190.357254 -20.201456 0.101961 0.101961 0.690196
v 45.557457 183.888428 -12.206782 0.101961 0.101961 0.690196
v 33.350674 183.888428 -33.350674 0.101961 0.101961 0.690196
v 45.557457 183.888428 -12.206782 0.101961 0.101961 0.690196
v 20.201456 190.357254 -20.201456 0.101961 0.101961 0.690196
v 27.593483 190.357254 0.0 0.101961 0.101961 0.690196
v 0.0 292.146698 0.0 0.101961 0.101961 0.690196
v 0.0 282.568481 -15.303356 0.101961 0.101961 0.690196
v -11.206647 282.568481 -11.206647 0.101961 0.101961 0.690196
v 0.0 292.146698 0.0 0.101961 0.101961 0.690196
v 11.206647 282.568481 -11.206647 0.101961 0.101961 0.690196
v 0.0 282.568481 -15.303356 0.101961 0.101961 0.690196
v 0.0 292.146698 0.0 0.101961 0.101961 0.690196
v 15.303356 282.568481 0.0 0.101961 0.101961 0.690196
v 11.206647 282.568481 -11.206647 0.101961 0.101961 0.690196
v 0.0 292.146698 0.0 0.101961 0.101961 0.690196
v 11.206647 282.568481 11.206647 0.101961 0.101961 0.690196
v 15.303356 282.568481 0.0 0.101961 0.101961 0.690196
v 0.0 292.146698 0.0 0.101961 0.101961 0.690196
v 0.0 282.568481 15.303356 0.101961 0.101961 0.690196
v 11.206647 282.568481 11.206647 0.101961 0.101961 0.690196
v 111.790794 130.528625 12.514517 0.101961 0.101961 0.690196
v 96.083534 139.222122 -49.237442 0.101961 0.101961 0.690196
v 122.016541 102.076065 5.911057 0.101961 0.101961 0.690196
v 106.302872 110.769547 -55.847313 0.101961 0.101961 0.690196
v -107.033737 69.981964 -65.316544 0.101961 0.101961 0.690196
v -122.740997 50.575489 -6.045691 0.101961 0.101961 0.690196
v -96.807991 41.529392 -71.920006 0.101961 0.101961 0.690196
v -112.52166 22.122913 -12.649151 0.101961 0.101961 0.690196
v -122.740997 50.575489 -6.045691 0.101961 0.101961 0.690196
v -107.033737 41.888416 55.706268 0.101961 0.101961 0.690196
v -112.52166 22.122913 -12.649151 0.101961 0.101961 0.690196
v -96.807991 13.435837 49.10281 0.101961 0.101961 0.690196
v 96.083534 111.128571 71.78537 0.101961 0.101961 0.690196
v 111.790794 130.528625 12.514517 0.101961 0.101961 0.690196
v 106.302872 82.675995 65.175499 0.101961 0.101961 0.690196
v 122.016541 102.076065 5.911057 0.101961 0.101961 0.690196
v 96.083534 139.222122 -49.237442 0.101961 0.101961 0.690196
v 53.161053 134.875381 -96.936218 0.101961 0.101961 0.690196
v 106.302872 110.769547 -55.847313 0.101961 0.101961 0.690196
v 63.380386 106.416389 -103.539673 0.101961 0.101961 0.690196
v -64.111252 94.895599 -106.213112 0.101961 0.101961 0.690196
v -107.033737 69.981964 -65.316544 0.101961 0.101961 0.690196
v -53.885509 66.443024 -112.822983 0.101961 0.101961 0.690196
v -96.807991 41.529392 -71.920006 0.101961 0.101961 0.690196
v 111.790794 130.528625 12.514517 0.101961 0.101961 0.690196
v 122.016541 102.076065 5.911057 0.101961 0.101961 0.690196
v 96.083534 139.222122 -49.237442 0.101961 0.101961 0.690196
v 106.302872 110.769547 -55.847313 0.101961 0.101961 0.690196
v -107.033737 69.981964 -65.316544 0.101961 0.101961 0.690196
v -96.807991 41.529392 -71.920006 0.101961 0.101961 0.690196
v -122.740997 50.575489 -6.045691 0.101961 0.101961 0.690196
v -112.52166 22.122913 -12.649151 0.101961 0.101961 0.690196
v -122.740997 50.575489 -6.045691 0.101961 0.101961 0.690196
v -112.52166 22.122913 -12.649151 0.101961 0.101961 0.690196
v -107.033737 41.888416 55.706268 0.101961 0.101961 0.690196
v -96.807991 13.435837 49.10281 0.101961 0.101961 0.690196
v 96.083534 111.128571 71.78537 0.101961 0.101961 0.690196
v 106.302872 82.675995 65.175499 0.101961 0.101961 0.690196
v 111.790794 130.528625 12.514517 0.101961 0.101961 0.690196
v 122.016541 102.076065 5.911057 0.101961 0.101961 0.690196
v -107.033737 41.888416 55.706268 0.101961 0.101961 0.690196
v -96.807991 13.435837 49.10281 0.101961 0.101961 0.690196
v -64.111252 46.235157 103.405045 0.101961 0.101961 0.690196
v -53.885509 17.782585 96.801582 0.101961 0.101961 0.690196
v -64.111252 46.235157 103.405045 0.101961 0.101961 0.690196
v -53.885509 17.782585 96.801582 0.101961 0.101961 0.690196
v -5.475101 62.455307 124.260429 0.101961 0.101961 0.690196
v 4.744233 34.002731 117.650566 0.101961 0.101961 0.690196
v -5.475101 62.455307 124.260429 0.101961 0.101961 0.690196
v 4.744233 34.002731 117.650566 0.101961 0.101961 0.690196
v 53.161053 86.208527 112.681938 0.101961 0.101961 0.690196
v 63.380386 57.755951 106.078484 0.101961 0.101961 0.690196
v 53.161053 86.208527 112.681938 0.101961 0.101961 0.690196
v 63.380386 57.755951 106.078484 0.101961 0.101961 0.690196
v 96.083534 111.128571 71.78537 0.101961 0.101961 0.690196
v 106.302872 82.675995 65.175499 0.101961 0.101961 0.690196
v 0.0 292.146698 0.0 0.101961 0.101961 0.690196
v -11.206647 282.568481 11.206647 0.101961 0.101961 0.690196
v 0.0 282.568481 15.303356 0.101961 0.101961 0.690196
v 0.0 292.146698 0.0 0.101961 0.101961 0.690196
v -15.303356 282.568481 0.0 0.101961 0.101961 0.690196
v -11.206647 282.568481 11.206647 0.101961 0.101961 0.690196
v 0.0 292.146698 0.0 0.101961 0.101961 0.690196
v -11.206647 282.568481 -11.206647 0.101961 0.101961 0.690196
v -15.303356 282.568481 0.0 0.101961 0.101961 0.690196
vt 0.953898 0.942899
vt 0.853898 0.942899
vt 0.953898 0.842898
vt 0.853898 0.842898
vt 0.953898 0.742898
vt 0.853898 0.742898
vt 0.953898 0.642898
vt 0.853898 0.642898
vt 0.953898 0.542898
vt 0.853898 0.542898
vt 0.853898 0.542898
vt 0.953898 0.542898
vt 0.853898 0.642898
vt 0.953898 0.642898
vt 0.853898 0.742898
vt 0.953898 0.742898
vt 0.853898 0.842898
vt 0.953898 0.842898
vt 0.853898 0.942899
vt 0.953898 0.942899
vt 0.853898 0.542898
vt 0.953898 0.542898
vt 0.853898 0.642898
vt 0.953898 0.642898
vt 0.853898 0.742898
vt 0.953898 0.742898
vt 0.853898 0.842898
vt 0.953898 0.842898
vt 0.853898 0.942899
vt 0.953898 0.942899
vt 0.954704 0.041597
vt 0.954704 0.154905
vt 0.331496 0.041597
vt 0.331496 0.154905
vt 0.282097 0.142502
vt 0.282097 0.239999
vt 0.049202 0.142502
vt 0.049202 0.239999
vt 0.282196 0.044906
vt 0.282097 0.142502
vt 0.049103 0.044906
vt 0.049202 0.142502
vt 0.326207 0.313298
vt 0.326207 0.213298
vt 0.5494 0.313298
vt 0.5494 0.213298
vt 0.5494 0.213298
vt 0.5494 0.313298
vt 0.326207 0.213298
vt 0.326207 0.313298
vt 0.5494 0.213298
vt 0.5494 0.313298
vt 0.326207 0.213298
vt 0.326207 0.313298
vt 0.5494 0.213298
vt 0.5494 0.313298
vt 0.326207 0.213298
vt 0.326207 0.313298
vt 0.509194 0.0413
vt 0.968097 0.9681
vt 0.509194 0.9681
vt 0.968097 0.9681
vt 0.509194 0.0413
vt 0.968097 0.0413
vt 0.954704 0.154905
vt 0.331496 0.154905
vt 0.954704 0.041597
vt 0.331496 0.041597
vt 0.331496 0.041597
vt 0.954704 0.041597
vt 0.331496 0.154905
vt 0.954704 0.154905
vt 0.853898 0.542898
vt 0.953898 0.542898
vt 0.853898 0.642898
vt 0.953898 0.642898
vt 0.853898 0.742898
vt 0.953898 0.742898
vt 0.853898 0.842898
vt 0.953898 0.842898
vt 0.853898 0.942899
vt 0.953898 0.942899
vt 0.853898 0.542898
vt 0.953898 0.542898
vt 0.853898 0.642898
vt 0.953898 0.642898
vt 0.853898 0.742898
vt 0.953898 0.742898
vt 0.853898 0.842898
vt 0.953898 0.842898
vt 0.853898 0.942899
vt 0.953898 0.942899
vt 0.853898 0.542898
vt 0.953898 0.542898
vt 0.853898 0.642898
vt 0.953898 0.642898
vt 0.853898 0.742898
vt 0.953898 0.742898
vt 0.853898 0.842898
vt 0.953898 0.842898
vt 0.853898 0.942899
vt 0.953898 0.942899
vt 0.853898 0.542898
vt 0.953898 0.542898
vt 0.853898 0.642898
vt 0.953898 0.642898
vt 0.853898 0.742898
vt 0.953898 0.742898
vt 0.853898 0.842898
vt 0.953898 0.842898
vt 0.853898 0.942899
vt 0.953898 0.942899
vt 0.853898 0.542898
vt 0.953898 0.542898
vt 0.853898 0.642898
vt 0.953898 0.642898
vt 0.853898 0.742898
vt 0.953898 0.742898
vt 0.853898 0.842898
vt 0.953898 0.842898
vt 0.853898 0.942899
vt 0.953898 0.942899
vt 0.853898 0.542898
vt 0.953898 0.542898
vt 0.853898 0.642898
vt 0.953898 0.642898
vt 0.853898 0.742898
vt 0.953898 0.742898
vt 0.853898 0.842898
vt 0.953898 0.842898
vt 0.853898 0.942899
vt 0.953898 0.942899
vt 0.853898 0.542898
vt 0.953799 0.442898
vt 0.953898 0.542898
vt 0.853898 0.542898
vt 0.953898 0.542898
vt 0.853898 0.542898
vt 0.953898 0.542898
vt 0.853898 0.542898
vt 0.953898 0.542898
vt 0.853898 0.542898
vt 0.953898 0.542898
vt 0.049103 0.044906
vt 0.282196 0.044906
vt 0.049202 0.142502
vt 0.282097 0.142502
vt 0.853898 0.542898
vt 0.953898 0.542898
vt 0.053798 0.786697
vt 0.186495 0.757804
vt 0.072198 0.725899
vt 0.072198 0.725899
vt 0.186495 0.757804
vt 0.053798 0.786697
vt 0.053798 0.786697
vt 0.244804 0.952897
vt 0.132302 0.966205
vt 0.186495 0.757804
vt 0.244804 0.952897
vt 0.053798 0.786697
vt 0.132302 0.966205
vt 0.186495 0.757804
vt 0.053798 0.786697
vt 0.245695 0.952897
vt 0.186495 0.757804
vt 0.132302 0.966205
vt 0.245695 0.952897
vt 0.309901 0.737694
vt 0.186495 0.757804
vt 0.309901 0.737694
vt 0.244804 0.952897
vt 0.186495 0.757804
vt 0.309901 0.737694
vt 0.476695 0.947
vt 0.244804 0.952897
vt 0.476695 0.947
vt 0.309901 0.737694
vt 0.245695 0.952897
vt 0.476695 0.947
vt 0.356401 0.655004
vt 0.309901 0.737694
vt 0.356401 0.655004
vt 0.476695 0.594306
vt 0.376596 0.574393
vt 0.376596 0.574393
vt 0.476695 0.594306
vt 0.356401 0.655004
vt 0.356401 0.655004
vt 0.476695 0.947
vt 0.309901 0.737694
vt 0.476695 0.947
vt 0.476695 0.594306
vt 0.356401 0.655004
vt 0.800002 0.678905
vt 0.800002 0.744907
vt 0.674503 0.678905
vt 0.674503 0.744907
vt 0.049103 0.337496
vt 0.282295 0.337496
vt 0.049103 0.435007
vt 0.282295 0.435007
vt 0.049103 0.239999
vt 0.282295 0.239999
vt 0.049103 0.337496
vt 0.282295 0.337496
vt 0.049202 0.142502
vt 0.282097 0.142502
vt 0.049202 0.239999
vt 0.282097 0.239999
vt 0.049103 0.044906
vt 0.282196 0.044906
vt 0.049202 0.142502
vt 0.282097 0.142502
vt 0.476695 0.594306
vt 0.476695 0.947
vt 0.356401 0.655004
vt 0.326207 0.213298
vt 0.5494 0.213298
vt 0.325995 0.313298
vt 0.5494 0.313298
vt 0.053798 0.786697
vt 0.186495 0.757804
vt 0.072198 0.725899
vt 0.132302 0.966205
vt 0.186495 0.757804
vt 0.053798 0.786697
vt 0.244804 0.952897
vt 0.186495 0.757804
vt 0.132302 0.966205
vt 0.244804 0.952897
vt 0.309901 0.737694
vt 0.186495 0.757804
vt 0.476695 0.947
vt 0.309901 0.737694
vt 0.244804 0.952897
vt 0.476695 0.947
vt 0.356401 0.655004
vt 0.309901 0.737694
vt 0.356401 0.655004
vt 0.476695 0.594306
vt 0.376596 0.574393
vt 0.800002 0.678905
vt 0.800002 0.744907
vt 0.674503 0.678905
vt 0.674503 0.744907
vt 0.049103 0.337496
vt 0.282295 0.337496
vt 0.049103 0.435007
vt 0.282295 0.435007
vt 0.049103 0.239999
vt 0.282295 0.239999
vt 0.049103 0.337496
vt 0.282295 0.337496
vt 0.049202 0.142502
vt 0.282097 0.142502
vt 0.049202 0.239999
vt 0.282097 0.239999
vt 0.049103 0.044906
vt 0.282196 0.044906
vt 0.049202 0.142502
vt 0.282097 0.142502
vt 0.476695 0.947
vt 0.476695 0.594306
vt 0.356401 0.655004
vt 0.326306 0.213298
vt 0.549598 0.213298
vt 0.326207 0.313298
vt 0.549499 0.313298
vt 0.072198 0.725899
vt 0.186495 0.757804
vt 0.053798 0.786697
vt 0.053798 0.786697
vt 0.244804 0.952897
vt 0.132302 0.966205
vt 0.186495 0.757804
vt 0.244804 0.952897
vt 0.053798 0.786697
vt 0.309901 0.737694
vt 0.244804 0.952897
vt 0.186495 0.757804
vt 0.309901 0.737694
vt 0.476695 0.947
vt 0.244804 0.952897
vt 0.376596 0.574393
vt 0.476695 0.594306
vt 0.356401 0.655004
vt 0.356401 0.655004
vt 0.476695 0.947
vt 0.309901 0.737694
vt 0.674503 0.678905
vt 0.800002 0.678905
vt 0.674503 0.744907
vt 0.800002 0.744907
vt 0.282295 0.337496
vt 0.282295 0.435007
vt 0.049103 0.337496
vt 0.049103 0.435007
vt 0.282295 0.239999
vt 0.282295 0.337496
vt 0.049103 0.239999
vt 0.049103 0.337496
vt 0.476695 0.594306
vt 0.476695 0.947
vt 0.356401 0.655004
vt 0.549598 0.213298
vt 0.549499 0.313298
vt 0.326306 0.213298
vt 0.326207 0.313298
vt 0.072198 0.725899
vt 0.186495 0.757804
vt 0.053798 0.786697
vt 0.053798 0.786697
vt 0.186495 0.757804
vt 0.072198 0.725899
vt 0.132302 0.966205
vt 0.244804 0.952897
vt 0.053798 0.786697
vt 0.053798 0.786697
vt 0.244804 0.952897
vt 0.186495 0.757804
vt 0.053798 0.786697
vt 0.186495 0.757804
vt 0.132302 0.966205
vt 0.132302 0.966205
vt 0.186495 0.757804
vt 0.245695 0.952897
vt 0.186495 0.757804
vt 0.309901 0.737694
vt 0.245695 0.952897
vt 0.186495 0.757804
vt 0.244804 0.952897
vt 0.309901 0.737694
vt 0.244804 0.952897
vt 0.476695 0.947
vt 0.309901 0.737694
vt 0.245695 0.952897
vt 0.309901 0.737694
vt 0.476695 0.947
vt 0.309901 0.737694
vt 0.356401 0.655004
vt 0.476695 0.947
vt 0.376596 0.574393
vt 0.476695 0.594306
vt 0.356401 0.655004
vt 0.356401 0.655004
vt 0.476695 0.594306
vt 0.376596 0.574393
vt 0.309901 0.737694
vt 0.476695 0.947
vt 0.356401 0.655004
vt 0.5494 0.213298
vt 0.5494 0.313298
vt 0.326207 0.213298
vt 0.326207 0.313298
vt 0.5494 0.213298
vt 0.5494 0.313298
vt 0.326207 0.213298
vt 0.326207 0.313298
vt 0.5494 0.213298
vt 0.5494 0.313298
vt 0.326207 0.213298
vt 0.326207 0.313298
vt 0.5494 0.213298
vt 0.5494 0.313298
vt 0.326207 0.213298
vt 0.326207 0.313298
vt 0.5494 0.213298
vt 0.5494 0.313298
vt 0.326207 0.213298
vt 0.326207 0.313298
vt 0.776596 0.506496
vt 0.598502 0.309296
vt 0.954704 0.309296
vt 0.619094 0.213199
vt 0.934099 0.212803
vt 0.934099 0.212803
vt 0.619094 0.213199
vt 0.954704 0.309296
vt 0.598502 0.309296
vt 0.776596 0.506496
vt 0.697399 0.265597
vt 0.857702 0.265597
vt 0.934099 0.212803
vt 0.776596 0.506496
vt 0.598502 0.309296
vt 0.954704 0.309296
vt 0.619094 0.213199
vt 0.934099 0.212803
vt 0.697399 0.265597
vt 0.619094 0.213199
vt 0.857702 0.265597
vt 0.697399 0.265597
vt 0.619094 0.213199
vt 0.857702 0.265597
vt 0.934099 0.212803
vt 0.697399 0.265597
vt 0.619094 0.213199
vt 0.857702 0.265597
vt 0.934099 0.212803
vt 0.954704 0.309296
vt 0.598502 0.309296
vt 0.776596 0.506496
vt 0.526801 0.365003
vt 0.616293 0.582794
vt 0.526801 0.947
vt 0.616293 0.728502
vt 0.801105 0.9174
vt 0.616293 0.582794
vt 0.526801 0.365003
vt 0.616293 0.728502
vt 0.526801 0.947
vt 0.801105 0.9174
vt 0.356401 0.655004
vt 0.476695 0.594306
vt 0.476695 0.947
vt 0.616293 0.582794
vt 0.526801 0.947
vt 0.616293 0.728502
vt 0.801105 0.9174
vt 0.616293 0.728502
vt 0.616293 0.582794
vt 0.526801 0.365003
vt 0.5494 0.213298
vt 0.5494 0.313298
vt 0.326207 0.213298
vt 0.326207 0.313298
vt 0.5494 0.213298
vt 0.5494 0.313298
vt 0.326207 0.213298
vt 0.326207 0.313298
vt 0.5494 0.213298
vt 0.5494 0.313298
vt 0.326207 0.213298
vt 0.326207 0.313298
vt 0.5494 0.213298
vt 0.5494 0.313298
vt 0.326207 0.213298
vt 0.326207 0.313298
vt 0.5494 0.213298
vt 0.5494 0.313298
vt 0.326207 0.213298
vt 0.326207 0.313298
vt 0.356401 0.655004
vt 0.476695 0.947
vt 0.476695 0.594306
vt 0.616293 0.728502
vt 0.526801 0.947
vt 0.801105 0.9174
vt 0.674503 0.744907
vt 0.674503 0.678905
vt 0.800002 0.678905
vt 0.674503 0.744907
vt 0.674503 0.678905
vt 0.800002 0.678905
vt 0.800002 0.744907
vt 0.674503 0.744907
vt 0.800002 0.678905
vt 0.800002 0.744907
vt 0.674503 0.744907
vt 0.800002 0.678905
vt 0.800002 0.678905
vt 0.800002 0.744907
vt 0.674503 0.678905
vt 0.674503 0.744907
vt 0.674503 0.678905
vt 0.800002 0.678905
vt 0.800002 0.744907
vt 0.674503 0.744907
vt 0.800002 0.678905
vt 0.800002 0.678905
vt 0.674503 0.744907
vt 0.674503 0.678905
vt 0.800002 0.744907
vt 0.674503 0.744907
vt 0.674503 0.678905
vt 0.800002 0.678905
vt 0.800002 0.744907
vt 0.674503 0.678905
vt 0.800002 0.744907
vt 0.674503 0.678905
vt 0.800002 0.678905
vt 0.800002 0.744907
vt 0.674503 0.744907
vt 0.674503 0.678905
vt 0.800002 0.744907
vt 0.800002 0.678905
vt 0.674503 0.678905
vt 0.800002 0.744907
vt 0.674503 0.678905
vt 0.800002 0.678905
vt 0.674503 0.744907
vt 0.674503 0.678905
vt 0.800002 0.744907
vt 0.674503 0.744907
vt 0.674503 0.678905
vt 0.800002 0.678905
vt 0.800002 0.744907
vt 0.674503 0.744907
vt 0.800002 0.678905
vt 0.800002 0.547
vt 0.800002 0.678905
vt 0.674503 0.547
vt 0.674503 0.678905
vt 0.674503 0.547
vt 0.674503 0.678905
vt 0.800002 0.547
vt 0.800002 0.678905
vt 0.800002 0.547
vt 0.800002 0.678905
vt 0.674503 0.547
vt 0.674503 0.678905
vt 0.674503 0.547
vt 0.674503 0.678905
vt 0.800002 0.547
vt 0.800002 0.678905
vt 0.800002 0.547
vt 0.800002 0.678905
vt 0.674503 0.547
vt 0.674503 0.678905
vt 0.674503 0.547
vt 0.674503 0.678905
vt 0.800002 0.547
vt 0.800002 0.678905
vt 0.674503 0.744907
vt 0.674503 0.678905
vt 0.800002 0.678905
vt 0.800002 0.744907
vt 0.674503 0.678905
vt 0.800002 0.678905
vt 0.800002 0.678905
vt 0.800002 0.744907
vt 0.674503 0.744907
vt 0.735103 0.744907
vt 0.800002 0.678905
vt 0.674503 0.678905
vt 0.735103 0.744907
vt 0.674503 0.678905
vt 0.800002 0.678905
vt 0.735103 0.744907
vt 0.800002 0.678905
vt 0.674503 0.678905
vt 0.735103 0.744907
vt 0.674503 0.678905
vt 0.800002 0.678905
vt 0.735103 0.744907
vt 0.800002 0.678905
vt 0.674503 0.678905
vt 0.274998 0.651299
vt 0.053897 0.651299
vt 0.274998 0.500005
vt 0.053897 0.500005
vt 0.274998 0.651299
vt 0.053897 0.651299
vt 0.274998 0.500005
vt 0.053897 0.500005
vt 0.274998 0.651299
vt 0.053897 0.651299
vt 0.274998 0.500005
vt 0.053897 0.500005
vt 0.274998 0.651299
vt 0.053897 0.651299
vt 0.274998 0.500005
vt 0.053897 0.500005
vt 0.274998 0.651299
vt 0.053897 0.651299
vt 0.274998 0.500005
vt 0.053897 0.500005
vt 0.274998 0.651299
vt 0.053897 0.651299
vt 0.274998 0.500005
vt 0.053897 0.500005
vt 0.4847 0.528897
vt 0.327395 0.528897
vt 0.4847 0.346999
vt 0.327395 0.346999
vt 0.4847 0.528897
vt 0.327395 0.528897
vt 0.4847 0.346999
vt 0.327395 0.346999
vt 0.4847 0.528897
vt 0.327395 0.528897
vt 0.4847 0.346999
vt 0.327395 0.346999
vt 0.4847 0.528897
vt 0.327395 0.528897
vt 0.4847 0.346999
vt 0.327395 0.346999
vt 0.4847 0.528897
vt 0.327395 0.528897
vt 0.4847 0.346999
vt 0.327395 0.346999
vt 0.4847 0.528897
vt 0.327395 0.528897
vt 0.4847 0.346999
vt 0.327395 0.346999
vt 0.4847 0.528897
vt 0.327395 0.528897
vt 0.4847 0.346999
vt 0.327395 0.346999
vt 0.4847 0.528897
vt 0.327395 0.528897
vt 0.4847 0.346999
vt 0.327395 0.346999
vt 0.735103 0.744907
vt 0.674503 0.678905
vt 0.800002 0.678905
vt 0.735103 0.744907
vt 0.800002 0.678905
vt 0.674503 0.678905
vt 0.735103 0.744907
vt 0.674503 0.678905
vt 0.800002 0.678905
g top_bonus_2_part0
usemtl top_bonus_2_mat0
f 1/1 2/2 3/3
f 3/3 2/2 4/4
f 3/3 4/4 5/5
f 5/5 4/4 6/6
f 5/5 6/6 7/7
f 7/7 6/6 8/8
f 7/7 8/8 9/9
f 9/9 8/8 10/10
f 11/11 12/12 13/13
f 13/13 12/12 14/14
f 13/13 14/14 15/15
f 15/15 14/14 16/16
f 15/15 16/16 17/17
f 17/17 16/16 18/18
f 17/17 18/18 19/19
f 19/19 18/18 20/20
f 21/21 22/22 23/23
f 23/23 22/22 24/24
f 23/23 24/24 25/25
f 25/25 24/24 26/26
f 25/25 26/26 27/27
f 27/27 26/26 28/28
f 27/27 28/28 29/29
f 29/29 28/28 30/30
f 31/31 32/32 33/33
f 33/33 32/32 34/34
f 35/35 36/36 37/37
f 37/37 36/36 38/38
f 39/39 40/40 41/41
f 41/41 40/40 42/42
f 43/43 44/44 45/45
f 45/45 44/44 46/46
f 47/47 48/48 49/49
f 49/49 48/48 50/50
f 51/51 52/52 53/53
f 53/53 52/52 54/54
f 55/55 56/56 57/57
f 57/57 56/56 58/58
f 65/65 66/66 67/67
f 67/67 66/66 68/68
f 69/69 70/70 71/71
f 71/71 70/70 72/72
f 73/73 74/74 75/75
f 75/75 74/74 76/76
f 75/75 76/76 77/77
f 77/77 76/76 78/78
f 77/77 78/78 79/79
f 79/79 78/78 80/80
f 79/79 80/80 81/81
f 81/81 80/80 82/82
f 83/83 84/84 85/85
f 85/85 84/84 86/86
f 85/85 86/86 87/87
f 87/87 86/86 88/88
f 87/87 88/88 89/89
f 89/89 88/88 90/90
f 89/89 90/90 91/91
f 91/91 90/90 92/92
f 93/93 94/94 95/95
f 95/95 94/94 96/96
f 95/95 96/96 97/97
f 97/97 96/96 98/98
f 97/97 98/98 99/99
f 99/99 98/98 100/100
f 99/99 100/100 101/101
f 101/101 100/100 102/102
f 103/103 104/104 105/105
f 105/105 104/104 106/106
f 105/105 106/106 107/107
f 107/107 106/106 108/108
f 107/107 108/108 109/109
f 109/109 108/108 110/110
f 109/109 110/110 111/111
f 111/111 110/110 112/112
f 113/113 114/114 115/115
f 115/115 114/114 116/116
f 115/115 116/116 117/117
f 117/117 116/116 118/118
f 117/117 118/118 119/119
f 119/119 118/118 120/120
f 119/119 120/120 121/121
f 121/121 120/120 122/122
f 123/123 124/124 125/125
f 125/125 124/124 126/126
f 125/125 126/126 127/127
f 127/127 126/126 128/128
f 127/127 128/128 129/129
f 129/129 128/128 130/130
f 129/129 130/130 131/131
f 131/131 130/130 132/132
f 133/133 134/134 135/135
f 136/136 134/134 137/137
f 138/138 134/134 139/139
f 140/140 134/134 141/141
f 142/142 134/134 143/143
f 144/144 145/145 146/146
f 146/146 145/145 147/147
f 148/148 134/134 149/149
f 150/150 151/151 152/152
f 153/153 154/154 155/155
f 156/156 157/157 158/158
f 159/159 160/160 161/161
f 162/162 163/163 164/164
f 165/165 166/166 167/167
f 168/168 169/169 170/170
f 171/171 172/172 173/173
f 174/174 175/175 176/176
f 177/177 178/178 179/179
f 180/180 181/181 182/182
f 183/183 184/184 185/185
f 186/186 187/187 188/188
f 189/189 190/190 191/191
f 192/192 193/193 194/194
f 195/195 196/196 197/197
f 197/197 196/196 198/198
f 199/199 200/200 201/201
f 201/201 200/200 202/202
f 203/203 204/204 205/205
f 205/205 204/204 206/206
f 207/207 208/208 209/209
f 209/209 208/208 210/210
f 211/211 212/212 213/213
f 213/213 212/212 214/214
f 215/215 216/216 217/217
f 218/218 219/219 220/220
f 220/220 219/219 221/221
f 222/222 223/223 224/224
f 225/225 226/226 227/227
f 228/228 229/229 230/230
f 231/231 232/232 233/233
f 234/234 235/235 236/236
f 237/237 238/238 239/239
f 240/240 241/241 242/242
f 243/243 244/244 245/245
f 245/245 244/244 246/246
f 247/247 248/248 249/249
f 249/249 248/248 250/250
f 251/251 252/252 253/253
f 253/253 252/252 254/254
f 255/255 256/256 257/257
f 257/257 256/256 258/258
f 259/259 260/260 261/261
f 261/261 260/260 262/262
f 263/263 264/264 265/265
f 266/266 267/267 268/268
f 268/268 267/267 269/269
f 270/270 271/271 272/272
f 273/273 274/274 275/275
f 276/276 277/277 278/278
f 279/279 280/280 281/281
f 282/282 283/283 284/284
f 285/285 286/286 287/287
f 288/288 289/289 290/290
f 291/291 292/292 293/293
f 293/293 292/292 294/294
f 295/295 296/296 297/297
f 297/297 296/296 298/298
f 299/299 300/300 301/301
f 301/301 300/300 302/302
f 303/303 304/304 305/305
f 306/306 307/307 308/308
f 308/308 307/307 309/309
f 310/310 311/311 312/312
f 313/313 314/314 315/315
f 316/316 317/317 318/318
f 319/319 320/320 321/321
f 322/322 323/323 324/324
f 325/325 326/326 327/327
f 328/328 329/329 330/330
f 331/331 332/332 333/333
f 334/334 335/335 336/336
f 337/337 338/338 339/339
f 340/340 341/341 342/342
f 343/343 344/344 345/345
f 346/346 347/347 348/348
f 349/349 350/350 351/351
f 352/352 353/353 354/354
f 354/354 353/353 355/355
f 356/356 357/357 358/358
f 358/358 357/357 359/359
f 360/360 361/361 362/362
f 362/362 361/361 363/363
f 364/364 365/365 366/366
f 366/366 365/365 367/367
f 368/368 369/369 370/370
f 370/370 369/369 371/371
f 372/372 373/373 374/374
f 374/374 373/373 375/375
f 374/374 375/375 376/376
f 377/377 378/378 379/379
f 379/379 378/378 380/380
f 379/379 380/380 381/381
f 382/382 378/378 383/383
f 383/383 378/378 384/384
f 385/385 386/386 387/387
f 387/387 386/386 388/388
f 387/387 388/388 389/389
f 390/390 391/391 392/392
f 392/392 391/391 377/377
f 393/393 394/394 395/395
f 395/395 394/394 396/396
f 397/397 398/398 399/399
f 399/399 398/398 400/400
f 400/400 394/394 401/401
f 401/401 394/394 402/402
f 401/401 402/402 403/403
f 404/404 405/405 406/406
f 406/406 405/405 407/407
f 406/406 407/407 408/408
f 409/409 410/410 411/411
f 411/411 410/410 412/412
f 411/411 412/412 413/413
f 414/414 415/415 416/416
f 410/410 417/417 418/418
f 418/418 417/417 419/419
f 418/418 419/419 420/420
f 421/421 412/412 422/422
f 422/422 412/412 423/423
f 424/424 425/425 426/426
f 426/426 425/425 427/427
f 428/428 429/429 430/430
f 430/430 429/429 431/431
f 432/432 433/433 434/434
f 434/434 433/433 435/435
f 436/436 437/437 438/438
f 438/438 437/437 439/439
f 440/440 441/441 442/442
f 442/442 441/441 443/443
f 444/444 445/445 446/446
f 447/447 448/448 449/449
f 450/450 451/451 452/452
f 453/453 454/454 455/455
f 456/456 457/457 458/458
f 459/459 460/460 461/461
f 462/462 463/463 464/464
f 465/465 466/466 467/467
f 468/468 469/469 470/470
f 471/471 472/472 473/473
f 474/474 475/475 476/476
f 477/477 478/478 479/479
f 480/480 481/481 482/482
f 483/483 484/484 485/485
f 486/486 487/487 488/488
f 489/489 490/490 491/491
f 492/492 493/493 494/494
f 495/495 496/496 497/497
f 498/498 499/499 500/500
f 501/501 502/502 503/503
f 503/503 502/502 504/504
f 505/505 506/506 507/507
f 507/507 506/506 508/508
f 509/509 510/510 511/511
f 511/511 510/510 512/512
f 513/513 514/514 515/515
f 515/515 514/514 516/516
f 517/517 518/518 519/519
f 519/519 518/518 520/520
f 521/521 522/522 523/523
f 523/523 522/522 524/524
f 525/525 526/526 527/527
f 528/528 529/529 530/530
f 531/531 532/532 533/533
f 534/534 535/535 536/536
f 537/537 538/538 539/539
f 540/540 541/541 542/542
f 543/543 544/544 545/545
f 546/546 547/547 548/548
f 549/549 550/550 551/551
f 551/551 550/550 552/552
f 553/553 554/554 555/555
f 555/555 554/554 556/556
f 557/557 558/558 559/559
f 559/559 558/558 560/560
f 561/561 562/562 563/563
f 563/563 562/562 564/564
f 565/565 566/566 567/567
f 567/567 566/566 568/568
f 569/569 570/570 571/571
f 571/571 570/570 572/572
f 573/573 574/574 575/575
f 575/575 574/574 576/576
f 577/577 578/578 579/579
f 579/579 578/578 580/580
f 581/581 582/582 583/583
f 583/583 582/582 584/584
f 585/585 586/586 587/587
f 587/587 586/586 588/588
f 589/589 590/590 591/591
f 591/591 590/590 592/592
f 593/593 594/594 595/595
f 595/595 594/594 596/596
f 597/597 598/598 599/599
f 599/599 598/598 600/600
f 601/601 602/602 603/603
f 603/603 602/602 604/604
f 605/605 606/606 607/607
f 608/608 609/609 610/610
f 611/611 612/612 613/613
g top_bonus_2_part1
usemtl top_bonus_2_mat1
f 59/59 60/60 61/61
f 62/62 63/63 64/64
