# top_bonus_3 (M3G user id 42) extracted by M3gToObj
#@default_color FF57DF57
mtllib top_bonus_3.mtl
o top_bonus_3
v 76.493134 245.027252 4.043982 0.341176 0.87451 0.341176
v 85.430229 245.027252 26.011612 0.341176 0.87451 0.341176
v 76.493134 245.027252 -3.378105 0.341176 0.87451 0.341176
v 85.430229 245.027252 -26.015835 0.341176 0.87451 0.341176
v 69.799416 245.027252 -3.378105 0.341176 0.87451 0.341176
v 60.86232 245.027252 -26.015835 0.341176 0.87451 0.341176
v 69.799416 245.027252 4.043982 0.341176 0.87451 0.341176
v 60.86232 245.027252 26.011612 0.341176 0.87451 0.341176
v -61.19059 245.027252 -26.015835 0.341176 0.87451 0.341176
v -70.127686 245.027252 -3.378105 0.341176 0.87451 0.341176
v -61.19059 245.027252 26.011612 0.341176 0.87451 0.341176
v -70.127686 245.027252 4.043982 0.341176 0.87451 0.341176
v -85.758499 245.027252 26.011612 0.341176 0.87451 0.341176
v -76.821404 245.027252 4.043982 0.341176 0.87451 0.341176
v -85.758499 245.027252 -26.015835 0.341176 0.87451 0.341176
v -76.821404 245.027252 -3.378105 0.341176 0.87451 0.341176
v 26.301178 120.082718 24.999178 0.341176 0.87451 0.341176
v 26.301178 120.082718 -25.003401 0.341176 0.87451 0.341176
v 37.110184 111.757454 24.999178 0.341176 0.87451 0.341176
v 37.110184 111.757454 -25.003401 0.341176 0.87451 0.341176
v 44.1171 95.034088 -25.003401 0.341176 0.87451 0.341176
v 44.1171 95.034088 24.999178 0.341176 0.87451 0.341176
v 37.110184 111.757454 -25.003401 0.341176 0.87451 0.341176
v 37.110184 111.757454 24.999178 0.341176 0.87451 0.341176
v 114.637856 -104.961655 -114.520035 0.341176 0.87451 0.341176
v 114.674271 -128.0 114.595932 0.341176 0.87451 0.341176
v 114.637856 -128.0 -114.585587 0.341176 0.87451 0.341176
v 114.674271 -128.0 114.595932 0.341176 0.87451 0.341176
v 114.637856 -104.961655 -114.520035 0.341176 0.87451 0.341176
v 114.637856 -104.961655 114.595932 0.341176 0.87451 0.341176
v 114.637856 -104.961655 114.595932 0.341176 0.87451 0.341176
v -114.594658 -128.0 114.537666 0.341176 0.87451 0.341176
v 114.674271 -128.0 114.595932 0.341176 0.87451 0.341176
v -114.594658 -128.0 114.537666 0.341176 0.87451 0.341176
v 114.637856 -104.961655 114.595932 0.341176 0.87451 0.341176
v -114.594658 -104.968948 114.595932 0.341176 0.87451 0.341176
v -114.594658 -128.0 114.537666 0.341176 0.87451 0.341176
v -114.594658 -104.968948 114.595932 0.341176 0.87451 0.341176
v -114.594658 -104.961655 -114.520035 0.341176 0.87451 0.341176
v -114.594658 -104.961655 -114.520035 0.341176 0.87451 0.341176
v -114.550957 -128.0 -114.592873 0.341176 0.87451 0.341176
v -114.594658 -128.0 114.537666 0.341176 0.87451 0.341176
v 114.637856 -104.961655 -114.520035 0.341176 0.87451 0.341176
v 131.747253 -104.961655 -131.614868 0.341176 0.87451 0.341176
v 114.637856 -104.961655 114.595932 0.341176 0.87451 0.341176
v 131.747253 -104.961655 131.690765 0.341176 0.87451 0.341176
v 114.637856 -104.961655 114.595932 0.341176 0.87451 0.341176
v 131.747253 -104.961655 131.690765 0.341176 0.87451 0.341176
v -114.594658 -104.968948 114.595932 0.341176 0.87451 0.341176
v -131.704071 -104.961655 131.690765 0.341176 0.87451 0.341176
v -114.594658 -104.968948 114.595932 0.341176 0.87451 0.341176
v -131.704071 -104.961655 131.690765 0.341176 0.87451 0.341176
v -114.594658 -104.961655 -114.520035 0.341176 0.87451 0.341176
v -131.704071 -104.961655 -131.614868 0.341176 0.87451 0.341176
v -114.594658 -104.961655 -114.520035 0.341176 0.87451 0.341176
v -131.704071 -104.961655 -131.614868 0.341176 0.87451 0.341176
v 114.637856 -104.961655 -114.520035 0.341176 0.87451 0.341176
v 131.747253 -104.961655 -131.614868 0.341176 0.87451 0.341176
v 131.747253 -104.961655 131.690765 0.341176 0.87451 0.341176
v 131.747253 -89.017654 131.690765 0.341176 0.87451 0.341176
v -131.704071 -104.961655 131.690765 0.341176 0.87451 0.341176
v -131.704071 -89.017654 131.690765 0.341176 0.87451 0.341176
v 131.747253 -104.961655 -131.614868 0.341176 0.87451 0.341176
v 131.747253 -89.017654 -131.614868 0.341176 0.87451 0.341176
v 131.747253 -104.961655 131.690765 0.341176 0.87451 0.341176
v 131.747253 -89.017654 131.690765 0.341176 0.87451 0.341176
v -131.704071 -104.961655 131.690765 0.341176 0.87451 0.341176
v -131.704071 -89.017654 131.690765 0.341176 0.87451 0.341176
v -131.704071 -104.961655 -131.614868 0.341176 0.87451 0.341176
v -131.704071 -89.017654 -131.614868 0.341176 0.87451 0.341176
v 131.747253 -89.017654 131.690765 0.341176 0.87451 0.341176
v 114.579582 -89.017654 114.537666 0.341176 0.87451 0.341176
v -131.704071 -89.017654 131.690765 0.341176 0.87451 0.341176
v -114.536385 -89.017654 114.537666 0.341176 0.87451 0.341176
v 131.747253 -89.017654 -131.614868 0.341176 0.87451 0.341176
v 114.579582 -89.017654 -114.461769 0.341176 0.87451 0.341176
v 131.747253 -89.017654 131.690765 0.341176 0.87451 0.341176
v 114.579582 -89.017654 114.537666 0.341176 0.87451 0.341176
v -131.704071 -89.017654 -131.614868 0.341176 0.87451 0.341176
v -114.536385 -89.017654 -114.461769 0.341176 0.87451 0.341176
v 131.747253 -89.017654 -131.614868 0.341176 0.87451 0.341176
v 114.579582 -89.017654 -114.461769 0.341176 0.87451 0.341176
v -131.704071 -89.017654 131.690765 0.341176 0.87451 0.341176
v -114.536385 -89.017654 114.537666 0.341176 0.87451 0.341176
v -131.704071 -89.017654 -131.614868 0.341176 0.87451 0.341176
v -114.536385 -89.017654 -114.461769 0.341176 0.87451 0.341176
v 114.579582 -89.017654 114.537666 0.341176 0.87451 0.341176
v 114.579582 -71.427521 114.537666 0.341176 0.87451 0.341176
v -114.536385 -89.017654 114.537666 0.341176 0.87451 0.341176
v -114.536385 -71.427521 114.537666 0.341176 0.87451 0.341176
v 114.579582 -89.017654 -114.461769 0.341176 0.87451 0.341176
v 114.579582 -71.427521 -114.461769 0.341176 0.87451 0.341176
v 114.579582 -89.017654 114.537666 0.341176 0.87451 0.341176
v 114.579582 -71.427521 114.537666 0.341176 0.87451 0.341176
v -114.536385 -89.017654 114.537666 0.341176 0.87451 0.341176
v -114.536385 -71.427521 114.537666 0.341176 0.87451 0.341176
v -114.536385 -89.017654 -114.461769 0.341176 0.87451 0.341176
v -114.536385 -71.427521 -114.461769 0.341176 0.87451 0.341176
v -114.594658 -128.0 114.537666 0.341176 0.87451 0.341176
v -114.550957 -128.0 -114.592873 0.341176 0.87451 0.341176
v 114.674271 -128.0 114.595932 0.341176 0.87451 0.341176
v 114.674271 -128.0 114.595932 0.341176 0.87451 0.341176
v -114.550957 -128.0 -114.592873 0.341176 0.87451 0.341176
v 114.637856 -128.0 -114.585587 0.341176 0.87451 0.341176
v 69.799416 349.329803 4.043982 0.341176 0.87451 0.341176
v 76.493134 349.329803 -3.378105 0.341176 0.87451 0.341176
v 69.799416 349.329803 -3.378105 0.341176 0.87451 0.341176
v 76.493134 349.329803 -3.378105 0.341176 0.87451 0.341176
v 69.799416 349.329803 4.043982 0.341176 0.87451 0.341176
v 76.493134 349.329803 4.043982 0.341176 0.87451 0.341176
v 60.86232 245.027252 26.011612 0.341176 0.87451 0.341176
v 60.86232 183.982605 -26.015835 0.341176 0.87451 0.341176
v 60.86232 183.982605 26.011612 0.341176 0.87451 0.341176
v 60.86232 183.982605 -26.015835 0.341176 0.87451 0.341176
v 60.86232 245.027252 26.011612 0.341176 0.87451 0.341176
v 60.86232 245.027252 -26.015835 0.341176 0.87451 0.341176
v 85.430229 245.027252 26.011612 0.341176 0.87451 0.341176
v 60.86232 183.982605 26.011612 0.341176 0.87451 0.341176
v 85.430229 183.982605 26.011612 0.341176 0.87451 0.341176
v 60.86232 183.982605 26.011612 0.341176 0.87451 0.341176
v 85.430229 245.027252 26.011612 0.341176 0.87451 0.341176
v 60.86232 245.027252 26.011612 0.341176 0.87451 0.341176
v 85.430229 245.027252 -26.015835 0.341176 0.87451 0.341176
v 85.430229 183.982605 26.011612 0.341176 0.87451 0.341176
v 85.430229 183.982605 -26.015835 0.341176 0.87451 0.341176
v 85.430229 183.982605 26.011612 0.341176 0.87451 0.341176
v 85.430229 245.027252 -26.015835 0.341176 0.87451 0.341176
v 85.430229 245.027252 26.011612 0.341176 0.87451 0.341176
v 69.799416 349.329803 4.043982 0.341176 0.87451 0.341176
v 69.799416 245.027252 -3.378105 0.341176 0.87451 0.341176
v 69.799416 245.027252 4.043982 0.341176 0.87451 0.341176
v 69.799416 245.027252 -3.378105 0.341176 0.87451 0.341176
v 69.799416 349.329803 4.043982 0.341176 0.87451 0.341176
v 69.799416 349.329803 -3.378105 0.341176 0.87451 0.341176
v 76.493134 349.329803 4.043982 0.341176 0.87451 0.341176
v 69.799416 245.027252 4.043982 0.341176 0.87451 0.341176
v 76.493134 245.027252 4.043982 0.341176 0.87451 0.341176
v 69.799416 245.027252 4.043982 0.341176 0.87451 0.341176
v 76.493134 349.329803 4.043982 0.341176 0.87451 0.341176
v 69.799416 349.329803 4.043982 0.341176 0.87451 0.341176
v 76.493134 349.329803 -3.378105 0.341176 0.87451 0.341176
v 76.493134 245.027252 4.043982 0.341176 0.87451 0.341176
v 76.493134 245.027252 -3.378105 0.341176 0.87451 0.341176
v 76.493134 245.027252 4.043982 0.341176 0.87451 0.341176
v 76.493134 349.329803 -3.378105 0.341176 0.87451 0.341176
v 76.493134 349.329803 4.043982 0.341176 0.87451 0.341176
v 102.423096 183.982605 -50.547325 0.341176 0.87451 0.341176
v 102.306557 183.982605 -61.290779 0.341176 0.87451 0.341176
v 102.306557 211.711639 -61.290779 0.341176 0.87451 0.341176
v 43.985992 183.982605 -61.290779 0.341176 0.87451 0.341176
v 43.862171 183.982605 -50.547325 0.341176 0.87451 0.341176
v 43.985992 211.711639 -61.290779 0.341176 0.87451 0.341176
v 102.423096 183.982605 -50.547325 0.341176 0.87451 0.341176
v 102.306557 -71.427521 -61.290779 0.341176 0.87451 0.341176
v 102.306557 183.982605 -61.290779 0.341176 0.87451 0.341176
v 102.306557 211.711639 61.293839 0.341176 0.87451 0.341176
v 92.306038 183.982605 61.250137 0.341176 0.87451 0.341176
v 102.306557 183.982605 61.293839 0.341176 0.87451 0.341176
v 43.985992 211.711639 61.293839 0.341176 0.87451 0.341176
v 43.985992 183.982605 61.293839 0.341176 0.87451 0.341176
v 53.986507 183.982605 61.250137 0.341176 0.87451 0.341176
v 92.306038 183.982605 61.250137 0.341176 0.87451 0.341176
v 102.306557 -71.427521 61.293839 0.341176 0.87451 0.341176
v 102.306557 183.982605 61.293839 0.341176 0.87451 0.341176
v 53.986507 183.982605 61.250137 0.341176 0.87451 0.341176
v 43.985992 -71.427521 61.286556 0.341176 0.87451 0.341176
v 102.306557 -71.427521 61.293839 0.341176 0.87451 0.341176
v 92.306038 183.982605 61.250137 0.341176 0.87451 0.341176
v 53.986507 183.982605 61.250137 0.341176 0.87451 0.341176
v 102.306557 -71.427521 61.293839 0.341176 0.87451 0.341176
v 53.986507 183.982605 61.250137 0.341176 0.87451 0.341176
v 43.985992 183.982605 61.293839 0.341176 0.87451 0.341176
v 43.985992 -71.427521 61.286556 0.341176 0.87451 0.341176
v 102.306557 211.711639 61.293839 0.341176 0.87451 0.341176
v 102.306557 183.982605 61.293839 0.341176 0.87451 0.341176
v 102.423096 183.982605 47.163467 0.341176 0.87451 0.341176
v 43.985992 211.711639 61.293839 0.341176 0.87451 0.341176
v 43.862171 183.982605 47.163467 0.341176 0.87451 0.341176
v 43.985992 183.982605 61.293839 0.341176 0.87451 0.341176
v 102.306557 183.982605 61.293839 0.341176 0.87451 0.341176
v 102.306557 -71.427521 61.293839 0.341176 0.87451 0.341176
v 102.423096 183.982605 47.163467 0.341176 0.87451 0.341176
v 102.423096 183.982605 -50.547325 0.341176 0.87451 0.341176
v 102.306557 -71.427521 61.293839 0.341176 0.87451 0.341176
v 102.306557 -71.427521 -61.290779 0.341176 0.87451 0.341176
v 85.430229 183.982605 -26.015835 0.341176 0.87451 0.341176
v 92.306038 183.982605 -61.247078 0.341176 0.87451 0.341176
v 60.86232 183.982605 -26.015835 0.341176 0.87451 0.341176
v 53.986507 183.982605 -61.247078 0.341176 0.87451 0.341176
v 43.862171 183.982605 -50.547325 0.341176 0.87451 0.341176
v 60.86232 183.982605 -26.015835 0.341176 0.87451 0.341176
v 43.862171 183.982605 -50.547325 0.341176 0.87451 0.341176
v 60.86232 183.982605 26.011612 0.341176 0.87451 0.341176
v 43.862171 183.982605 47.163467 0.341176 0.87451 0.341176
v 53.986507 183.982605 61.250137 0.341176 0.87451 0.341176
v 92.306038 183.982605 61.250137 0.341176 0.87451 0.341176
v 85.430229 183.982605 26.011612 0.341176 0.87451 0.341176
v 85.430229 183.982605 26.011612 0.341176 0.87451 0.341176
v 102.423096 183.982605 47.163467 0.341176 0.87451 0.341176
v 85.430229 183.982605 -26.015835 0.341176 0.87451 0.341176
v 102.423096 183.982605 -50.547325 0.341176 0.87451 0.341176
v 92.306038 183.982605 -61.247078 0.341176 0.87451 0.341176
v 102.423096 183.982605 47.163467 0.341176 0.87451 0.341176
v 102.306557 -71.427521 61.293839 0.341176 0.87451 0.341176
v 102.423096 183.982605 -50.547325 0.341176 0.87451 0.341176
v 92.306038 183.982605 61.250137 0.341176 0.87451 0.341176
v 92.306038 183.982605 -61.247078 0.341176 0.87451 0.341176
v 102.423096 183.982605 -50.547325 0.341176 0.87451 0.341176
v 102.306557 211.711639 -61.290779 0.341176 0.87451 0.341176
v 43.862171 183.982605 -50.547325 0.341176 0.87451 0.341176
v 53.986507 183.982605 -61.247078 0.341176 0.87451 0.341176
v 43.985992 211.711639 -61.290779 0.341176 0.87451 0.341176
v 43.985992 211.711639 61.293839 0.341176 0.87451 0.341176
v 53.986507 183.982605 61.250137 0.341176 0.87451 0.341176
v 43.862171 183.982605 47.163467 0.341176 0.87451 0.341176
v 102.423096 183.982605 47.163467 0.341176 0.87451 0.341176
v 92.306038 183.982605 61.250137 0.341176 0.87451 0.341176
v 102.306557 211.711639 61.293839 0.341176 0.87451 0.341176
v -76.821404 349.329803 4.043982 0.341176 0.87451 0.341176
v -70.127686 349.329803 -3.378105 0.341176 0.87451 0.341176
v -76.821404 349.329803 -3.378105 0.341176 0.87451 0.341176
v -70.127686 349.329803 -3.378105 0.341176 0.87451 0.341176
v -76.821404 349.329803 4.043982 0.341176 0.87451 0.341176
v -70.127686 349.329803 4.043982 0.341176 0.87451 0.341176
v -85.758499 245.027252 26.011612 0.341176 0.87451 0.341176
v -85.758499 183.982605 -26.015835 0.341176 0.87451 0.341176
v -85.758499 183.982605 26.011612 0.341176 0.87451 0.341176
v -85.758499 183.982605 -26.015835 0.341176 0.87451 0.341176
v -85.758499 245.027252 26.011612 0.341176 0.87451 0.341176
v -85.758499 245.027252 -26.015835 0.341176 0.87451 0.341176
v -61.19059 245.027252 26.011612 0.341176 0.87451 0.341176
v -85.758499 183.982605 26.011612 0.341176 0.87451 0.341176
v -61.19059 183.982605 26.011612 0.341176 0.87451 0.341176
v -85.758499 183.982605 26.011612 0.341176 0.87451 0.341176
v -61.19059 245.027252 26.011612 0.341176 0.87451 0.341176
v -85.758499 245.027252 26.011612 0.341176 0.87451 0.341176
v -61.19059 245.027252 -26.015835 0.341176 0.87451 0.341176
v -61.19059 183.982605 26.011612 0.341176 0.87451 0.341176
v -61.19059 183.982605 -26.015835 0.341176 0.87451 0.341176
v -61.19059 183.982605 26.011612 0.341176 0.87451 0.341176
v -61.19059 245.027252 -26.015835 0.341176 0.87451 0.341176
v -61.19059 245.027252 26.011612 0.341176 0.87451 0.341176
v -76.821404 349.329803 4.043982 0.341176 0.87451 0.341176
v -76.821404 245.027252 -3.378105 0.341176 0.87451 0.341176
v -76.821404 245.027252 4.043982 0.341176 0.87451 0.341176
v -76.821404 245.027252 -3.378105 0.341176 0.87451 0.341176
v -76.821404 349.329803 4.043982 0.341176 0.87451 0.341176
v -76.821404 349.329803 -3.378105 0.341176 0.87451 0.341176
v -70.127686 349.329803 4.043982 0.341176 0.87451 0.341176
v -76.821404 245.027252 4.043982 0.341176 0.87451 0.341176
v -70.127686 245.027252 4.043982 0.341176 0.87451 0.341176
v -76.821404 245.027252 4.043982 0.341176 0.87451 0.341176
v -70.127686 349.329803 4.043982 0.341176 0.87451 0.341176
v -76.821404 349.329803 4.043982 0.341176 0.87451 0.341176
v -70.127686 349.329803 -3.378105 0.341176 0.87451 0.341176
v -70.127686 245.027252 4.043982 0.341176 0.87451 0.341176
v -70.127686 245.027252 -3.378105 0.341176 0.87451 0.341176
v -70.127686 245.027252 4.043982 0.341176 0.87451 0.341176
v -70.127686 349.329803 -3.378105 0.341176 0.87451 0.341176
v -70.127686 349.329803 4.043982 0.341176 0.87451 0.341176
v -44.197723 183.982605 -50.547325 0.341176 0.87451 0.341176
v -44.314262 183.982605 -61.290779 0.341176 0.87451 0.341176
v -44.314262 211.711639 -61.290779 0.341176 0.87451 0.341176
v -102.634827 183.982605 -61.290779 0.341176 0.87451 0.341176
v -102.758652 183.982605 -50.547325 0.341176 0.87451 0.341176
v -102.634827 211.711639 -61.290779 0.341176 0.87451 0.341176
v -102.634827 183.982605 -61.290779 0.341176 0.87451 0.341176
v -102.634827 -71.427521 -61.290779 0.341176 0.87451 0.341176
v -102.758652 183.982605 -50.547325 0.341176 0.87451 0.341176
v -44.314262 211.711639 61.293839 0.341176 0.87451 0.341176
v -54.314781 183.982605 61.250137 0.341176 0.87451 0.341176
v -44.314262 183.982605 61.293839 0.341176 0.87451 0.341176
v -102.634827 211.711639 61.293839 0.341176 0.87451 0.341176
v -102.634827 183.982605 61.293839 0.341176 0.87451 0.341176
v -92.634308 183.982605 61.250137 0.341176 0.87451 0.341176
v -54.314781 183.982605 61.250137 0.341176 0.87451 0.341176
v -44.314262 -71.427521 61.286556 0.341176 0.87451 0.341176
v -44.314262 183.982605 61.293839 0.341176 0.87451 0.341176
v -92.634308 183.982605 61.250137 0.341176 0.87451 0.341176
v -102.634827 -71.427521 61.293839 0.341176 0.87451 0.341176
v -44.314262 -71.427521 61.286556 0.341176 0.87451 0.341176
v -54.314781 183.982605 61.250137 0.341176 0.87451 0.341176
v -92.634308 183.982605 61.250137 0.341176 0.87451 0.341176
v -44.314262 -71.427521 61.286556 0.341176 0.87451 0.341176
v -92.634308 183.982605 61.250137 0.341176 0.87451 0.341176
v -102.634827 183.982605 61.293839 0.341176 0.87451 0.341176
v -102.634827 -71.427521 61.293839 0.341176 0.87451 0.341176
v -44.314262 211.711639 61.293839 0.341176 0.87451 0.341176
v -44.314262 183.982605 61.293839 0.341176 0.87451 0.341176
v -44.197723 183.982605 47.163467 0.341176 0.87451 0.341176
v -102.634827 211.711639 61.293839 0.341176 0.87451 0.341176
v -102.758652 183.982605 47.163467 0.341176 0.87451 0.341176
v -102.634827 183.982605 61.293839 0.341176 0.87451 0.341176
v -102.758652 183.982605 47.163467 0.341176 0.87451 0.341176
v -102.634827 -71.427521 61.293839 0.341176 0.87451 0.341176
v -102.634827 183.982605 61.293839 0.341176 0.87451 0.341176
v -61.19059 183.982605 -26.015835 0.341176 0.87451 0.341176
v -54.314781 183.982605 -61.247078 0.341176 0.87451 0.341176
v -85.758499 183.982605 -26.015835 0.341176 0.87451 0.341176
v -92.634308 183.982605 -61.247078 0.341176 0.87451 0.341176
v -102.758652 183.982605 -50.547325 0.341176 0.87451 0.341176
v -85.758499 183.982605 -26.015835 0.341176 0.87451 0.341176
v -102.758652 183.982605 -50.547325 0.341176 0.87451 0.341176
v -85.758499 183.982605 26.011612 0.341176 0.87451 0.341176
v -102.758652 183.982605 47.163467 0.341176 0.87451 0.341176
v -92.634308 183.982605 61.250137 0.341176 0.87451 0.341176
v -54.314781 183.982605 61.250137 0.341176 0.87451 0.341176
v -61.19059 183.982605 26.011612 0.341176 0.87451 0.341176
v -61.19059 183.982605 26.011612 0.341176 0.87451 0.341176
v -44.197723 183.982605 47.163467 0.341176 0.87451 0.341176
v -61.19059 183.982605 -26.015835 0.341176 0.87451 0.341176
v -44.197723 183.982605 -50.547325 0.341176 0.87451 0.341176
v -54.314781 183.982605 -61.247078 0.341176 0.87451 0.341176
v -102.758652 183.982605 47.163467 0.341176 0.87451 0.341176
v -102.634827 -71.427521 -61.290779 0.341176 0.87451 0.341176
v -102.634827 -71.427521 61.293839 0.341176 0.87451 0.341176
v -102.758652 183.982605 -50.547325 0.341176 0.87451 0.341176
v -102.634827 -71.427521 -61.290779 0.341176 0.87451 0.341176
v -102.758652 183.982605 47.163467 0.341176 0.87451 0.341176
v -54.314781 183.982605 61.250137 0.341176 0.87451 0.341176
v -54.314781 183.982605 -61.247078 0.341176 0.87451 0.341176
v -44.197723 183.982605 -50.547325 0.341176 0.87451 0.341176
v -44.314262 211.711639 -61.290779 0.341176 0.87451 0.341176
v -102.758652 183.982605 -50.547325 0.341176 0.87451 0.341176
v -92.634308 183.982605 -61.247078 0.341176 0.87451 0.341176
v -102.634827 211.711639 -61.290779 0.341176 0.87451 0.341176
v -44.36525 95.034088 24.999178 0.341176 0.87451 0.341176
v -37.358334 111.757454 24.999178 0.341176 0.87451 0.341176
v -44.36525 134.701096 24.999178 0.341176 0.87451 0.341176
v -26.556612 120.082718 24.999178 0.341176 0.87451 0.341176
v -0.000252 134.701096 24.999178 0.341176 0.87451 0.341176
v -10.37952 123.724571 24.999178 0.341176 0.87451 0.341176
v 10.124086 123.724571 24.999178 0.341176 0.87451 0.341176
v 26.301178 120.082718 24.999178 0.341176 0.87451 0.341176
v 44.1171 134.701096 24.999178 0.341176 0.87451 0.341176
v 37.110184 111.757454 24.999178 0.341176 0.87451 0.341176
v 44.1171 95.034088 24.999178 0.341176 0.87451 0.341176
v -37.358334 111.757454 -25.003401 0.341176 0.87451 0.341176
v -37.358334 111.757454 24.999178 0.341176 0.87451 0.341176
v -44.36525 95.034088 -25.003401 0.341176 0.87451 0.341176
v -44.36525 95.034088 24.999178 0.341176 0.87451 0.341176
v -26.556612 120.082718 -25.003401 0.341176 0.87451 0.341176
v -26.556612 120.082718 24.999178 0.341176 0.87451 0.341176
v -37.358334 111.757454 -25.003401 0.341176 0.87451 0.341176
v -37.358334 111.757454 24.999178 0.341176 0.87451 0.341176
v -10.37952 123.724571 -25.003401 0.341176 0.87451 0.341176
v -10.37952 123.724571 24.999178 0.341176 0.87451 0.341176
v -26.556612 120.082718 -25.003401 0.341176 0.87451 0.341176
v -26.556612 120.082718 24.999178 0.341176 0.87451 0.341176
v 10.124086 123.724571 -25.003401 0.341176 0.87451 0.341176
v 10.124086 123.724571 24.999178 0.341176 0.87451 0.341176
v -10.37952 123.724571 -25.003401 0.341176 0.87451 0.341176
v -10.37952 123.724571 24.999178 0.341176 0.87451 0.341176
v 26.301178 120.082718 -25.003401 0.341176 0.87451 0.341176
v 26.301178 120.082718 24.999178 0.341176 0.87451 0.341176
v 10.124086 123.724571 -25.003401 0.341176 0.87451 0.341176
v 10.124086 123.724571 24.999178 0.341176 0.87451 0.341176
v -102.634827 211.711639 61.293839 0.341176 0.87451 0.341176
v -92.634308 183.982605 61.250137 0.341176 0.87451 0.341176
v -102.758652 183.982605 47.163467 0.341176 0.87451 0.341176
v -44.197723 183.982605 47.163467 0.341176 0.87451 0.341176
v -54.314781 183.982605 61.250137 0.341176 0.87451 0.341176
v -44.314262 211.711639 61.293839 0.341176 0.87451 0.341176
v 44.1171 134.701096 -25.003401 0.341176 0.87451 0.341176
v 44.1171 134.701096 24.999178 0.341176 0.87451 0.341176
v 43.862171 183.982605 47.163467 0.341176 0.87451 0.341176
v 43.862171 183.982605 -50.547325 0.341176 0.87451 0.341176
v 44.1171 134.701096 -25.003401 0.341176 0.87451 0.341176
v 43.862171 183.982605 47.163467 0.341176 0.87451 0.341176
v 43.862171 183.982605 47.163467 0.341176 0.87451 0.341176
v 44.1171 134.701096 24.999178 0.341176 0.87451 0.341176
v 44.1171 95.034088 24.999178 0.341176 0.87451 0.341176
v 43.862171 183.982605 47.163467 0.341176 0.87451 0.341176
v 44.1171 95.034088 24.999178 0.341176 0.87451 0.341176
v 43.985992 183.982605 61.293839 0.341176 0.87451 0.341176
v 43.985992 183.982605 61.293839 0.341176 0.87451 0.341176
v 44.1171 95.034088 24.999178 0.341176 0.87451 0.341176
v 43.985992 -71.427521 61.286556 0.341176 0.87451 0.341176
v 43.862171 183.982605 -50.547325 0.341176 0.87451 0.341176
v 43.985992 183.982605 -61.290779 0.341176 0.87451 0.341176
v 44.1171 134.701096 -25.003401 0.341176 0.87451 0.341176
v 44.1171 134.701096 -25.003401 0.341176 0.87451 0.341176
v 43.985992 183.982605 -61.290779 0.341176 0.87451 0.341176
v 44.1171 95.034088 -25.003401 0.341176 0.87451 0.341176
v 43.985992 183.982605 -61.290779 0.341176 0.87451 0.341176
v 43.985992 -71.427521 -61.290779 0.341176 0.87451 0.341176
v 44.1171 95.034088 -25.003401 0.341176 0.87451 0.341176
v -44.197723 183.982605 47.163467 0.341176 0.87451 0.341176
v -44.314262 183.982605 61.293839 0.341176 0.87451 0.341176
v -44.36525 134.701096 24.999178 0.341176 0.87451 0.341176
v -44.197723 183.982605 -50.547325 0.341176 0.87451 0.341176
v -44.36525 134.701096 24.999178 0.341176 0.87451 0.341176
v -44.36525 134.701096 -25.003401 0.341176 0.87451 0.341176
v -44.36525 134.701096 24.999178 0.341176 0.87451 0.341176
v -44.197723 183.982605 -50.547325 0.341176 0.87451 0.341176
v -44.197723 183.982605 47.163467 0.341176 0.87451 0.341176
v -44.197723 183.982605 -50.547325 0.341176 0.87451 0.341176
v -44.36525 134.701096 -25.003401 0.341176 0.87451 0.341176
v -44.314262 183.982605 -61.290779 0.341176 0.87451 0.341176
v -44.314262 183.982605 -61.290779 0.341176 0.87451 0.341176
v -44.36525 134.701096 -25.003401 0.341176 0.87451 0.341176
v -44.36525 95.034088 -25.003401 0.341176 0.87451 0.341176
v -44.314262 183.982605 61.293839 0.341176 0.87451 0.341176
v -44.36525 95.034088 24.999178 0.341176 0.87451 0.341176
v -44.36525 134.701096 24.999178 0.341176 0.87451 0.341176
v -44.36525 95.034088 24.999178 0.341176 0.87451 0.341176
v -44.314262 183.982605 61.293839 0.341176 0.87451 0.341176
v -44.314262 -71.427521 61.286556 0.341176 0.87451 0.341176
v -44.314262 183.982605 -61.290779 0.341176 0.87451 0.341176
v -44.36525 95.034088 -25.003401 0.341176 0.87451 0.341176
v -44.314262 -71.427521 -61.290779 0.341176 0.87451 0.341176
v -44.36525 95.034088 24.999178 0.341176 0.87451 0.341176
v -44.314262 -71.427521 61.286556 0.341176 0.87451 0.341176
v -44.314262 -71.427521 -61.290779 0.341176 0.87451 0.341176
v 44.1171 134.701096 24.999178 0.341176 0.87451 0.341176
v 44.1171 134.701096 -25.003401 0.341176 0.87451 0.341176
v -0.000252 134.701096 24.999178 0.341176 0.87451 0.341176
v -0.000252 134.701096 -25.003401 0.341176 0.87451 0.341176
v -0.000252 134.701096 24.999178 0.341176 0.87451 0.341176
v -0.000252 134.701096 -25.003401 0.341176 0.87451 0.341176
v -44.36525 134.701096 24.999178 0.341176 0.87451 0.341176
v -44.36525 134.701096 -25.003401 0.341176 0.87451 0.341176
v -44.36525 95.034088 -25.003401 0.341176 0.87451 0.341176
v -44.36525 95.034088 24.999178 0.341176 0.87451 0.341176
v -44.314262 -71.427521 -61.290779 0.341176 0.87451 0.341176
v 43.985992 -71.427521 -61.290779 0.341176 0.87451 0.341176
v 43.985992 -71.427521 61.286556 0.341176 0.87451 0.341176
v 44.1171 95.034088 -25.003401 0.341176 0.87451 0.341176
v -0.000252 3.17939 -61.283497 0.341176 0.87451 0.341176
v -0.000252 3.17939 61.286556 0.341176 0.87451 0.341176
v 43.985992 -71.427521 -61.290779 0.341176 0.87451 0.341176
v 43.985992 -71.427521 61.286556 0.341176 0.87451 0.341176
v -44.314262 -71.427521 -61.290779 0.341176 0.87451 0.341176
v -44.314262 -71.427521 61.286556 0.341176 0.87451 0.341176
v -0.000252 3.17939 -61.283497 0.341176 0.87451 0.341176
v -0.000252 3.17939 61.286556 0.341176 0.87451 0.341176
v 43.985992 -71.427521 61.286556 0.341176 0.87451 0.341176
v 114.579582 -71.427521 114.537666 0.341176 0.87451 0.341176
v 102.306557 -71.427521 61.293839 0.341176 0.87451 0.341176
v 102.306557 -71.427521 -61.290779 0.341176 0.87451 0.341176
v -102.634827 -71.427521 -61.290779 0.341176 0.87451 0.341176
v -114.536385 -71.427521 -114.461769 0.341176 0.87451 0.341176
v -102.634827 -71.427521 61.293839 0.341176 0.87451 0.341176
v -114.536385 -71.427521 114.537666 0.341176 0.87451 0.341176
v -44.314262 -71.427521 61.286556 0.341176 0.87451 0.341176
v 43.985992 -71.427521 61.286556 0.341176 0.87451 0.341176
v 44.1171 95.034088 24.999178 0.341176 0.87451 0.341176
v 44.1171 95.034088 -25.003401 0.341176 0.87451 0.341176
v 43.985992 -71.427521 61.286556 0.341176 0.87451 0.341176
v 10.124086 123.724571 24.999178 0.341176 0.87451 0.341176
v -114.536385 -71.427521 -114.461769 0.341176 0.87451 0.341176
v -44.314262 -71.427521 -61.290779 0.341176 0.87451 0.341176
v 114.579582 -71.427521 -114.461769 0.341176 0.87451 0.341176
v 43.985992 -71.427521 -61.290779 0.341176 0.87451 0.341176
v 102.306557 -71.427521 -61.290779 0.341176 0.87451 0.341176
v -0.000252 3.17939 61.286556 0.341176 0.87451 0.341176
v -44.314262 -71.427521 61.286556 0.341176 0.87451 0.341176
v 43.985992 -71.427521 61.286556 0.341176 0.87451 0.341176
v 114.579582 -71.427521 114.537666 0.341176 0.87451 0.341176
v 114.579582 -71.427521 -114.461769 0.341176 0.87451 0.341176
v 102.306557 -71.427521 -61.290779 0.341176 0.87451 0.341176
v 114.579582 -71.427521 114.537666 0.341176 0.87451 0.341176
v -102.634827 -71.427521 -61.290779 0.341176 0.87451 0.341176
v -44.314262 -71.427521 -61.290779 0.341176 0.87451 0.341176
v -114.536385 -71.427521 -114.461769 0.341176 0.87451 0.341176
vt 0.299995 0.688206
vt 0.333905 0.604796
vt 0.299995 0.716305
vt 0.333905 0.802206
vt 0.274597 0.716305
vt 0.2408 0.802206
vt 0.274597 0.688206
vt 0.2408 0.604796
vt 0.333905 0.802206
vt 0.299995 0.716305
vt 0.333905 0.604796
vt 0.299995 0.688206
vt 0.2408 0.604796
vt 0.274597 0.688206
vt 0.2408 0.802206
vt 0.274597 0.716305
vt 0.796305 0.815404
vt 0.796305 0.964003
vt 0.713106 0.815404
vt 0.713106 0.964003
vt 0.630006 0.964003
vt 0.630006 0.815404
vt 0.713106 0.964003
vt 0.713106 0.815404
vt 0.552899 0.136893
vt 0.052902 0.0421
vt 0.552899 0.0421
vt 0.052902 0.0421
vt 0.552899 0.136893
vt 0.052902 0.136893
vt 0.552899 0.136893
vt 0.052902 0.0421
vt 0.552899 0.0421
vt 0.052902 0.0421
vt 0.552899 0.136893
vt 0.052902 0.136893
vt 0.552899 0.0421
vt 0.552899 0.136893
vt 0.052902 0.136893
vt 0.052902 0.136893
vt 0.052902 0.0421
vt 0.552899 0.0421
vt 0.6715 0.9642
vt 0.629893 0.815404
vt 0.921196 0.9642
vt 0.962802 0.815404
vt 0.6715 0.9642
vt 0.629893 0.815404
vt 0.921196 0.9642
vt 0.962802 0.815404
vt 0.6715 0.9642
vt 0.629893 0.815404
vt 0.921196 0.9642
vt 0.962802 0.815404
vt 0.6715 0.9642
vt 0.629893 0.815404
vt 0.921196 0.9642
vt 0.962802 0.815404
vt 0.963998 0.673502
vt 0.963998 0.765299
vt 0.630793 0.673502
vt 0.630793 0.765299
vt 0.963998 0.673502
vt 0.963998 0.765299
vt 0.630793 0.673502
vt 0.630793 0.765299
vt 0.963998 0.673502
vt 0.963998 0.765299
vt 0.630793 0.673502
vt 0.630793 0.765299
vt 0.536802 0.198396
vt 0.481603 0.304206
vt 0.056799 0.198396
vt 0.111998 0.304206
vt 0.536802 0.198396
vt 0.481603 0.304206
vt 0.056799 0.198396
vt 0.111998 0.304206
vt 0.536802 0.198396
vt 0.481603 0.304206
vt 0.056799 0.198396
vt 0.111998 0.304206
vt 0.536802 0.198396
vt 0.481603 0.304206
vt 0.056799 0.198396
vt 0.111998 0.304206
vt 0.963998 0.673502
vt 0.963998 0.765299
vt 0.630793 0.673502
vt 0.630793 0.765299
vt 0.963998 0.673502
vt 0.963998 0.765299
vt 0.630793 0.673502
vt 0.630793 0.765299
vt 0.963998 0.673502
vt 0.963998 0.765299
vt 0.630793 0.673502
vt 0.630793 0.765299
vt 0.961198 0.043901
vt 0.961001 0.956602
vt 0.512094 0.043606
vt 0.512094 0.043606
vt 0.961001 0.956602
vt 0.512207 0.956602
vt 0.761593 0.538706
vt 0.707 0.622398
vt 0.707 0.538706
vt 0.707 0.622398
vt 0.761593 0.538706
vt 0.761593 0.622398
vt 0.866996 0.3962
vt 0.722899 0.474995
vt 0.866996 0.474995
vt 0.722899 0.474995
vt 0.866996 0.3962
vt 0.722899 0.3962
vt 0.866996 0.3962
vt 0.722899 0.474995
vt 0.866996 0.474995
vt 0.722899 0.474995
vt 0.866996 0.3962
vt 0.722899 0.3962
vt 0.867404 0.3962
vt 0.723293 0.474995
vt 0.867404 0.474995
vt 0.723293 0.474995
vt 0.867404 0.3962
vt 0.723293 0.3962
vt 0.761593 0.622398
vt 0.870697 0.538706
vt 0.870697 0.622398
vt 0.870697 0.538706
vt 0.761593 0.622398
vt 0.761593 0.538706
vt 0.761593 0.622398
vt 0.870697 0.538706
vt 0.870697 0.622398
vt 0.870697 0.538706
vt 0.761593 0.622398
vt 0.761593 0.538706
vt 0.761593 0.622398
vt 0.870697 0.538706
vt 0.870697 0.622398
vt 0.870697 0.538706
vt 0.761593 0.622398
vt 0.761593 0.538706
vt 0.905901 0.474896
vt 0.949393 0.474896
vt 0.949393 0.575304
vt 0.632595 0.474896
vt 0.674201 0.474896
vt 0.632595 0.575304
vt 0.905901 0.474896
vt 0.947902 0.043901
vt 0.949393 0.474896
vt 0.949393 0.575304
vt 0.905901 0.474896
vt 0.949393 0.474896
vt 0.632595 0.575304
vt 0.632595 0.474896
vt 0.6743 0.474896
vt 0.905901 0.474896
vt 0.947902 0.043901
vt 0.949393 0.474896
vt 0.6743 0.474896
vt 0.631103 0.043901
vt 0.947902 0.043901
vt 0.905901 0.474896
vt 0.6743 0.474896
vt 0.947902 0.043901
vt 0.6743 0.474896
vt 0.632595 0.474896
vt 0.631103 0.043901
vt 0.632595 0.575304
vt 0.632595 0.474896
vt 0.674201 0.474896
vt 0.949393 0.575304
vt 0.905901 0.474896
vt 0.949393 0.474896
vt 0.632595 0.474896
vt 0.631103 0.043901
vt 0.674201 0.474896
vt 0.905901 0.474896
vt 0.631103 0.043901
vt 0.947902 0.043901
vt 0.333905 0.604894
vt 0.360006 0.471196
vt 0.2408 0.604796
vt 0.222607 0.471196
vt 0.184194 0.524594
vt 0.2408 0.802206
vt 0.184194 0.895296
vt 0.2408 0.604796
vt 0.184194 0.524594
vt 0.222607 0.471196
vt 0.360006 0.471196
vt 0.333905 0.604894
vt 0.2408 0.604796
vt 0.184194 0.524594
vt 0.2408 0.802206
vt 0.184194 0.895296
vt 0.222607 0.935904
vt 0.674201 0.474896
vt 0.631103 0.043901
vt 0.905901 0.474896
vt 0.222607 0.471196
vt 0.585599 0.535006
vt 0.438505 0.535006
vt 0.512094 0.374601
vt 0.585599 0.535006
vt 0.438505 0.535006
vt 0.512094 0.374601
vt 0.512094 0.374601
vt 0.585599 0.535006
vt 0.438505 0.535006
vt 0.585599 0.535006
vt 0.438505 0.535006
vt 0.512094 0.374601
vt 0.761593 0.538706
vt 0.707 0.622398
vt 0.707 0.538706
vt 0.707 0.622398
vt 0.761593 0.538706
vt 0.761593 0.622398
vt 0.866996 0.3962
vt 0.722899 0.474995
vt 0.866996 0.474995
vt 0.722899 0.474995
vt 0.866996 0.3962
vt 0.722899 0.3962
vt 0.866996 0.3962
vt 0.722899 0.474995
vt 0.866996 0.474995
vt 0.722899 0.474995
vt 0.866996 0.3962
vt 0.722899 0.3962
vt 0.867404 0.3962
vt 0.723293 0.474995
vt 0.867404 0.474995
vt 0.723293 0.474995
vt 0.867404 0.3962
vt 0.723293 0.3962
vt 0.761593 0.622398
vt 0.870697 0.538706
vt 0.870697 0.622398
vt 0.870697 0.538706
vt 0.761593 0.622398
vt 0.761593 0.538706
vt 0.761593 0.622398
vt 0.870697 0.538706
vt 0.870697 0.622398
vt 0.870697 0.538706
vt 0.761593 0.622398
vt 0.761593 0.538706
vt 0.761593 0.622398
vt 0.870697 0.538706
vt 0.870697 0.622398
vt 0.870697 0.538706
vt 0.761593 0.622398
vt 0.761593 0.538706
vt 0.905901 0.474896
vt 0.949393 0.474896
vt 0.949393 0.575304
vt 0.632595 0.474896
vt 0.674201 0.474896
vt 0.632595 0.575304
vt 0.632595 0.474896
vt 0.631103 0.043901
vt 0.674201 0.474896
vt 0.949393 0.575304
vt 0.905901 0.474896
vt 0.949393 0.474896
vt 0.632595 0.575304
vt 0.632595 0.474896
vt 0.6743 0.474896
vt 0.905901 0.474896
vt 0.947902 0.043901
vt 0.949393 0.474896
vt 0.6743 0.474896
vt 0.631103 0.043901
vt 0.947902 0.043901
vt 0.905901 0.474896
vt 0.6743 0.474896
vt 0.947902 0.043901
vt 0.6743 0.474896
vt 0.632595 0.474896
vt 0.631103 0.043901
vt 0.632595 0.575304
vt 0.632595 0.474896
vt 0.674201 0.474896
vt 0.949393 0.575304
vt 0.905901 0.474896
vt 0.949393 0.474896
vt 0.905901 0.474896
vt 0.947902 0.043901
vt 0.949393 0.474896
vt 0.333905 0.604894
vt 0.360006 0.471196
vt 0.2408 0.604796
vt 0.222607 0.471196
vt 0.184194 0.524594
vt 0.2408 0.802206
vt 0.184194 0.895296
vt 0.2408 0.604796
vt 0.184194 0.524594
vt 0.222607 0.471196
vt 0.360006 0.471196
vt 0.333905 0.604894
vt 0.2408 0.604796
vt 0.184194 0.524594
vt 0.2408 0.802206
vt 0.184194 0.895296
vt 0.222607 0.935904
vt 0.905901 0.474896
vt 0.631103 0.043901
vt 0.947902 0.043901
vt 0.674201 0.474896
vt 0.631103 0.043901
vt 0.905901 0.474896
vt 0.222607 0.471196
vt 0.585599 0.535006
vt 0.438505 0.535006
vt 0.512094 0.374601
vt 0.585599 0.535006
vt 0.438505 0.535006
vt 0.512094 0.374601
vt 0.574807 0.745403
vt 0.541305 0.837593
vt 0.574807 0.964102
vt 0.489806 0.883604
vt 0.363706 0.964102
vt 0.4127 0.903598
vt 0.314994 0.903598
vt 0.489806 0.883604
vt 0.574807 0.964102
vt 0.541305 0.837593
vt 0.574807 0.745403
vt 0.713205 0.964003
vt 0.713205 0.815404
vt 0.630006 0.964003
vt 0.629893 0.815896
vt 0.796305 0.964003
vt 0.796305 0.815404
vt 0.713205 0.964003
vt 0.713205 0.815404
vt 0.879505 0.964003
vt 0.879505 0.815404
vt 0.796305 0.964003
vt 0.796305 0.815404
vt 0.962704 0.964003
vt 0.962704 0.815404
vt 0.879505 0.964003
vt 0.879505 0.815404
vt 0.796305 0.964003
vt 0.796305 0.815404
vt 0.879505 0.964003
vt 0.879505 0.815404
vt 0.512094 0.374601
vt 0.585599 0.535006
vt 0.438505 0.535006
vt 0.585599 0.535006
vt 0.438505 0.535006
vt 0.512094 0.374601
vt 0.729794 0.370704
vt 0.858103 0.370704
vt 0.905901 0.474896
vt 0.674201 0.474896
vt 0.729794 0.370704
vt 0.905901 0.474896
vt 0.905901 0.474896
vt 0.858103 0.370704
vt 0.858103 0.304403
vt 0.905901 0.474896
vt 0.858103 0.304403
vt 0.949393 0.474896
vt 0.949393 0.474896
vt 0.858103 0.304403
vt 0.947902 0.043901
vt 0.674201 0.474896
vt 0.632595 0.474896
vt 0.729794 0.370704
vt 0.729794 0.370704
vt 0.632595 0.474896
vt 0.729794 0.304403
vt 0.632595 0.474896
vt 0.631103 0.043901
vt 0.729794 0.304403
vt 0.674201 0.474896
vt 0.632595 0.474896
vt 0.729597 0.370802
vt 0.905901 0.474896
vt 0.729597 0.370802
vt 0.858005 0.370802
vt 0.729597 0.370802
vt 0.905901 0.474896
vt 0.674201 0.474896
vt 0.905901 0.474896
vt 0.858005 0.370802
vt 0.949393 0.474896
vt 0.949393 0.474896
vt 0.858005 0.370802
vt 0.858005 0.3046
vt 0.632595 0.474896
vt 0.729597 0.3046
vt 0.729597 0.370802
vt 0.729597 0.3046
vt 0.632595 0.474896
vt 0.631103 0.043901
vt 0.949393 0.474896
vt 0.858005 0.3046
vt 0.947902 0.043901
vt 0.729597 0.3046
vt 0.631103 0.043901
vt 0.947902 0.043901
vt 0.347595 0.198396
vt 0.347595 0.378203
vt 0.237099 0.198396
vt 0.237099 0.378203
vt 0.347595 0.198396
vt 0.347595 0.378203
vt 0.237099 0.198396
vt 0.237099 0.378203
vt 0.858005 0.3046
vt 0.729597 0.3046
vt 0.947902 0.043901
vt 0.631103 0.043901
vt 0.947902 0.043901
vt 0.729794 0.304403
vt 0.166198 0.198396
vt 0.423098 0.198396
vt 0.166198 0.363598
vt 0.423098 0.3635
vt 0.166198 0.198396
vt 0.423098 0.198396
vt 0.166198 0.3635
vt 0.422999 0.3635
vt 0.204202 0.380201
vt 0.056799 0.198396
vt 0.111998 0.378203
vt 0.111998 0.727294
vt 0.111998 0.727294
vt 0.056504 0.9427
vt 0.111998 0.378203
vt 0.056799 0.198396
vt 0.204202 0.380201
vt 0.389202 0.380201
vt 0.858103 0.304403
vt 0.729794 0.304403
vt 0.947902 0.043901
vt 0.4127 0.903598
vt 0.536605 0.198396
vt 0.389202 0.380201
vt 0.056799 0.198396
vt 0.204202 0.380201
vt 0.111998 0.378203
vt 0.483798 0.771602
vt 0.3865 0.595397
vt 0.586499 0.595397
vt 0.536605 0.198396
vt 0.056504 0.9427
vt 0.111998 0.727294
vt 0.056799 0.198396
vt 0.111998 0.378203
vt 0.204202 0.380201
vt 0.056799 0.198396
g top_bonus_3_part0
usemtl top_bonus_3_mat0
f 1/1 2/2 3/3
f 3/3 2/2 4/4
f 3/3 4/4 5/5
f 5/5 4/4 6/6
f 5/5 6/6 7/7
f 7/7 6/6 8/8
f 7/7 8/8 1/1
f 1/1 8/8 2/2
f 9/9 10/10 11/11
f 11/11 10/10 12/12
f 11/11 12/12 13/13
f 13/13 12/12 14/14
f 13/13 14/14 15/15
f 15/15 14/14 16/16
f 15/15 16/16 9/9
f 9/9 16/16 10/10
f 17/17 18/18 19/19
f 19/19 18/18 20/20
f 21/21 22/22 23/23
f 23/23 22/22 24/24
f 25/25 26/26 27/27
f 28/28 29/29 30/30
f 31/31 32/32 33/33
f 34/34 35/35 36/36
f 37/37 38/38 39/39
f 40/40 41/41 42/42
f 43/43 44/44 45/45
f 45/45 44/44 46/46
f 47/47 48/48 49/49
f 49/49 48/48 50/50
f 51/51 52/52 53/53
f 53/53 52/52 54/54
f 55/55 56/56 57/57
f 57/57 56/56 58/58
f 59/59 60/60 61/61
f 61/61 60/60 62/62
f 63/63 64/64 65/65
f 65/65 64/64 66/66
f 67/67 68/68 69/69
f 69/69 68/68 70/70
f 71/71 72/72 73/73
f 73/73 72/72 74/74
f 75/75 76/76 77/77
f 77/77 76/76 78/78
f 79/79 80/80 81/81
f 81/81 80/80 82/82
f 83/83 84/84 85/85
f 85/85 84/84 86/86
f 87/87 88/88 89/89
f 89/89 88/88 90/90
f 91/91 92/92 93/93
f 93/93 92/92 94/94
f 95/95 96/96 97/97
f 97/97 96/96 98/98
f 105/105 106/106 107/107
f 108/108 109/109 110/110
f 111/111 112/112 113/113
f 114/114 115/115 116/116
f 117/117 118/118 119/119
f 120/120 121/121 122/122
f 123/123 124/124 125/125
f 126/126 127/127 128/128
f 129/129 130/130 131/131
f 132/132 133/133 134/134
f 135/135 136/136 137/137
f 138/138 139/139 140/140
f 141/141 142/142 143/143
f 144/144 145/145 146/146
f 147/147 148/148 149/149
f 150/150 151/151 152/152
f 153/153 154/154 155/155
f 156/156 157/157 158/158
f 159/159 160/160 161/161
f 162/162 163/163 164/164
f 165/165 166/166 167/167
f 168/168 169/169 170/170
f 171/171 172/172 173/173
f 174/174 175/175 176/176
f 177/177 178/178 179/179
f 180/180 181/181 182/182
f 183/183 184/184 185/185
f 186/186 187/187 188/188
f 188/188 187/187 189/189
f 188/188 189/189 190/190
f 191/191 192/192 193/193
f 193/193 192/192 194/194
f 193/193 194/194 195/195
f 195/195 196/196 193/193
f 193/193 196/196 197/197
f 198/198 199/199 200/200
f 200/200 199/199 201/201
f 200/200 201/201 202/202
f 203/203 204/204 205/205
f 198/198 206/206 199/199
f 207/207 208/208 209/209
f 210/210 211/211 212/212
f 213/213 214/214 215/215
f 216/216 217/217 218/218
f 219/219 220/220 221/221
f 222/222 223/223 224/224
f 225/225 226/226 227/227
f 228/228 229/229 230/230
f 231/231 232/232 233/233
f 234/234 235/235 236/236
f 237/237 238/238 239/239
f 240/240 241/241 242/242
f 243/243 244/244 245/245
f 246/246 247/247 248/248
f 249/249 250/250 251/251
f 252/252 253/253 254/254
f 255/255 256/256 257/257
f 258/258 259/259 260/260
f 261/261 262/262 263/263
f 264/264 265/265 266/266
f 267/267 268/268 269/269
f 270/270 271/271 272/272
f 273/273 274/274 275/275
f 276/276 277/277 278/278
f 279/279 280/280 281/281
f 282/282 283/283 284/284
f 285/285 286/286 287/287
f 288/288 289/289 290/290
f 291/291 292/292 293/293
f 294/294 295/295 296/296
f 297/297 298/298 299/299
f 299/299 298/298 300/300
f 299/299 300/300 301/301
f 302/302 303/303 304/304
f 304/304 303/303 305/305
f 304/304 305/305 306/306
f 306/306 307/307 304/304
f 304/304 307/307 308/308
f 309/309 310/310 311/311
f 311/311 310/310 312/312
f 311/311 312/312 313/313
f 314/314 315/315 316/316
f 317/317 318/318 319/319
f 309/309 320/320 310/310
f 321/321 322/322 323/323
f 324/324 325/325 326/326
f 327/327 328/328 329/329
f 329/329 328/328 330/330
f 329/329 330/330 331/331
f 331/331 330/330 332/332
f 331/331 332/332 333/333
f 331/331 334/334 335/335
f 335/335 334/334 336/336
f 335/335 336/336 337/337
f 338/338 339/339 340/340
f 340/340 339/339 341/341
f 342/342 343/343 344/344
f 344/344 343/343 345/345
f 346/346 347/347 348/348
f 348/348 347/347 349/349
f 350/350 351/351 352/352
f 352/352 351/351 353/353
f 354/354 355/355 356/356
f 356/356 355/355 357/357
f 358/358 359/359 360/360
f 361/361 362/362 363/363
f 364/364 365/365 366/366
f 367/367 368/368 369/369
f 370/370 371/371 372/372
f 373/373 374/374 375/375
f 376/376 377/377 378/378
f 379/379 380/380 381/381
f 382/382 383/383 384/384
f 385/385 386/386 387/387
f 388/388 389/389 390/390
f 391/391 392/392 393/393
f 394/394 395/395 396/396
f 397/397 398/398 399/399
f 400/400 401/401 402/402
f 403/403 404/404 405/405
f 406/406 407/407 408/408
f 409/409 410/410 411/411
f 412/412 413/413 414/414
f 415/415 416/416 417/417
f 417/417 416/416 418/418
f 419/419 420/420 421/421
f 421/421 420/420 422/422
f 423/423 424/424 425/425
f 426/426 427/427 428/428
f 429/429 430/430 431/431
f 431/431 430/430 432/432
f 433/433 434/434 435/435
f 435/435 434/434 436/436
f 437/437 438/438 439/439
f 439/439 438/438 440/440
f 441/441 442/442 443/443
f 443/443 442/442 444/444
f 443/443 444/444 445/445
f 445/445 444/444 446/446
f 447/447 448/448 449/449
f 450/450 334/334 331/331
f 451/451 452/452 453/453
f 453/453 452/452 454/454
f 453/453 454/454 455/455
f 456/456 457/457 458/458
f 446/446 444/444 459/459
f 460/460 461/461 462/462
f 463/463 464/464 465/465
g top_bonus_3_part1
usemtl top_bonus_3_mat1
f 99/99 100/100 101/101
f 102/102 103/103 104/104
