# top_1 (M3G user id 30) extracted by M3gToObj
#@default_color FFE1C758
mtllib top_1.mtl
o top_1
v 128.001556 -128.001373 127.999809 0.882353 0.780392 0.345098
v 128.001556 -67.964645 127.999809 0.882353 0.780392 0.345098
v -128.002136 -128.001373 127.999809 0.882353 0.780392 0.345098
v -128.002136 -67.964645 127.999809 0.882353 0.780392 0.345098
v 128.001556 -128.001373 -127.999306 0.882353 0.780392 0.345098
v 128.001556 -128.001373 127.999809 0.882353 0.780392 0.345098
v -128.002136 -128.001373 -127.999306 0.882353 0.780392 0.345098
v -128.002136 -128.001373 127.999809 0.882353 0.780392 0.345098
v 128.001556 -67.964645 -127.999306 0.882353 0.780392 0.345098
v 128.001556 -67.964645 127.999809 0.882353 0.780392 0.345098
v 128.001556 -128.001373 -127.999306 0.882353 0.780392 0.345098
v 128.001556 -128.001373 127.999809 0.882353 0.780392 0.345098
v -128.002136 -128.001373 -127.999306 0.882353 0.780392 0.345098
v -128.002136 -128.001373 127.999809 0.882353 0.780392 0.345098
v -128.002136 -67.964645 -127.999306 0.882353 0.780392 0.345098
v -128.002136 -67.964645 127.999809 0.882353 0.780392 0.345098
v 83.949883 66.426178 -23.319876 0.882353 0.780392 0.345098
v 83.949883 66.426178 -83.952209 0.882353 0.780392 0.345098
v 69.435509 66.426178 -68.329102 0.882353 0.780392 0.345098
v 23.32213 66.426178 -83.952209 0.882353 0.780392 0.345098
v -23.318127 66.426178 83.952713 0.882353 0.780392 0.345098
v -24.220694 66.220016 121.113724 0.882353 0.780392 0.345098
v 23.32213 66.426178 83.952713 0.882353 0.780392 0.345098
v 24.220116 66.220016 121.113724 0.882353 0.780392 0.345098
v -150.071503 -25.841805 -150.068665 0.882353 0.780392 0.345098
v -121.111473 -25.841805 -121.11322 0.882353 0.780392 0.345098
v -0.00258 -25.841805 -150.068665 0.882353 0.780392 0.345098
v -24.220694 -25.841805 -121.11322 0.882353 0.780392 0.345098
v 24.220116 -25.841805 -121.11322 0.882353 0.780392 0.345098
v 150.070923 -25.841805 -150.068665 0.882353 0.780392 0.345098
v 121.110893 -25.841805 -121.11322 0.882353 0.780392 0.345098
v 121.110893 -25.841805 121.113724 0.882353 0.780392 0.345098
v 150.070923 -25.841805 150.069183 0.882353 0.780392 0.345098
v 121.110893 -25.841805 24.222946 0.882353 0.780392 0.345098
v 150.070923 -25.841805 0.000252 0.882353 0.780392 0.345098
v 121.110893 -25.841805 -24.222443 0.882353 0.780392 0.345098
v 121.110893 -25.841805 -121.11322 0.882353 0.780392 0.345098
v -121.111473 -25.841805 -121.11322 0.882353 0.780392 0.345098
v -150.071503 -25.841805 -150.068665 0.882353 0.780392 0.345098
v -121.111473 -25.841805 -24.222443 0.882353 0.780392 0.345098
v -150.071503 -25.841805 0.000252 0.882353 0.780392 0.345098
v -121.111473 -25.841805 24.222946 0.882353 0.780392 0.345098
v -121.111473 -25.841805 121.113724 0.882353 0.780392 0.345098
v -121.111473 -25.841805 121.113724 0.882353 0.780392 0.345098
v -150.071503 -25.841805 150.069183 0.882353 0.780392 0.345098
v -24.220694 -25.841805 121.113724 0.882353 0.780392 0.345098
v -0.00258 -25.841805 150.069183 0.882353 0.780392 0.345098
v 24.220116 -25.841805 121.113724 0.882353 0.780392 0.345098
v 121.110893 -25.841805 121.113724 0.882353 0.780392 0.345098
v 83.949883 66.426178 23.320379 0.882353 0.780392 0.345098
v 69.435509 66.426178 68.416649 0.882353 0.780392 0.345098
v 83.949883 66.426178 83.952713 0.882353 0.780392 0.345098
v -69.436089 66.426178 68.416649 0.882353 0.780392 0.345098
v -23.318127 66.426178 83.952713 0.882353 0.780392 0.345098
v 69.435509 66.426178 68.416649 0.882353 0.780392 0.345098
v 23.32213 66.426178 83.952713 0.882353 0.780392 0.345098
v 83.949883 66.426178 83.952713 0.882353 0.780392 0.345098
v -83.950462 66.426178 83.952713 0.882353 0.780392 0.345098
v -23.318127 66.426178 -83.952209 0.882353 0.780392 0.345098
v -83.950462 66.426178 -83.952209 0.882353 0.780392 0.345098
v -69.436089 66.426178 -68.329102 0.882353 0.780392 0.345098
v -83.950462 66.426178 -23.319876 0.882353 0.780392 0.345098
v -69.436089 66.426178 68.416649 0.882353 0.780392 0.345098
v -83.950462 66.426178 23.320379 0.882353 0.780392 0.345098
v -83.950462 66.426178 83.952713 0.882353 0.780392 0.345098
v 69.435509 66.426178 -68.329102 0.882353 0.780392 0.345098
v 0.002002 164.952576 -0.073053 0.882353 0.780392 0.345098
v 69.435509 66.426178 68.416649 0.882353 0.780392 0.345098
v 69.435509 66.426178 68.416649 0.882353 0.780392 0.345098
v 83.949883 66.426178 23.320379 0.882353 0.780392 0.345098
v 69.435509 66.426178 -68.329102 0.882353 0.780392 0.345098
v 83.949883 66.426178 -23.319876 0.882353 0.780392 0.345098
v 69.435509 66.426178 68.416649 0.882353 0.780392 0.345098
v 0.002002 164.952576 -0.073053 0.882353 0.780392 0.345098
v -69.436089 66.426178 68.416649 0.882353 0.780392 0.345098
v 121.110893 -25.841805 -121.11322 0.882353 0.780392 0.345098
v 83.949883 66.426178 -83.952209 0.882353 0.780392 0.345098
v 121.110893 -25.841805 -24.222443 0.882353 0.780392 0.345098
v 83.949883 66.426178 -23.319876 0.882353 0.780392 0.345098
v 121.110893 -25.841805 24.222946 0.882353 0.780392 0.345098
v 83.949883 66.426178 23.320379 0.882353 0.780392 0.345098
v 121.110893 -25.841805 121.113724 0.882353 0.780392 0.345098
v 83.949883 66.426178 83.952713 0.882353 0.780392 0.345098
v 121.110893 -25.841805 121.113724 0.882353 0.780392 0.345098
v 83.949883 66.426178 83.952713 0.882353 0.780392 0.345098
v 24.220116 -25.841805 121.113724 0.882353 0.780392 0.345098
v 23.32213 66.426178 83.952713 0.882353 0.780392 0.345098
v -24.220694 -25.841805 121.113724 0.882353 0.780392 0.345098
v -23.318127 66.426178 83.952713 0.882353 0.780392 0.345098
v -121.111473 -25.841805 121.113724 0.882353 0.780392 0.345098
v -83.950462 66.426178 83.952713 0.882353 0.780392 0.345098
v -121.111473 -25.841805 121.113724 0.882353 0.780392 0.345098
v -83.950462 66.426178 83.952713 0.882353 0.780392 0.345098
v -121.111473 -25.841805 24.222946 0.882353 0.780392 0.345098
v -83.950462 66.426178 23.320379 0.882353 0.780392 0.345098
v -121.111473 -25.841805 -24.222443 0.882353 0.780392 0.345098
v -83.950462 66.426178 -23.319876 0.882353 0.780392 0.345098
v -121.111473 -25.841805 -121.11322 0.882353 0.780392 0.345098
v -83.950462 66.426178 -83.952209 0.882353 0.780392 0.345098
v 121.110893 -25.841805 -24.222443 0.882353 0.780392 0.345098
v 121.08799 66.220016 -24.222443 0.882353 0.780392 0.345098
v 121.110893 -25.841805 24.222946 0.882353 0.780392 0.345098
v 121.08799 66.220016 24.222946 0.882353 0.780392 0.345098
v -121.111473 -25.841805 24.222946 0.882353 0.780392 0.345098
v -121.111473 66.220016 24.222946 0.882353 0.780392 0.345098
v -121.111473 -25.841805 -24.222443 0.882353 0.780392 0.345098
v -121.111473 66.220016 -24.222443 0.882353 0.780392 0.345098
v 24.220116 -25.841805 121.113724 0.882353 0.780392 0.345098
v 24.220116 66.220016 121.113724 0.882353 0.780392 0.345098
v -24.220694 -25.841805 121.113724 0.882353 0.780392 0.345098
v -24.220694 66.220016 121.113724 0.882353 0.780392 0.345098
v 83.949883 66.426178 23.320379 0.882353 0.780392 0.345098
v 121.08799 66.220016 24.222946 0.882353 0.780392 0.345098
v 83.949883 66.426178 -23.319876 0.882353 0.780392 0.345098
v 121.08799 66.220016 -24.222443 0.882353 0.780392 0.345098
v -69.436089 66.426178 68.416649 0.882353 0.780392 0.345098
v 0.002002 164.952576 -0.073053 0.882353 0.780392 0.345098
v -69.436089 66.426178 -68.329102 0.882353 0.780392 0.345098
v 83.949883 66.426178 23.320379 0.882353 0.780392 0.345098
v 121.110893 -25.841805 24.222946 0.882353 0.780392 0.345098
v 121.08799 66.220016 24.222946 0.882353 0.780392 0.345098
v -83.950462 66.426178 -23.319876 0.882353 0.780392 0.345098
v -121.111473 66.220016 -24.222443 0.882353 0.780392 0.345098
v -83.950462 66.426178 23.320379 0.882353 0.780392 0.345098
v -121.111473 66.220016 24.222946 0.882353 0.780392 0.345098
v 24.220116 66.220016 121.113724 0.882353 0.780392 0.345098
v 24.220116 -25.841805 121.113724 0.882353 0.780392 0.345098
v 23.32213 66.426178 83.952713 0.882353 0.780392 0.345098
v 23.32213 66.426178 -83.952209 0.882353 0.780392 0.345098
v 24.220116 66.220016 -121.11322 0.882353 0.780392 0.345098
v -23.318127 66.426178 -83.952209 0.882353 0.780392 0.345098
v -24.220694 66.220016 -121.11322 0.882353 0.780392 0.345098
v -23.318127 66.426178 83.952713 0.882353 0.780392 0.345098
v -24.220694 -25.841805 121.113724 0.882353 0.780392 0.345098
v -24.220694 66.220016 121.113724 0.882353 0.780392 0.345098
v -121.111473 66.220016 24.222946 0.882353 0.780392 0.345098
v -121.111473 -25.841805 24.222946 0.882353 0.780392 0.345098
v -83.950462 66.426178 23.320379 0.882353 0.780392 0.345098
v -24.220694 66.220016 -121.11322 0.882353 0.780392 0.345098
v -24.220694 -25.841805 -121.11322 0.882353 0.780392 0.345098
v -23.318127 66.426178 -83.952209 0.882353 0.780392 0.345098
v 23.32213 66.426178 -83.952209 0.882353 0.780392 0.345098
v 24.220116 -25.841805 -121.11322 0.882353 0.780392 0.345098
v 24.220116 66.220016 -121.11322 0.882353 0.780392 0.345098
v 150.070923 -25.841805 -150.068665 0.882353 0.780392 0.345098
v 150.070923 -25.841805 150.069183 0.882353 0.780392 0.345098
v -150.071503 -25.841805 150.069183 0.882353 0.780392 0.345098
v 150.070923 -67.964645 -150.064087 0.882353 0.780392 0.345098
v 150.070923 -25.841805 -150.068665 0.882353 0.780392 0.345098
v 150.070923 -25.841805 0.000252 0.882353 0.780392 0.345098
v 150.070923 -25.841805 0.000252 0.882353 0.780392 0.345098
v 150.1763 -67.964645 150.069183 0.882353 0.780392 0.345098
v 150.070923 -67.964645 -150.064087 0.882353 0.780392 0.345098
v 150.1763 -67.964645 150.069183 0.882353 0.780392 0.345098
v 150.070923 -25.841805 0.000252 0.882353 0.780392 0.345098
v 150.070923 -25.841805 150.069183 0.882353 0.780392 0.345098
v 150.1763 -67.964645 150.069183 0.882353 0.780392 0.345098
v 150.070923 -25.841805 150.069183 0.882353 0.780392 0.345098
v -0.00258 -25.841805 150.069183 0.882353 0.780392 0.345098
v -0.00258 -25.841805 150.069183 0.882353 0.780392 0.345098
v -150.071503 -67.964645 149.99588 0.882353 0.780392 0.345098
v 150.1763 -67.964645 150.069183 0.882353 0.780392 0.345098
v -150.071503 -67.964645 149.99588 0.882353 0.780392 0.345098
v -0.00258 -25.841805 150.069183 0.882353 0.780392 0.345098
v -150.071503 -25.841805 150.069183 0.882353 0.780392 0.345098
v 128.001556 -67.964645 127.999809 0.882353 0.780392 0.345098
v 150.1763 -67.964645 150.069183 0.882353 0.780392 0.345098
v -128.002136 -67.964645 127.999809 0.882353 0.780392 0.345098
v -150.071503 -67.964645 149.99588 0.882353 0.780392 0.345098
v 128.001556 -67.964645 -127.999306 0.882353 0.780392 0.345098
v 150.070923 -67.964645 -150.064087 0.882353 0.780392 0.345098
v 128.001556 -67.964645 127.999809 0.882353 0.780392 0.345098
v 150.1763 -67.964645 150.069183 0.882353 0.780392 0.345098
v -128.002136 -67.964645 -127.999306 0.882353 0.780392 0.345098
v -150.021103 -67.964645 -150.068665 0.882353 0.780392 0.345098
v 128.001556 -67.964645 -127.999306 0.882353 0.780392 0.345098
v 150.070923 -67.964645 -150.064087 0.882353 0.780392 0.345098
v -128.002136 -67.964645 127.999809 0.882353 0.780392 0.345098
v -150.071503 -67.964645 149.99588 0.882353 0.780392 0.345098
v -128.002136 -67.964645 -127.999306 0.882353 0.780392 0.345098
v -150.021103 -67.964645 -150.068665 0.882353 0.780392 0.345098
v -150.071503 -67.964645 149.99588 0.882353 0.780392 0.345098
v -150.071503 -25.841805 150.069183 0.882353 0.780392 0.345098
v -150.071503 -25.841805 0.000252 0.882353 0.780392 0.345098
v -150.071503 -25.841805 0.000252 0.882353 0.780392 0.345098
v -150.021103 -67.964645 -150.068665 0.882353 0.780392 0.345098
v -150.071503 -67.964645 149.99588 0.882353 0.780392 0.345098
v -150.021103 -67.964645 -150.068665 0.882353 0.780392 0.345098
v -150.071503 -25.841805 0.000252 0.882353 0.780392 0.345098
v -150.071503 -25.841805 -150.068665 0.882353 0.780392 0.345098
vt 0.640994 0.050202
vt 0.640994 0.200903
vt 0.057705 0.050202
vt 0.057705 0.200903
vt 0.961993 0.042604
vt 0.961993 0.954799
vt 0.507606 0.0413
vt 0.507606 0.955093
vt 0.057705 0.200903
vt 0.640994 0.200903
vt 0.057705 0.050202
vt 0.640994 0.050202
vt 0.057705 0.050202
vt 0.640994 0.050202
vt 0.057705 0.200903
vt 0.640994 0.200903
vt 0.2432 0.945995
vt 0.058195 0.945995
vt 0.150705 0.830299
vt 0.2432 0.945995
vt 0.053107 0.774295
vt 0.053107 0.673304
vt 0.357003 0.774295
vt 0.357003 0.673304
vt 0.522606 0.945897
vt 0.483802 0.830397
vt 0.290793 0.945897
vt 0.348803 0.832304
vt 0.232896 0.832304
vt 0.058994 0.945897
vt 0.111004 0.833201
vt 0.111004 0.833201
vt 0.058994 0.945897
vt 0.232896 0.832304
vt 0.290793 0.945897
vt 0.348803 0.832304
vt 0.483802 0.830397
vt 0.111004 0.833201
vt 0.058994 0.945897
vt 0.232896 0.832304
vt 0.290793 0.945897
vt 0.348803 0.832304
vt 0.483802 0.830397
vt 0.111004 0.833201
vt 0.058994 0.945897
vt 0.232896 0.832304
vt 0.290793 0.945897
vt 0.348803 0.832304
vt 0.483802 0.830397
vt 0.335597 0.945995
vt 0.428106 0.830299
vt 0.520503 0.945995
vt 0.428106 0.830299
vt 0.335597 0.945995
vt 0.150705 0.830299
vt 0.2432 0.945995
vt 0.058195 0.945995
vt 0.520503 0.945995
vt 0.335597 0.945995
vt 0.520503 0.945995
vt 0.428106 0.830299
vt 0.335597 0.945995
vt 0.150705 0.830299
vt 0.2432 0.945995
vt 0.058195 0.945995
vt 0.886699 0.668496
vt 0.658699 0.9375
vt 0.4307 0.668496
vt 0.428106 0.830299
vt 0.335597 0.945995
vt 0.150705 0.830299
vt 0.2432 0.945995
vt 0.886699 0.668496
vt 0.658699 0.9375
vt 0.4307 0.668496
vt 0.648101 0.2738
vt 0.733699 0.595907
vt 0.938106 0.2738
vt 0.938106 0.595907
vt 0.938106 0.2738
vt 0.938106 0.595907
vt 0.648101 0.2738
vt 0.7344 0.595907
vt 0.648101 0.2738
vt 0.7344 0.595907
vt 0.938106 0.2738
vt 0.938106 0.595907
vt 0.938106 0.2738
vt 0.938106 0.595907
vt 0.648101 0.2738
vt 0.7344 0.595907
vt 0.648101 0.2738
vt 0.7344 0.595907
vt 0.938106 0.2738
vt 0.938106 0.595907
vt 0.938106 0.2738
vt 0.938106 0.595907
vt 0.648101 0.2738
vt 0.733699 0.595907
vt 0.943307 0.204295
vt 0.704597 0.204295
vt 0.943307 0.051197
vt 0.704597 0.051197
vt 0.943307 0.204295
vt 0.704597 0.204295
vt 0.943307 0.051197
vt 0.704597 0.051197
vt 0.943307 0.204295
vt 0.704597 0.204295
vt 0.943307 0.051197
vt 0.704597 0.051197
vt 0.053107 0.774295
vt 0.357003 0.774295
vt 0.053107 0.673304
vt 0.357003 0.673304
vt 0.886699 0.668496
vt 0.658699 0.9375
vt 0.4307 0.668496
vt 0.7644 0.96
vt 0.936493 0.755804
vt 0.936493 0.96
vt 0.053107 0.774295
vt 0.357003 0.774295
vt 0.053107 0.673304
vt 0.357003 0.673304
vt 0.936493 0.96
vt 0.936493 0.755804
vt 0.7644 0.96
vt 0.053107 0.774295
vt 0.357003 0.774295
vt 0.053107 0.673304
vt 0.357003 0.673304
vt 0.7644 0.96
vt 0.936493 0.755804
vt 0.936493 0.96
vt 0.936493 0.96
vt 0.936493 0.755804
vt 0.7644 0.96
vt 0.936493 0.96
vt 0.936493 0.755804
vt 0.7644 0.96
vt 0.7644 0.96
vt 0.936493 0.755804
vt 0.936493 0.96
vt 0.522606 0.945897
vt 0.522606 0.945897
vt 0.522606 0.945897
vt 0.630802 0.597898
vt 0.630802 0.468505
vt 0.3452 0.468505
vt 0.3452 0.468505
vt 0.053793 0.597898
vt 0.630802 0.597898
vt 0.053793 0.597898
vt 0.3452 0.468505
vt 0.053793 0.468505
vt 0.630802 0.597898
vt 0.630802 0.468505
vt 0.345606 0.468505
vt 0.345606 0.468505
vt 0.053793 0.597898
vt 0.630802 0.597898
vt 0.053793 0.597898
vt 0.345606 0.468505
vt 0.053793 0.468505
vt 0.551499 0.273099
vt 0.599695 0.392594
vt 0.114606 0.273099
vt 0.053597 0.394697
vt 0.551499 0.273099
vt 0.114606 0.273099
vt 0.599695 0.392594
vt 0.053597 0.394697
vt 0.551499 0.273099
vt 0.599695 0.392594
vt 0.114606 0.273099
vt 0.053597 0.394697
vt 0.551499 0.273099
vt 0.599695 0.392594
vt 0.114606 0.273099
vt 0.053597 0.394697
vt 0.630802 0.597898
vt 0.630802 0.468505
vt 0.3452 0.468505
vt 0.3452 0.468505
vt 0.053793 0.597898
vt 0.630802 0.597898
vt 0.053793 0.597898
vt 0.3452 0.468505
vt 0.053793 0.468505
g top_1_part0
usemtl top_1_mat0
f 1/1 2/2 3/3
f 3/3 2/2 4/4
f 9/9 10/10 11/11
f 11/11 10/10 12/12
f 13/13 14/14 15/15
f 15/15 14/14 16/16
f 17/17 18/18 19/19
f 19/19 18/18 20/20
f 21/21 22/22 23/23
f 23/23 22/22 24/24
f 25/25 26/26 27/27
f 27/27 26/26 28/28
f 27/27 29/29 30/30
f 30/30 29/29 31/31
f 32/32 33/33 34/34
f 34/34 33/33 35/35
f 34/34 35/35 36/36
f 36/36 35/35 37/37
f 38/38 39/39 40/40
f 40/40 39/39 41/41
f 40/40 41/41 42/42
f 42/42 41/41 43/43
f 44/44 45/45 46/46
f 46/46 45/45 47/47
f 46/46 47/47 48/48
f 48/48 47/47 49/49
f 50/50 51/51 52/52
f 53/53 54/54 55/55
f 55/55 54/54 56/56
f 55/55 56/56 57/57
f 58/58 54/54 53/53
f 59/59 60/60 61/61
f 61/61 60/60 62/62
f 61/61 62/62 63/63
f 63/63 62/62 64/64
f 63/63 64/64 65/65
f 66/66 67/67 68/68
f 69/69 70/70 71/71
f 71/71 70/70 72/72
f 73/73 74/74 75/75
f 76/76 77/77 78/78
f 78/78 77/77 79/79
f 80/80 81/81 82/82
f 82/82 81/81 83/83
f 84/84 85/85 86/86
f 86/86 85/85 87/87
f 88/88 89/89 90/90
f 90/90 89/89 91/91
f 92/92 93/93 94/94
f 94/94 93/93 95/95
f 96/96 97/97 98/98
f 98/98 97/97 99/99
f 100/100 101/101 102/102
f 102/102 101/101 103/103
f 104/104 105/105 106/106
f 106/106 105/105 107/107
f 108/108 109/109 110/110
f 110/110 109/109 111/111
f 112/112 113/113 114/114
f 114/114 113/113 115/115
f 116/116 117/117 118/118
f 119/119 120/120 121/121
f 122/122 123/123 124/124
f 124/124 123/123 125/125
f 126/126 127/127 128/128
f 129/129 130/130 131/131
f 131/131 130/130 132/132
f 133/133 134/134 135/135
f 136/136 137/137 138/138
f 139/139 140/140 141/141
f 142/142 143/143 144/144
f 37/37 35/35 145/145
f 49/49 47/47 146/146
f 43/43 41/41 147/147
f 148/148 149/149 150/150
f 151/151 152/152 153/153
f 154/154 155/155 156/156
f 157/157 158/158 159/159
f 160/160 161/161 162/162
f 163/163 164/164 165/165
f 166/166 167/167 168/168
f 168/168 167/167 169/169
f 170/170 171/171 172/172
f 172/172 171/171 173/173
f 174/174 175/175 176/176
f 176/176 175/175 177/177
f 178/178 179/179 180/180
f 180/180 179/179 181/181
f 182/182 183/183 184/184
f 185/185 186/186 187/187
f 188/188 189/189 190/190
g top_1_part1
usemtl top_1_mat1
f 5/5 6/6 7/7
f 7/7 6/6 8/8
