# top_3 (M3G user id 32) extracted by M3gToObj
#@default_color FF57DF57
mtllib top_3.mtl
o top_3
v 127.998734 -128.001877 127.998642 0.341176 0.87451 0.341176
v 127.998734 -73.655716 127.998642 0.341176 0.87451 0.341176
v -127.997955 -128.001877 127.998642 0.341176 0.87451 0.341176
v -127.997955 -73.655716 127.998642 0.341176 0.87451 0.341176
v 127.998734 -128.001877 -127.998047 0.341176 0.87451 0.341176
v 127.998734 -128.001877 127.998642 0.341176 0.87451 0.341176
v -127.997955 -128.001877 -127.998047 0.341176 0.87451 0.341176
v -127.997955 -128.001877 127.998642 0.341176 0.87451 0.341176
v 127.998734 -73.655716 -127.998047 0.341176 0.87451 0.341176
v 127.998734 -73.655716 127.998642 0.341176 0.87451 0.341176
v 127.998734 -128.001877 -127.998047 0.341176 0.87451 0.341176
v 127.998734 -128.001877 127.998642 0.341176 0.87451 0.341176
v -127.997955 -128.001877 -127.998047 0.341176 0.87451 0.341176
v -127.997955 -128.001877 127.998642 0.341176 0.87451 0.341176
v -127.997955 -73.655716 -127.998047 0.341176 0.87451 0.341176
v -127.997955 -73.655716 127.998642 0.341176 0.87451 0.341176
v 172.339432 127.531876 0.000298 0.341176 0.87451 0.341176
v 125.494736 -43.086987 70.164764 0.341176 0.87451 0.341176
v 125.494736 -43.086987 -70.169434 0.341176 0.87451 0.341176
v -172.370224 127.531876 0.000298 0.341176 0.87451 0.341176
v -125.493958 -43.086987 -70.169434 0.341176 0.87451 0.341176
v -125.493958 -43.086987 70.164764 0.341176 0.87451 0.341176
v 0.000385 127.452972 172.370911 0.341176 0.87451 0.341176
v -70.164085 -43.086987 125.494644 0.341176 0.87451 0.341176
v 70.164856 -43.086987 125.494644 0.341176 0.87451 0.341176
v 0.000385 97.1157 0.000298 0.341176 0.87451 0.341176
v 125.494736 -43.086987 70.164764 0.341176 0.87451 0.341176
v 172.339432 127.531876 0.000298 0.341176 0.87451 0.341176
v 0.000385 127.452972 172.370911 0.341176 0.87451 0.341176
v 70.164856 -43.086987 125.494644 0.341176 0.87451 0.341176
v 0.000385 97.1157 0.000298 0.341176 0.87451 0.341176
v 0.000385 97.1157 0.000298 0.341176 0.87451 0.341176
v -70.164085 -43.086987 125.494644 0.341176 0.87451 0.341176
v 0.000385 127.452972 172.370911 0.341176 0.87451 0.341176
v -172.370224 127.531876 0.000298 0.341176 0.87451 0.341176
v -125.493958 -43.086987 70.164764 0.341176 0.87451 0.341176
v 0.000385 97.1157 0.000298 0.341176 0.87451 0.341176
v 0.000385 127.452972 -172.3703 0.341176 0.87451 0.341176
v -70.164085 -43.086987 -125.494049 0.341176 0.87451 0.341176
v 0.000385 97.1157 0.000298 0.341176 0.87451 0.341176
v 150.071762 -43.086987 -150.071075 0.341176 0.87451 0.341176
v 125.494736 -43.086987 -70.169434 0.341176 0.87451 0.341176
v 150.071762 -43.086987 0.000298 0.341176 0.87451 0.341176
v 125.494736 -43.086987 70.164764 0.341176 0.87451 0.341176
v 150.071762 -43.086987 150.071686 0.341176 0.87451 0.341176
v 150.071762 -43.086987 150.071686 0.341176 0.87451 0.341176
v 70.164856 -43.086987 125.494644 0.341176 0.87451 0.341176
v 0.000385 -43.086987 150.071686 0.341176 0.87451 0.341176
v -70.164085 -43.086987 125.494644 0.341176 0.87451 0.341176
v -150.070984 -43.086987 150.071686 0.341176 0.87451 0.341176
v -150.070984 -43.086987 150.071686 0.341176 0.87451 0.341176
v -125.493958 -43.086987 70.164764 0.341176 0.87451 0.341176
v -150.070984 -43.086987 0.000298 0.341176 0.87451 0.341176
v -125.493958 -43.086987 -70.169434 0.341176 0.87451 0.341176
v -150.070984 -43.086987 -150.071075 0.341176 0.87451 0.341176
v -150.070984 -43.086987 -150.071075 0.341176 0.87451 0.341176
v -70.164085 -43.086987 -125.494049 0.341176 0.87451 0.341176
v 0.000385 -43.086987 -150.071075 0.341176 0.87451 0.341176
v 70.164856 -43.086987 -125.494049 0.341176 0.87451 0.341176
v 150.071762 -43.086987 -150.071075 0.341176 0.87451 0.341176
v 0.000385 97.1157 0.000298 0.341176 0.87451 0.341176
v 70.164856 -43.086987 -125.494049 0.341176 0.87451 0.341176
v 0.000385 127.452972 -172.3703 0.341176 0.87451 0.341176
v 150.071762 -73.655716 -150.060547 0.341176 0.87451 0.341176
v 150.071762 -43.086987 -150.071075 0.341176 0.87451 0.341176
v 150.071762 -43.086987 0.000298 0.341176 0.87451 0.341176
v 150.071762 -43.086987 0.000298 0.341176 0.87451 0.341176
v 150.176971 -73.655716 150.071686 0.341176 0.87451 0.341176
v 150.071762 -73.655716 -150.060547 0.341176 0.87451 0.341176
v 150.176971 -73.655716 150.071686 0.341176 0.87451 0.341176
v 150.071762 -43.086987 0.000298 0.341176 0.87451 0.341176
v 150.071762 -43.086987 150.071686 0.341176 0.87451 0.341176
v 150.176971 -73.655716 150.071686 0.341176 0.87451 0.341176
v 150.071762 -43.086987 150.071686 0.341176 0.87451 0.341176
v 0.000385 -43.086987 150.071686 0.341176 0.87451 0.341176
v 0.000385 -43.086987 150.071686 0.341176 0.87451 0.341176
v -150.070984 -73.655716 149.992767 0.341176 0.87451 0.341176
v 150.176971 -73.655716 150.071686 0.341176 0.87451 0.341176
v -150.070984 -73.655716 149.992767 0.341176 0.87451 0.341176
v 0.000385 -43.086987 150.071686 0.341176 0.87451 0.341176
v -150.070984 -43.086987 150.071686 0.341176 0.87451 0.341176
v -150.070984 -73.655716 149.992767 0.341176 0.87451 0.341176
v -150.070984 -43.086987 150.071686 0.341176 0.87451 0.341176
v -150.070984 -43.086987 0.000298 0.341176 0.87451 0.341176
v 127.998734 -73.655716 127.998642 0.341176 0.87451 0.341176
v 150.176971 -73.655716 150.071686 0.341176 0.87451 0.341176
v -127.997955 -73.655716 127.998642 0.341176 0.87451 0.341176
v -150.070984 -73.655716 149.992767 0.341176 0.87451 0.341176
v 127.998734 -73.655716 -127.998047 0.341176 0.87451 0.341176
v 150.071762 -73.655716 -150.060547 0.341176 0.87451 0.341176
v 127.998734 -73.655716 127.998642 0.341176 0.87451 0.341176
v 150.176971 -73.655716 150.071686 0.341176 0.87451 0.341176
v -127.997955 -73.655716 -127.998047 0.341176 0.87451 0.341176
v -150.018387 -73.655716 -150.071075 0.341176 0.87451 0.341176
v 127.998734 -73.655716 -127.998047 0.341176 0.87451 0.341176
v 150.071762 -73.655716 -150.060547 0.341176 0.87451 0.341176
v -127.997955 -73.655716 127.998642 0.341176 0.87451 0.341176
v -150.070984 -73.655716 149.992767 0.341176 0.87451 0.341176
v -127.997955 -73.655716 -127.998047 0.341176 0.87451 0.341176
v -150.018387 -73.655716 -150.071075 0.341176 0.87451 0.341176
v -150.070984 -43.086987 0.000298 0.341176 0.87451 0.341176
v -150.018387 -73.655716 -150.071075 0.341176 0.87451 0.341176
v -150.070984 -73.655716 149.992767 0.341176 0.87451 0.341176
v -150.018387 -73.655716 -150.071075 0.341176 0.87451 0.341176
v -150.070984 -43.086987 0.000298 0.341176 0.87451 0.341176
v -150.070984 -43.086987 -150.071075 0.341176 0.87451 0.341176
v 70.164856 -43.086987 -125.494049 0.341176 0.87451 0.341176
v 0.000385 97.1157 0.000298 0.341176 0.87451 0.341176
v 69.833443 -43.086987 -69.832764 0.341176 0.87451 0.341176
v -70.164085 -43.086987 -125.494049 0.341176 0.87451 0.341176
v -69.832672 -43.086987 -69.832764 0.341176 0.87451 0.341176
v 0.000385 97.1157 0.000298 0.341176 0.87451 0.341176
v -69.832672 -43.086987 69.833359 0.341176 0.87451 0.341176
v 0.000385 97.1157 0.000298 0.341176 0.87451 0.341176
v -125.493958 -43.086987 70.164764 0.341176 0.87451 0.341176
v -70.164085 -43.086987 125.494644 0.341176 0.87451 0.341176
v 0.000385 97.1157 0.000298 0.341176 0.87451 0.341176
v -69.832672 -43.086987 69.833359 0.341176 0.87451 0.341176
v -69.832672 -43.086987 69.833359 0.341176 0.87451 0.341176
v -125.493958 -43.086987 70.164764 0.341176 0.87451 0.341176
v -70.164085 -43.086987 125.494644 0.341176 0.87451 0.341176
v 69.833443 -43.086987 69.833359 0.341176 0.87451 0.341176
v 125.494736 -43.086987 70.164764 0.341176 0.87451 0.341176
v 0.000385 97.1157 0.000298 0.341176 0.87451 0.341176
v 69.833443 -43.086987 69.833359 0.341176 0.87451 0.341176
v 125.494736 -43.086987 70.164764 0.341176 0.87451 0.341176
v 0.000385 97.1157 0.000298 0.341176 0.87451 0.341176
v 70.164856 -43.086987 125.494644 0.341176 0.87451 0.341176
v 69.833443 -43.086987 69.833359 0.341176 0.87451 0.341176
v -125.493958 -43.086987 -70.169434 0.341176 0.87451 0.341176
v 70.164856 -43.086987 -125.494049 0.341176 0.87451 0.341176
v 125.494736 -43.086987 -70.169434 0.341176 0.87451 0.341176
vt 0.937201 0.783805
vt 0.937201 0.933998
vt 0.062595 0.783805
vt 0.062595 0.933998
vt 0.513103 0.966
vt 0.513103 0.031
vt 0.957903 0.966
vt 0.957903 0.031
vt 0.937102 0.933998
vt 0.062595 0.933998
vt 0.937102 0.783805
vt 0.062595 0.783805
vt 0.062595 0.783805
vt 0.937201 0.783805
vt 0.062595 0.933998
vt 0.937201 0.933998
vt 0.7822 0.427006
vt 0.644705 0.065598
vt 0.919795 0.065598
vt 0.7823 0.426906
vt 0.644705 0.065598
vt 0.919795 0.065598
vt 0.7823 0.426906
vt 0.644705 0.065598
vt 0.919795 0.065598
vt 0.689405 0.457495
vt 0.293599 0.057195
vt 0.294797 0.458195
vt 0.294797 0.458195
vt 0.293599 0.057195
vt 0.689405 0.457495
vt 0.689405 0.457495
vt 0.293599 0.057195
vt 0.294797 0.458195
vt 0.294797 0.458195
vt 0.293599 0.057195
vt 0.689405 0.457495
vt 0.294797 0.458195
vt 0.293599 0.057195
vt 0.689405 0.457495
vt 0.061597 0.046594
vt 0.117996 0.194205
vt 0.061597 0.322697
vt 0.117996 0.490496
vt 0.061597 0.637593
vt 0.061597 0.046594
vt 0.117996 0.194205
vt 0.061597 0.322697
vt 0.117996 0.490496
vt 0.061597 0.637593
vt 0.061597 0.046594
vt 0.117996 0.194205
vt 0.061597 0.322697
vt 0.117996 0.490496
vt 0.061597 0.637593
vt 0.061597 0.046594
vt 0.117996 0.194205
vt 0.061597 0.322697
vt 0.117996 0.490496
vt 0.061597 0.637593
vt 0.689405 0.457495
vt 0.293599 0.057195
vt 0.294797 0.458195
vt 0.933706 0.647994
vt 0.933706 0.726707
vt 0.626001 0.726707
vt 0.626001 0.726707
vt 0.169601 0.647994
vt 0.933706 0.647994
vt 0.169601 0.647994
vt 0.626001 0.726707
vt 0.169601 0.726707
vt 0.933806 0.647994
vt 0.933806 0.726707
vt 0.626001 0.726707
vt 0.626001 0.726707
vt 0.169601 0.647994
vt 0.933806 0.647994
vt 0.169601 0.647994
vt 0.626001 0.726707
vt 0.169601 0.726707
vt 0.933806 0.647994
vt 0.933806 0.726707
vt 0.626001 0.726707
vt 0.893001 0.515706
vt 0.931594 0.584504
vt 0.297094 0.515706
vt 0.258601 0.584504
vt 0.893001 0.515706
vt 0.931594 0.584504
vt 0.297094 0.515706
vt 0.258601 0.584504
vt 0.893001 0.515706
vt 0.931594 0.584504
vt 0.297094 0.515706
vt 0.258601 0.584504
vt 0.893001 0.515706
vt 0.931594 0.584504
vt 0.297094 0.515706
vt 0.258601 0.584504
vt 0.626001 0.726707
vt 0.169601 0.647994
vt 0.933806 0.647994
vt 0.169601 0.647994
vt 0.626001 0.726707
vt 0.169601 0.726707
vt 0.293599 0.057195
vt 0.689405 0.457495
vt 0.472997 0.057195
vt 0.293599 0.057195
vt 0.472997 0.057195
vt 0.689405 0.457495
vt 0.472997 0.057195
vt 0.689405 0.457495
vt 0.293599 0.057195
vt 0.293599 0.057195
vt 0.689405 0.457495
vt 0.472997 0.057195
vt 0.226499 0.194604
vt 0.2257 0.091993
vt 0.117996 0.194205
vt 0.226499 0.194604
vt 0.2257 0.091993
vt 0.689405 0.457495
vt 0.472997 0.057195
vt 0.293599 0.057195
vt 0.689405 0.457495
vt 0.293599 0.057195
vt 0.472997 0.057195
vt 0.2257 0.091993
vt 0.117996 0.194205
vt 0.2257 0.091993
g top_3_part0
usemtl top_3_mat0
f 1/1 2/2 3/3
f 3/3 2/2 4/4
f 9/9 10/10 11/11
f 11/11 10/10 12/12
f 13/13 14/14 15/15
f 15/15 14/14 16/16
f 17/17 18/18 19/19
f 20/20 21/21 22/22
f 23/23 24/24 25/25
f 26/26 27/27 28/28
f 29/29 30/30 31/31
f 32/32 33/33 34/34
f 35/35 36/36 37/37
f 38/38 39/39 40/40
f 41/41 42/42 43/43
f 43/43 42/42 44/44
f 43/43 44/44 45/45
f 46/46 47/47 48/48
f 48/48 47/47 49/49
f 48/48 49/49 50/50
f 51/51 52/52 53/53
f 53/53 52/52 54/54
f 53/53 54/54 55/55
f 56/56 57/57 58/58
f 58/58 57/57 59/59
f 58/58 59/59 60/60
f 61/61 62/62 63/63
f 64/64 65/65 66/66
f 67/67 68/68 69/69
f 70/70 71/71 72/72
f 73/73 74/74 75/75
f 76/76 77/77 78/78
f 79/79 80/80 81/81
f 82/82 83/83 84/84
f 85/85 86/86 87/87
f 87/87 86/86 88/88
f 89/89 90/90 91/91
f 91/91 90/90 92/92
f 93/93 94/94 95/95
f 95/95 94/94 96/96
f 97/97 98/98 99/99
f 99/99 98/98 100/100
f 101/101 102/102 103/103
f 104/104 105/105 106/106
f 107/107 108/108 109/109
f 110/110 111/111 112/112
f 113/113 114/114 115/115
f 116/116 117/117 118/118
f 119/119 120/120 121/121
f 121/121 120/120 51/51
f 122/122 47/47 123/123
f 123/123 47/47 46/46
f 124/124 125/125 126/126
f 127/127 128/128 129/129
f 130/130 57/57 56/56
f 131/131 132/132 41/41
g top_3_part1
usemtl top_3_mat1
f 5/5 6/6 7/7
f 7/7 6/6 8/8
