# top_2 (M3G user id 31) extracted by M3gToObj
#@default_color FF1A1AB0
mtllib top_2.mtl
o top_2
v 57.913971 85.622284 58.058701 0.101961 0.101961 0.690196
v 112.583046 85.802002 57.564476 0.101961 0.101961 0.690196
v 31.280834 103.319473 31.745058 0.101961 0.101961 0.690196
v 112.583046 103.429298 31.180944 0.101961 0.101961 0.690196
v -0.024961 109.564651 0.039891 0.101961 0.101961 0.690196
v 112.583046 109.619568 0.05986 0.101961 0.101961 0.690196
v 31.131069 103.319473 -31.680252 0.101961 0.101961 0.690196
v 112.583046 103.429298 -31.061224 0.101961 0.101961 0.690196
v 112.583046 109.619568 0.05986 0.101961 0.101961 0.690196
v 112.583046 103.429298 31.180944 0.101961 0.101961 0.690196
v 112.583046 103.429298 -31.061224 0.101961 0.101961 0.690196
v 112.583046 85.802002 57.564476 0.101961 0.101961 0.690196
v 112.583046 85.802002 -57.444756 0.101961 0.101961 0.690196
v 112.583046 59.418472 75.191772 0.101961 0.101961 0.690196
v 112.583046 59.418472 -75.072052 0.101961 0.101961 0.690196
v 112.583046 28.297386 81.382042 0.101961 0.101961 0.690196
v 112.583046 28.297386 -81.262321 0.101961 0.101961 0.690196
v 99.343857 18.797319 125.073364 0.101961 0.101961 0.690196
v 81.931221 27.888031 81.387032 0.101961 0.101961 0.690196
v 91.775749 56.847511 125.073364 0.101961 0.101961 0.690196
v 75.701019 59.133919 75.621094 0.101961 0.101961 0.690196
v 70.224625 89.101814 125.073364 0.101961 0.101961 0.690196
v 57.913971 85.622284 58.058701 0.101961 0.101961 0.690196
v -0.074882 118.221046 125.073364 0.101961 0.101961 0.690196
v -38.120083 110.652946 125.073364 0.101961 0.101961 0.690196
v 37.970318 110.652946 125.073364 0.101961 0.101961 0.690196
v -70.37439 89.101814 125.073364 0.101961 0.101961 0.690196
v 70.224625 89.101814 125.073364 0.101961 0.101961 0.690196
v -91.925514 56.847511 125.073364 0.101961 0.101961 0.690196
v 91.775749 56.847511 125.073364 0.101961 0.101961 0.690196
v -99.493622 18.797319 125.073364 0.101961 0.101961 0.690196
v 99.343857 18.797319 125.073364 0.101961 0.101961 0.690196
v -99.493622 -28.044058 125.073364 0.101961 0.101961 0.690196
v 99.343857 -28.044058 125.073364 0.101961 0.101961 0.690196
v -127.998817 -128.001953 -127.998863 0.101961 0.101961 0.690196
v 127.998817 -128.001953 -127.998863 0.101961 0.101961 0.690196
v -127.998817 -128.001953 127.998772 0.101961 0.101961 0.690196
v 127.998817 -128.001953 127.998772 0.101961 0.101961 0.690196
v 127.998817 -128.001953 127.998772 0.101961 0.101961 0.690196
v 127.998817 -55.426018 127.998772 0.101961 0.101961 0.690196
v -127.998817 -128.001953 127.998772 0.101961 0.101961 0.690196
v -127.998817 -55.426018 127.998772 0.101961 0.101961 0.690196
v 127.998817 -128.001953 -127.998863 0.101961 0.101961 0.690196
v 127.998817 -55.426018 -127.998863 0.101961 0.101961 0.690196
v 127.998817 -128.001953 127.998772 0.101961 0.101961 0.690196
v 127.998817 -55.426018 127.998772 0.101961 0.101961 0.690196
v -127.998817 -128.001953 127.998772 0.101961 0.101961 0.690196
v -127.998817 -55.426018 127.998772 0.101961 0.101961 0.690196
v -127.998817 -128.001953 -127.998863 0.101961 0.101961 0.690196
v -127.998817 -55.426018 -127.998863 0.101961 0.101961 0.690196
v 127.998817 -55.426018 127.998772 0.101961 0.101961 0.690196
v 145.710983 -55.426018 145.710938 0.101961 0.101961 0.690196
v -127.998817 -55.426018 127.998772 0.101961 0.101961 0.690196
v -145.710983 -55.426018 145.710938 0.101961 0.101961 0.690196
v 127.998817 -55.426018 -127.998863 0.101961 0.101961 0.690196
v 145.710983 -55.426018 -145.711029 0.101961 0.101961 0.690196
v 127.998817 -55.426018 127.998772 0.101961 0.101961 0.690196
v 145.710983 -55.426018 145.710938 0.101961 0.101961 0.690196
v -127.998817 -55.426018 -127.998863 0.101961 0.101961 0.690196
v -145.710983 -55.426018 -145.711029 0.101961 0.101961 0.690196
v 127.998817 -55.426018 -127.998863 0.101961 0.101961 0.690196
v 145.710983 -55.426018 -145.711029 0.101961 0.101961 0.690196
v -127.998817 -55.426018 127.998772 0.101961 0.101961 0.690196
v -145.710983 -55.426018 145.710938 0.101961 0.101961 0.690196
v -127.998817 -55.426018 -127.998863 0.101961 0.101961 0.690196
v -145.710983 -55.426018 -145.711029 0.101961 0.101961 0.690196
v 145.710983 -55.426018 145.710938 0.101961 0.101961 0.690196
v 145.710983 -28.044058 145.710938 0.101961 0.101961 0.690196
v -145.710983 -55.426018 145.710938 0.101961 0.101961 0.690196
v -145.710983 -28.044058 145.710938 0.101961 0.101961 0.690196
v 145.710983 -55.426018 -145.711029 0.101961 0.101961 0.690196
v 145.710983 -28.044058 -145.711029 0.101961 0.101961 0.690196
v 145.710983 -55.426018 145.710938 0.101961 0.101961 0.690196
v 145.710983 -28.044058 145.710938 0.101961 0.101961 0.690196
v -145.710983 -55.426018 145.710938 0.101961 0.101961 0.690196
v -145.710983 -28.044058 145.710938 0.101961 0.101961 0.690196
v -145.710983 -55.426018 -145.711029 0.101961 0.101961 0.690196
v -145.710983 -28.044058 -145.711029 0.101961 0.101961 0.690196
v -82.006104 27.888031 81.387032 0.101961 0.101961 0.690196
v -99.493622 18.797319 125.073364 0.101961 0.101961 0.690196
v -75.775894 59.133919 75.621094 0.101961 0.101961 0.690196
v -91.925514 56.847511 125.073364 0.101961 0.101961 0.690196
v -57.988853 85.622284 58.058701 0.101961 0.101961 0.690196
v -70.37439 89.101814 125.073364 0.101961 0.101961 0.690196
v -57.988853 85.622284 58.058701 0.101961 0.101961 0.690196
v -70.37439 89.101814 125.073364 0.101961 0.101961 0.690196
v -31.355717 103.319473 31.745058 0.101961 0.101961 0.690196
v -38.120083 110.652946 125.073364 0.101961 0.101961 0.690196
v -0.074882 118.221046 125.073364 0.101961 0.101961 0.690196
v 37.970318 110.652946 125.073364 0.101961 0.101961 0.690196
v 70.224625 89.101814 125.073364 0.101961 0.101961 0.690196
v -163.577896 12.617033 -81.262321 0.101961 0.101961 0.690196
v -163.577896 12.617033 81.382042 0.101961 0.101961 0.690196
v -163.577896 28.297386 -81.262321 0.101961 0.101961 0.690196
v -163.577896 28.297386 81.382042 0.101961 0.101961 0.690196
v -163.577896 28.297386 81.382042 0.101961 0.101961 0.690196
v -163.577896 12.617033 81.382042 0.101961 0.101961 0.690196
v -112.583046 28.297386 81.382042 0.101961 0.101961 0.690196
v -127.948891 -28.044058 81.382042 0.101961 0.101961 0.690196
v -112.583046 -28.044058 81.382042 0.101961 0.101961 0.690196
v -127.948891 -28.044058 -81.262321 0.101961 0.101961 0.690196
v -127.948891 -28.044058 81.382042 0.101961 0.101961 0.690196
v -163.577896 12.617033 -81.262321 0.101961 0.101961 0.690196
v -163.577896 12.617033 81.382042 0.101961 0.101961 0.690196
v -112.583046 28.297386 81.382042 0.101961 0.101961 0.690196
v -112.583046 28.297386 -81.262321 0.101961 0.101961 0.690196
v -163.577896 28.297386 81.382042 0.101961 0.101961 0.690196
v -163.577896 28.297386 -81.262321 0.101961 0.101961 0.690196
v -58.058746 85.622284 -57.993893 0.101961 0.101961 0.690196
v -91.925514 56.847511 -125.073456 0.101961 0.101961 0.690196
v -75.860764 59.133919 -75.55629 0.101961 0.101961 0.690196
v -99.493622 18.797319 -125.073456 0.101961 0.101961 0.690196
v -82.520294 27.888031 -81.327217 0.101961 0.101961 0.690196
v 81.931221 27.888031 81.387032 0.101961 0.101961 0.690196
v 81.711571 -28.044058 81.387032 0.101961 0.101961 0.690196
v 112.583046 28.297386 81.382042 0.101961 0.101961 0.690196
v 112.583046 -28.044058 81.382042 0.101961 0.101961 0.690196
v 163.577896 28.297386 81.382042 0.101961 0.101961 0.690196
v 163.577896 12.617033 81.382042 0.101961 0.101961 0.690196
v 163.577896 28.297386 -81.262321 0.101961 0.101961 0.690196
v 163.577896 12.617033 -81.262321 0.101961 0.101961 0.690196
v 112.583046 -28.044058 81.382042 0.101961 0.101961 0.690196
v 127.948891 -28.044058 81.382042 0.101961 0.101961 0.690196
v 112.583046 28.297386 81.382042 0.101961 0.101961 0.690196
v 163.577896 12.617033 81.382042 0.101961 0.101961 0.690196
v 163.577896 28.297386 81.382042 0.101961 0.101961 0.690196
v 127.948891 -28.044058 -81.262321 0.101961 0.101961 0.690196
v 163.577896 12.617033 -81.262321 0.101961 0.101961 0.690196
v 127.948891 -28.044058 81.382042 0.101961 0.101961 0.690196
v 163.577896 12.617033 81.382042 0.101961 0.101961 0.690196
v 112.583046 28.297386 81.382042 0.101961 0.101961 0.690196
v 163.577896 28.297386 81.382042 0.101961 0.101961 0.690196
v 112.583046 28.297386 -81.262321 0.101961 0.101961 0.690196
v 163.577896 28.297386 -81.262321 0.101961 0.101961 0.690196
v 145.710983 -28.044058 145.710938 0.101961 0.101961 0.690196
v 127.948891 -28.044058 81.382042 0.101961 0.101961 0.690196
v 99.343857 -28.044058 125.073364 0.101961 0.101961 0.690196
v 112.583046 -28.044058 81.382042 0.101961 0.101961 0.690196
v 81.711571 -28.044058 81.387032 0.101961 0.101961 0.690196
v -81.786453 -28.044058 81.387032 0.101961 0.101961 0.690196
v -112.583046 -28.044058 81.382042 0.101961 0.101961 0.690196
v -99.493622 -28.044058 125.073364 0.101961 0.101961 0.690196
v -127.948891 -28.044058 81.382042 0.101961 0.101961 0.690196
v -145.710983 -28.044058 145.710938 0.101961 0.101961 0.690196
v 99.343857 -28.044058 125.073364 0.101961 0.101961 0.690196
v 145.710983 -28.044058 145.710938 0.101961 0.101961 0.690196
v 127.948891 -28.044058 81.382042 0.101961 0.101961 0.690196
v 145.710983 -28.044058 145.710938 0.101961 0.101961 0.690196
v 127.948891 -28.044058 -81.262321 0.101961 0.101961 0.690196
v 145.710983 -28.044058 -145.711029 0.101961 0.101961 0.690196
v -145.710983 -28.044058 -145.711029 0.101961 0.101961 0.690196
v -99.493622 -28.044058 -125.073456 0.101961 0.101961 0.690196
v 145.710983 -28.044058 -145.711029 0.101961 0.101961 0.690196
v 99.343857 -28.044058 -125.073456 0.101961 0.101961 0.690196
v 127.948891 -28.044058 -81.262321 0.101961 0.101961 0.690196
v -145.710983 -28.044058 145.710938 0.101961 0.101961 0.690196
v -127.948891 -28.044058 81.382042 0.101961 0.101961 0.690196
v -145.710983 -28.044058 -145.711029 0.101961 0.101961 0.690196
v -127.948891 -28.044058 -81.262321 0.101961 0.101961 0.690196
v -99.493622 -28.044058 -125.073456 0.101961 0.101961 0.690196
v -81.786453 -28.044058 81.387032 0.101961 0.101961 0.690196
v -99.493622 18.797319 125.073364 0.101961 0.101961 0.690196
v -82.006104 27.888031 81.387032 0.101961 0.101961 0.690196
v -99.493622 18.797319 125.073364 0.101961 0.101961 0.690196
v -81.786453 -28.044058 81.387032 0.101961 0.101961 0.690196
v -99.493622 -28.044058 125.073364 0.101961 0.101961 0.690196
v -57.988853 85.622284 58.058701 0.101961 0.101961 0.690196
v -112.583046 59.418472 75.191772 0.101961 0.101961 0.690196
v -75.775894 59.133919 75.621094 0.101961 0.101961 0.690196
v -112.583046 28.297386 81.382042 0.101961 0.101961 0.690196
v -82.006104 27.888031 81.387032 0.101961 0.101961 0.690196
v 99.343857 -28.044058 125.073364 0.101961 0.101961 0.690196
v 81.931221 27.888031 81.387032 0.101961 0.101961 0.690196
v 99.343857 18.797319 125.073364 0.101961 0.101961 0.690196
v -31.205952 103.319473 -31.680252 0.101961 0.101961 0.690196
v -112.583046 109.619568 0.05986 0.101961 0.101961 0.690196
v -112.583046 103.429298 31.180944 0.101961 0.101961 0.690196
v -112.583046 85.802002 57.564476 0.101961 0.101961 0.690196
v 81.931221 27.888031 81.387032 0.101961 0.101961 0.690196
v 99.343857 -28.044058 125.073364 0.101961 0.101961 0.690196
v 81.711571 -28.044058 81.387032 0.101961 0.101961 0.690196
v -112.583046 28.297386 -81.262321 0.101961 0.101961 0.690196
v -112.583046 28.297386 81.382042 0.101961 0.101961 0.690196
v -112.583046 59.418472 -75.072052 0.101961 0.101961 0.690196
v -112.583046 59.418472 75.191772 0.101961 0.101961 0.690196
v -112.583046 85.802002 -57.444756 0.101961 0.101961 0.690196
v -112.583046 85.802002 57.564476 0.101961 0.101961 0.690196
v -112.583046 103.429298 -31.061224 0.101961 0.101961 0.690196
v -112.583046 103.429298 31.180944 0.101961 0.101961 0.690196
v -112.583046 109.619568 0.05986 0.101961 0.101961 0.690196
v -82.006104 27.888031 81.387032 0.101961 0.101961 0.690196
v -112.583046 28.297386 81.382042 0.101961 0.101961 0.690196
v -81.786453 -28.044058 81.387032 0.101961 0.101961 0.690196
v -112.583046 -28.044058 81.382042 0.101961 0.101961 0.690196
v 57.983864 85.622284 -57.993893 0.101961 0.101961 0.690196
v 37.970318 110.652946 -125.073456 0.101961 0.101961 0.690196
v -0.074882 118.221046 -125.073456 0.101961 0.101961 0.690196
v -38.120083 110.652946 -125.073456 0.101961 0.101961 0.690196
v -70.37439 89.101814 -125.073456 0.101961 0.101961 0.690196
v -58.058746 85.622284 -57.993893 0.101961 0.101961 0.690196
v -112.583046 85.802002 57.564476 0.101961 0.101961 0.690196
v 82.445412 27.888031 -81.327217 0.101961 0.101961 0.690196
v 91.775749 56.847511 -125.073456 0.101961 0.101961 0.690196
v 75.785881 59.133919 -75.55629 0.101961 0.101961 0.690196
v 70.224625 89.101814 -125.073456 0.101961 0.101961 0.690196
v 57.983864 85.622284 -57.993893 0.101961 0.101961 0.690196
v -112.583046 103.429298 -31.061224 0.101961 0.101961 0.690196
v -82.520294 27.888031 -81.327217 0.101961 0.101961 0.690196
v -99.493622 18.797319 -125.073456 0.101961 0.101961 0.690196
v -82.520294 -28.044058 -81.327217 0.101961 0.101961 0.690196
v -99.493622 -28.044058 -125.073456 0.101961 0.101961 0.690196
v 99.343857 18.797319 -125.073456 0.101961 0.101961 0.690196
v 82.445412 27.888031 -81.327217 0.101961 0.101961 0.690196
v 99.343857 -28.044058 -125.073456 0.101961 0.101961 0.690196
v 82.445412 -28.044058 -81.327217 0.101961 0.101961 0.690196
v 81.931221 27.888031 81.387032 0.101961 0.101961 0.690196
v 112.583046 28.297386 81.382042 0.101961 0.101961 0.690196
v 75.701019 59.133919 75.621094 0.101961 0.101961 0.690196
v 112.583046 59.418472 75.191772 0.101961 0.101961 0.690196
v 57.913971 85.622284 58.058701 0.101961 0.101961 0.690196
v 112.583046 85.802002 57.564476 0.101961 0.101961 0.690196
v -70.37439 89.101814 -125.073456 0.101961 0.101961 0.690196
v 70.224625 89.101814 -125.073456 0.101961 0.101961 0.690196
v 99.343857 18.797319 -125.073456 0.101961 0.101961 0.690196
vt 0.6952 0.5837
vt 0.6939 0.7799
vt 0.8207 0.5314
vt 0.8191 0.7799
vt 0.9461 0.4689
vt 0.9437 0.7799
vt 0.8207 0.5314
vt 0.8191 0.7799
vt 0.7044 0.4625
vt 0.6168 0.4438
vt 0.792 0.4438
vt 0.5352 0.3931
vt 0.8728 0.3799
vt 0.469 0.3049
vt 0.9338 0.3049
vt 0.454 0.1827
vt 0.9548 0.1827
vt 0.3183 0.7799
vt 0.3188 0.636
vt 0.5687 0.7799
vt 0.5698 0.6129
vt 0.6939 0.7799
vt 0.6952 0.5837
vt 0.7044 0.4625
vt 0.6168 0.4438
vt 0.792 0.4438
vt 0.5352 0.3931
vt 0.8728 0.3799
vt 0.469 0.3049
vt 0.9338 0.3049
vt 0.454 0.1827
vt 0.9548 0.1827
vt 0.454 0.0358
vt 0.9548 0.0358
vt 0.961 0.9697
vt 0.5345 0.9697
vt 0.961 0.0335
vt 0.5345 0.0335
vt 0.4838 0.8425
vt 0.4838 0.9547
vt 0.0382 0.8425
vt 0.0382 0.9547
vt 0.4838 0.8425
vt 0.4838 0.9547
vt 0.0382 0.8425
vt 0.0382 0.9547
vt 0.4838 0.8425
vt 0.4838 0.9547
vt 0.0382 0.8425
vt 0.0382 0.9547
vt 0.3471 0.3921
vt 0.4026 0.5502
vt 0.1032 0.3921
vt 0.0476 0.5502
vt 0.3471 0.3921
vt 0.4026 0.5502
vt 0.1032 0.3921
vt 0.0476 0.5502
vt 0.3471 0.3921
vt 0.4026 0.5502
vt 0.1032 0.3921
vt 0.0476 0.5502
vt 0.3471 0.3921
vt 0.4026 0.5502
vt 0.1032 0.3921
vt 0.0476 0.5502
vt 0.9466 0.8466
vt 0.9466 0.9517
vt 0.5496 0.8467
vt 0.5497 0.9518
vt 0.9466 0.8467
vt 0.9465 0.9516
vt 0.5494 0.8468
vt 0.5496 0.9518
vt 0.9466 0.8467
vt 0.9465 0.9516
vt 0.5494 0.8468
vt 0.5496 0.9518
vt 0.3188 0.636
vt 0.3183 0.7799
vt 0.5698 0.6129
vt 0.5687 0.7799
vt 0.6952 0.5837
vt 0.6939 0.7799
vt 0.6952 0.5837
vt 0.6939 0.7799
vt 0.8207 0.5314
vt 0.8191 0.7799
vt 0.9443 0.7799
vt 0.8191 0.7799
vt 0.6939 0.7799
vt 0.5496 0.8467
vt 0.9466 0.8466
vt 0.5497 0.9518
vt 0.9466 0.9517
vt 0.2209 0.1879
vt 0.2209 0.2302
vt 0.3907 0.1879
vt 0.3274 0.3195
vt 0.3907 0.3195
vt 0.0479 0.3897
vt 0.4006 0.3897
vt 0.0479 0.5534
vt 0.4006 0.5534
vt 0.3908 0.1207
vt 0.0352 0.1207
vt 0.3908 0.0385
vt 0.0352 0.0385
vt 0.6952 0.5837
vt 0.5687 0.7799
vt 0.5698 0.6129
vt 0.3183 0.7799
vt 0.3188 0.636
vt 0.3188 0.636
vt 0.034 0.636
vt 0.3183 0.7799
vt 0.034 0.7799
vt 0.5494 0.9517
vt 0.5494 0.8466
vt 0.9463 0.9517
vt 0.9463 0.8466
vt 0.3907 0.3195
vt 0.3274 0.3195
vt 0.3907 0.1879
vt 0.2209 0.2302
vt 0.2209 0.1879
vt 0.4006 0.3897
vt 0.4006 0.5534
vt 0.0479 0.3897
vt 0.0479 0.5534
vt 0.0352 0.1207
vt 0.0352 0.0385
vt 0.3908 0.1207
vt 0.3908 0.0385
vt 0.0352 0.0385
vt 0.0347 0.3052
vt 0.1193 0.1209
vt 0.0552 0.3051
vt 0.1726 0.3051
vt 0.1726 0.3051
vt 0.0552 0.3051
vt 0.1193 0.1209
vt 0.0347 0.3052
vt 0.0352 0.0385
vt 0.3291 0.1206
vt 0.3908 0.0383
vt 0.1193 0.1209
vt 0.0352 0.0385
vt 0.3291 0.1206
vt 0.3908 0.0383
vt 0.3908 0.0383
vt 0.3291 0.1206
vt 0.0352 0.0385
vt 0.1193 0.1209
vt 0.0347 0.3052
vt 0.3908 0.0383
vt 0.3291 0.1206
vt 0.0352 0.0385
vt 0.1193 0.1209
vt 0.0348 0.2024
vt 0.034 0.636
vt 0.3183 0.7799
vt 0.3188 0.636
vt 0.3183 0.7799
vt 0.034 0.636
vt 0.034 0.7799
vt 0.6952 0.5837
vt 0.5687 0.7799
vt 0.5698 0.613
vt 0.3183 0.7799
vt 0.3188 0.636
vt 0.034 0.7799
vt 0.3188 0.636
vt 0.3183 0.7799
vt 0.8207 0.5314
vt 0.9437 0.7799
vt 0.8191 0.7799
vt 0.6939 0.7799
vt 0.3188 0.636
vt 0.034 0.7799
vt 0.034 0.636
vt 0.454 0.1827
vt 0.9548 0.1827
vt 0.469 0.3049
vt 0.9338 0.3049
vt 0.5352 0.3931
vt 0.8728 0.3799
vt 0.6168 0.4438
vt 0.792 0.4438
vt 0.7044 0.4625
vt 0.3188 0.636
vt 0.3183 0.7799
vt 0.034 0.636
vt 0.034 0.7799
vt 0.6952 0.5837
vt 0.8191 0.7799
vt 0.9443 0.7799
vt 0.8191 0.7799
vt 0.6939 0.7799
vt 0.6952 0.5837
vt 0.6939 0.7799
vt 0.3188 0.636
vt 0.5687 0.7799
vt 0.5698 0.6129
vt 0.6939 0.7799
vt 0.6952 0.5837
vt 0.8191 0.7799
vt 0.3188 0.636
vt 0.3183 0.7799
vt 0.034 0.636
vt 0.034 0.7799
vt 0.3183 0.7799
vt 0.3188 0.636
vt 0.034 0.7799
vt 0.034 0.636
vt 0.3188 0.636
vt 0.3183 0.7799
vt 0.5698 0.613
vt 0.5687 0.7799
vt 0.6952 0.5837
vt 0.6939 0.7799
vt 0.6939 0.7799
vt 0.6939 0.7799
vt 0.3183 0.7799
g top_2_part0
usemtl top_2_mat0
f 1/1 2/2 3/3
f 3/3 2/2 4/4
f 3/3 4/4 5/5
f 5/5 4/4 6/6
f 5/5 6/6 7/7
f 7/7 6/6 8/8
f 9/9 10/10 11/11
f 11/11 10/10 12/12
f 11/11 12/12 13/13
f 13/13 12/12 14/14
f 13/13 14/14 15/15
f 15/15 14/14 16/16
f 15/15 16/16 17/17
f 18/18 19/19 20/20
f 20/20 19/19 21/21
f 20/20 21/21 22/22
f 22/22 21/21 23/23
f 24/24 25/25 26/26
f 26/26 25/25 27/27
f 26/26 27/27 28/28
f 28/28 27/27 29/29
f 28/28 29/29 30/30
f 30/30 29/29 31/31
f 30/30 31/31 32/32
f 32/32 31/31 33/33
f 32/32 33/33 34/34
f 39/39 40/40 41/41
f 41/41 40/40 42/42
f 43/43 44/44 45/45
f 45/45 44/44 46/46
f 47/47 48/48 49/49
f 49/49 48/48 50/50
f 51/51 52/52 53/53
f 53/53 52/52 54/54
f 55/55 56/56 57/57
f 57/57 56/56 58/58
f 59/59 60/60 61/61
f 61/61 60/60 62/62
f 63/63 64/64 65/65
f 65/65 64/64 66/66
f 67/67 68/68 69/69
f 69/69 68/68 70/70
f 71/71 72/72 73/73
f 73/73 72/72 74/74
f 75/75 76/76 77/77
f 77/77 76/76 78/78
f 79/79 80/80 81/81
f 81/81 80/80 82/82
f 81/81 82/82 83/83
f 83/83 82/82 84/84
f 85/85 86/86 87/87
f 87/87 86/86 88/88
f 87/87 88/88 5/5
f 5/5 88/88 89/89
f 5/5 89/89 3/3
f 3/3 89/89 90/90
f 3/3 90/90 1/1
f 1/1 90/90 91/91
f 92/92 93/93 94/94
f 94/94 93/93 95/95
f 96/96 97/97 98/98
f 98/98 97/97 99/99
f 98/98 99/99 100/100
f 101/101 102/102 103/103
f 103/103 102/102 104/104
f 105/105 106/106 107/107
f 107/107 106/106 108/108
f 109/109 110/110 111/111
f 111/111 110/110 112/112
f 111/111 112/112 113/113
f 114/114 115/115 116/116
f 116/116 115/115 117/117
f 118/118 119/119 120/120
f 120/120 119/119 121/121
f 122/122 123/123 124/124
f 124/124 123/123 125/125
f 124/124 125/125 126/126
f 127/127 128/128 129/129
f 129/129 128/128 130/130
f 131/131 132/132 133/133
f 133/133 132/132 134/134
f 135/135 136/136 137/137
f 137/137 136/136 138/138
f 137/137 138/138 139/139
f 140/140 141/141 142/142
f 142/142 141/141 143/143
f 142/142 143/143 144/144
f 142/142 144/144 145/145
f 145/145 144/144 146/146
f 147/147 148/148 149/149
f 149/149 148/148 150/150
f 151/151 152/152 153/153
f 153/153 152/152 154/154
f 153/153 154/154 155/155
f 156/156 157/157 158/158
f 158/158 157/157 159/159
f 158/158 159/159 160/160
f 161/161 162/162 163/163
f 164/164 165/165 166/166
f 167/167 168/168 169/169
f 169/169 168/168 170/170
f 169/169 170/170 171/171
f 172/172 173/173 174/174
f 175/175 176/176 5/5
f 5/5 176/176 177/177
f 5/5 177/177 87/87
f 87/87 177/177 178/178
f 87/87 178/178 85/85
f 179/179 180/180 181/181
f 182/182 183/183 184/184
f 184/184 183/183 185/185
f 184/184 185/185 186/186
f 186/186 185/185 187/187
f 186/186 187/187 188/188
f 188/188 187/187 189/189
f 188/188 189/189 190/190
f 191/191 192/192 193/193
f 193/193 192/192 194/194
f 195/195 196/196 7/7
f 7/7 196/196 197/197
f 7/7 197/197 5/5
f 5/5 197/197 198/198
f 5/5 198/198 175/175
f 175/175 198/198 199/199
f 175/175 199/199 200/200
f 201/201 168/168 167/167
f 202/202 203/203 204/204
f 204/204 203/203 205/205
f 204/204 205/205 206/206
f 207/207 176/176 175/175
f 208/208 209/209 210/210
f 210/210 209/209 211/211
f 212/212 213/213 214/214
f 214/214 213/213 215/215
f 216/216 217/217 218/218
f 218/218 217/217 219/219
f 218/218 219/219 220/220
f 220/220 219/219 221/221
f 222/222 110/110 109/109
f 223/223 196/196 195/195
f 224/224 203/203 202/202
g top_2_part1
usemtl top_2_mat1
f 35/35 36/36 37/37
f 37/37 36/36 38/38
