# top_4 (M3G user id 33) extracted by M3gToObj
#@default_color FF57C6DF
mtllib top_4.mtl
o top_4
v 80.926476 92.270302 106.077065 0.341176 0.776471 0.87451
v 60.065002 115.119415 106.077065 0.341176 0.776471 0.87451
v 36.579498 54.871338 106.077065 0.341176 0.776471 0.87451
v 31.959116 130.035416 106.077065 0.341176 0.776471 0.87451
v 0.0 60.799377 106.077065 0.341176 0.776471 0.87451
v 0.0 135.21373 106.077065 0.341176 0.776471 0.87451
v -31.950397 130.035416 106.077065 0.341176 0.776471 0.87451
v 148.453842 -108.31543 148.453842 0.341176 0.776471 0.87451
v 105.327339 -108.31543 132.840424 0.341176 0.776471 0.87451
v -148.453842 -108.31543 148.453842 0.341176 0.776471 0.87451
v -105.318626 -108.31543 132.840424 0.341176 0.776471 0.87451
v -132.822983 -108.31543 106.077065 0.341176 0.776471 0.87451
v -105.318626 -108.31543 106.077065 0.341176 0.776471 0.87451
v -36.570782 54.871338 106.077065 0.341176 0.776471 0.87451
v -60.056286 115.119415 106.077065 0.341176 0.776471 0.87451
v -80.917763 92.270302 106.077065 0.341176 0.776471 0.87451
v -92.311806 11.640228 106.077065 0.341176 0.776471 0.87451
v -68.73912 37.802063 106.077065 0.341176 0.776471 0.87451
v -92.015404 64.242874 106.077065 0.341176 0.776471 0.87451
v 92.024117 64.242874 106.077065 0.341176 0.776471 0.87451
v 68.747841 37.802063 106.077065 0.341176 0.776471 0.87451
v 92.320518 11.640228 106.077065 0.341176 0.776471 0.87451
v -105.318626 -108.31543 -132.822983 0.341176 0.776471 0.87451
v -148.453842 -108.31543 -148.453842 0.341176 0.776471 0.87451
v -132.822983 -108.31543 -106.059631 0.341176 0.776471 0.87451
v -148.453842 -108.31543 148.453842 0.341176 0.776471 0.87451
v -132.822983 -108.31543 106.077065 0.341176 0.776471 0.87451
v 148.453842 -128.0 148.453842 0.341176 0.776471 0.87451
v 148.453842 -108.31543 148.453842 0.341176 0.776471 0.87451
v -148.453842 -128.0 148.453842 0.341176 0.776471 0.87451
v -148.453842 -108.31543 148.453842 0.341176 0.776471 0.87451
v 148.453842 -128.0 -148.453842 0.341176 0.776471 0.87451
v 148.453842 -108.31543 -148.453842 0.341176 0.776471 0.87451
v 148.453842 -128.0 148.453842 0.341176 0.776471 0.87451
v 148.453842 -108.31543 148.453842 0.341176 0.776471 0.87451
v -148.453842 -128.0 148.453842 0.341176 0.776471 0.87451
v -148.453842 -108.31543 148.453842 0.341176 0.776471 0.87451
v -148.453842 -128.0 -148.453842 0.341176 0.776471 0.87451
v -148.453842 -108.31543 -148.453842 0.341176 0.776471 0.87451
v -36.570782 54.871338 106.077065 0.341176 0.776471 0.87451
v 0.0 60.799377 132.840424 0.341176 0.776471 0.87451
v 0.0 60.799377 106.077065 0.341176 0.776471 0.87451
v 36.579498 54.871338 132.840424 0.341176 0.776471 0.87451
v 36.579498 54.871338 106.077065 0.341176 0.776471 0.87451
v 36.579498 54.871338 106.077065 0.341176 0.776471 0.87451
v 68.747841 37.802063 132.840424 0.341176 0.776471 0.87451
v 68.747841 37.802063 106.077065 0.341176 0.776471 0.87451
v 92.625641 11.648941 132.840424 0.341176 0.776471 0.87451
v 92.320518 11.640228 106.077065 0.341176 0.776471 0.87451
v 105.327339 -20.43222 132.840424 0.341176 0.776471 0.87451
v 105.327339 -20.43222 106.077065 0.341176 0.776471 0.87451
v 105.327339 -108.31543 132.840424 0.341176 0.776471 0.87451
v 105.327339 -108.31543 106.077065 0.341176 0.776471 0.87451
v 60.431149 115.058388 79.331139 0.341176 0.776471 0.87451
v 80.926476 92.270302 79.331139 0.341176 0.776471 0.87451
v 92.024117 115.119415 79.331139 0.341176 0.776471 0.87451
v 92.024117 64.242874 79.331139 0.341176 0.776471 0.87451
v 132.831711 11.648941 -106.059631 0.341176 0.776471 0.87451
v 92.024117 11.631516 -79.322418 0.341176 0.776471 0.87451
v 132.831711 11.648941 106.077065 0.341176 0.776471 0.87451
v 92.024117 11.631516 79.331139 0.341176 0.776471 0.87451
v 92.320518 11.640228 106.077065 0.341176 0.776471 0.87451
v -132.822983 11.648941 106.077065 0.341176 0.776471 0.87451
v -132.822983 11.648941 -106.059631 0.341176 0.776471 0.87451
v -132.822983 -108.31543 106.077065 0.341176 0.776471 0.87451
v -132.822983 -108.31543 -106.059631 0.341176 0.776471 0.87451
v 38.28817 189.577347 21.63735 0.341176 0.776471 0.87451
v 38.28817 189.577347 -22.8927 0.341176 0.776471 0.87451
v 38.28817 220.063171 21.63735 0.341176 0.776471 0.87451
v 38.28817 220.063171 -22.8927 0.341176 0.776471 0.87451
v 26.057228 239.442627 14.576007 0.341176 0.776471 0.87451
v 26.057228 239.442627 -15.831357 0.341176 0.776471 0.87451
v -0.278967 189.577347 43.902374 0.341176 0.776471 0.87451
v 38.28817 189.577347 21.63735 0.341176 0.776471 0.87451
v -0.278967 220.063171 43.902374 0.341176 0.776471 0.87451
v 38.28817 220.063171 21.63735 0.341176 0.776471 0.87451
v -0.278967 239.442627 29.779688 0.341176 0.776471 0.87451
v 26.057228 239.442627 14.576007 0.341176 0.776471 0.87451
v -38.837387 189.577347 21.63735 0.341176 0.776471 0.87451
v -0.278967 189.577347 43.902374 0.341176 0.776471 0.87451
v -38.837387 220.063171 21.63735 0.341176 0.776471 0.87451
v -0.278967 220.063171 43.902374 0.341176 0.776471 0.87451
v -26.606443 239.442627 14.576007 0.341176 0.776471 0.87451
v -0.278967 239.442627 29.779688 0.341176 0.776471 0.87451
v -38.837387 189.577347 -22.8927 0.341176 0.776471 0.87451
v -38.837387 189.577347 21.63735 0.341176 0.776471 0.87451
v -38.837387 220.063171 -22.8927 0.341176 0.776471 0.87451
v -38.837387 220.063171 21.63735 0.341176 0.776471 0.87451
v -26.606443 239.442627 -15.831357 0.341176 0.776471 0.87451
v -26.606443 239.442627 14.576007 0.341176 0.776471 0.87451
v 36.579498 54.871338 132.840424 0.341176 0.776471 0.87451
v -105.318626 -20.43222 106.077065 0.341176 0.776471 0.87451
v -105.318626 -108.31543 106.077065 0.341176 0.776471 0.87451
v -105.318626 -20.43222 132.840424 0.341176 0.776471 0.87451
v -105.318626 -108.31543 132.840424 0.341176 0.776471 0.87451
v -92.311806 11.640228 106.077065 0.341176 0.776471 0.87451
v -68.73912 37.802063 132.840424 0.341176 0.776471 0.87451
v -68.73912 37.802063 106.077065 0.341176 0.776471 0.87451
v -36.570782 54.871338 132.840424 0.341176 0.776471 0.87451
v -36.570782 54.871338 106.077065 0.341176 0.776471 0.87451
v -92.61692 11.648941 132.840424 0.341176 0.776471 0.87451
v -36.570782 54.871338 132.840424 0.341176 0.776471 0.87451
v 0.0 60.799377 132.840424 0.341176 0.776471 0.87451
v -36.570782 54.871338 132.840424 0.341176 0.776471 0.87451
v 36.579498 54.871338 132.840424 0.341176 0.776471 0.87451
v -68.73912 37.802063 132.840424 0.341176 0.776471 0.87451
v 68.747841 37.802063 132.840424 0.341176 0.776471 0.87451
v -92.61692 11.648941 132.840424 0.341176 0.776471 0.87451
v 92.625641 11.648941 132.840424 0.341176 0.776471 0.87451
v -105.318626 -20.43222 132.840424 0.341176 0.776471 0.87451
v 105.327339 -20.43222 132.840424 0.341176 0.776471 0.87451
v -105.318626 -108.31543 132.840424 0.341176 0.776471 0.87451
v 105.327339 -108.31543 132.840424 0.341176 0.776471 0.87451
v -31.950397 130.035416 79.331139 0.341176 0.776471 0.87451
v 0.0 135.21373 106.077065 0.341176 0.776471 0.87451
v 0.0 135.21373 79.331139 0.341176 0.776471 0.87451
v 31.959116 130.035416 106.077065 0.341176 0.776471 0.87451
v 31.959116 130.035416 79.331139 0.341176 0.776471 0.87451
v 31.959116 130.035416 79.331139 0.341176 0.776471 0.87451
v 60.065002 115.119415 106.077065 0.341176 0.776471 0.87451
v 60.431149 115.058388 79.331139 0.341176 0.776471 0.87451
v 80.926476 92.270302 106.077065 0.341176 0.776471 0.87451
v 80.926476 92.270302 79.331139 0.341176 0.776471 0.87451
v 92.024117 64.242874 106.077065 0.341176 0.776471 0.87451
v 92.024117 64.242874 79.331139 0.341176 0.776471 0.87451
v 92.320518 11.640228 106.077065 0.341176 0.776471 0.87451
v 92.024117 11.631516 79.331139 0.341176 0.776471 0.87451
v 31.959116 130.035416 106.077065 0.341176 0.776471 0.87451
v -92.015404 11.631516 79.331139 0.341176 0.776471 0.87451
v -92.015404 64.242874 106.077065 0.341176 0.776471 0.87451
v -92.015404 64.242874 79.331139 0.341176 0.776471 0.87451
v -80.917763 92.270302 106.077065 0.341176 0.776471 0.87451
v -80.917763 92.270302 79.331139 0.341176 0.776471 0.87451
v -92.311806 11.640228 106.077065 0.341176 0.776471 0.87451
v -31.950397 130.035416 79.331139 0.341176 0.776471 0.87451
v -60.422428 115.058388 79.331139 0.341176 0.776471 0.87451
v -31.950397 130.035416 106.077065 0.341176 0.776471 0.87451
v -60.056286 115.119415 106.077065 0.341176 0.776471 0.87451
v -31.950397 130.035416 106.077065 0.341176 0.776471 0.87451
v -92.311806 11.640228 106.077065 0.341176 0.776471 0.87451
v -105.318626 -20.43222 106.077065 0.341176 0.776471 0.87451
v -105.318626 -20.43222 132.840424 0.341176 0.776471 0.87451
v -21.114286 189.577347 53.701077 0.341176 0.776471 0.87451
v 0.0 192.99469 79.331139 0.341176 0.776471 0.87451
v 0.0 192.99469 53.701077 0.341176 0.776471 0.87451
v 21.114286 189.577347 79.331139 0.341176 0.776471 0.87451
v 21.114286 189.577347 53.701077 0.341176 0.776471 0.87451
v 39.683002 179.726349 79.331139 0.341176 0.776471 0.87451
v 39.683002 179.726349 53.701077 0.341176 0.776471 0.87451
v 53.465698 164.627274 79.331139 0.341176 0.776471 0.87451
v 53.465698 164.627274 53.701077 0.341176 0.776471 0.87451
v 60.797291 146.110855 79.331139 0.341176 0.776471 0.87451
v 60.797291 146.110855 53.701077 0.341176 0.776471 0.87451
v 60.431149 115.058388 79.331139 0.341176 0.776471 0.87451
v 60.797291 114.988647 53.701077 0.341176 0.776471 0.87451
v -60.797291 114.988647 53.701077 0.341176 0.776471 0.87451
v -60.797291 146.110855 79.331139 0.341176 0.776471 0.87451
v -60.797291 146.110855 53.701077 0.341176 0.776471 0.87451
v -53.456982 164.627274 79.331139 0.341176 0.776471 0.87451
v -53.456982 164.627274 53.701077 0.341176 0.776471 0.87451
v -39.683002 179.726349 79.331139 0.341176 0.776471 0.87451
v -39.683002 179.726349 53.701077 0.341176 0.776471 0.87451
v -21.114286 189.577347 79.331139 0.341176 0.776471 0.87451
v -21.114286 189.577347 53.701077 0.341176 0.776471 0.87451
v -92.61692 11.648941 132.840424 0.341176 0.776471 0.87451
v -92.311806 11.640228 106.077065 0.341176 0.776471 0.87451
v -105.318626 -20.43222 132.840424 0.341176 0.776471 0.87451
v -60.422428 115.058388 79.331139 0.341176 0.776471 0.87451
v 0.0 192.99469 79.331139 0.341176 0.776471 0.87451
v -21.114286 189.577347 79.331139 0.341176 0.776471 0.87451
v 0.0 135.21373 79.331139 0.341176 0.776471 0.87451
v -39.683002 179.726349 79.331139 0.341176 0.776471 0.87451
v -31.950397 130.035416 79.331139 0.341176 0.776471 0.87451
v -53.456982 164.627274 79.331139 0.341176 0.776471 0.87451
v -60.797291 146.110855 79.331139 0.341176 0.776471 0.87451
v -21.114286 189.577347 79.331139 0.341176 0.776471 0.87451
v 60.797291 146.110855 79.331139 0.341176 0.776471 0.87451
v 53.465698 164.627274 79.331139 0.341176 0.776471 0.87451
v 31.959116 130.035416 79.331139 0.341176 0.776471 0.87451
v 39.683002 179.726349 79.331139 0.341176 0.776471 0.87451
v 21.114286 189.577347 79.331139 0.341176 0.776471 0.87451
v -60.422428 115.058388 79.331139 0.341176 0.776471 0.87451
v 60.431149 115.058388 79.331139 0.341176 0.776471 0.87451
v -60.422428 115.058388 79.331139 0.341176 0.776471 0.87451
v -80.917763 92.270302 79.331139 0.341176 0.776471 0.87451
v -80.917763 92.270302 106.077065 0.341176 0.776471 0.87451
v 105.327339 -108.31543 106.077065 0.341176 0.776471 0.87451
v 132.831711 -108.31543 106.077065 0.341176 0.776471 0.87451
v 105.327339 -20.43222 106.077065 0.341176 0.776471 0.87451
v 132.831711 11.648941 106.077065 0.341176 0.776471 0.87451
v 92.320518 11.640228 106.077065 0.341176 0.776471 0.87451
v 39.683002 179.726349 53.701077 0.341176 0.776471 0.87451
v 53.465698 164.627274 53.701077 0.341176 0.776471 0.87451
v 60.797291 189.577347 53.701077 0.341176 0.776471 0.87451
v 60.797291 146.110855 53.701077 0.341176 0.776471 0.87451
v -60.056286 115.119415 106.077065 0.341176 0.776471 0.87451
v -60.422428 115.058388 79.331139 0.341176 0.776471 0.87451
v -80.917763 92.270302 106.077065 0.341176 0.776471 0.87451
v -92.311806 11.640228 106.077065 0.341176 0.776471 0.87451
v -132.822983 11.648941 106.077065 0.341176 0.776471 0.87451
v -105.318626 -20.43222 106.077065 0.341176 0.776471 0.87451
v -132.822983 -108.31543 106.077065 0.341176 0.776471 0.87451
v -105.318626 -108.31543 106.077065 0.341176 0.776471 0.87451
v -92.015404 64.242874 79.331139 0.341176 0.776471 0.87451
v -80.917763 92.270302 79.331139 0.341176 0.776471 0.87451
v -92.015404 115.119415 79.331139 0.341176 0.776471 0.87451
v -60.422428 115.058388 79.331139 0.341176 0.776471 0.87451
v -92.311806 11.640228 106.077065 0.341176 0.776471 0.87451
v -92.015404 11.631516 79.331139 0.341176 0.776471 0.87451
v -132.822983 11.648941 106.077065 0.341176 0.776471 0.87451
v -92.015404 11.631516 -79.322418 0.341176 0.776471 0.87451
v -132.822983 11.648941 -106.059631 0.341176 0.776471 0.87451
v 60.797291 114.988647 53.701077 0.341176 0.776471 0.87451
v 60.431149 115.058388 79.331139 0.341176 0.776471 0.87451
v 92.024117 115.119415 79.331139 0.341176 0.776471 0.87451
v -53.456982 164.627274 53.701077 0.341176 0.776471 0.87451
v -39.683002 179.726349 53.701077 0.341176 0.776471 0.87451
v -60.797291 189.577347 53.701077 0.341176 0.776471 0.87451
v -21.114286 189.577347 53.701077 0.341176 0.776471 0.87451
v 21.114286 189.577347 53.701077 0.341176 0.776471 0.87451
v -105.318626 -108.31543 -132.822983 0.341176 0.776471 0.87451
v 105.327339 -108.31543 -132.822983 0.341176 0.776471 0.87451
v -148.453842 -108.31543 -148.453842 0.341176 0.776471 0.87451
v 148.453842 -108.31543 -148.453842 0.341176 0.776471 0.87451
v -92.015404 115.119415 79.331139 0.341176 0.776471 0.87451
v -60.422428 115.058388 79.331139 0.341176 0.776471 0.87451
v -60.797291 114.988647 53.701077 0.341176 0.776471 0.87451
v -53.456982 164.627274 53.701077 0.341176 0.776471 0.87451
v -60.797291 189.577347 53.701077 0.341176 0.776471 0.87451
v -60.797291 146.110855 53.701077 0.341176 0.776471 0.87451
v 132.831711 11.648941 -106.059631 0.341176 0.776471 0.87451
v 92.320518 11.640228 -106.059631 0.341176 0.776471 0.87451
v 92.024117 11.631516 -79.322418 0.341176 0.776471 0.87451
v 92.024117 115.119415 -79.322418 0.341176 0.776471 0.87451
v 60.431149 115.058388 -79.322418 0.341176 0.776471 0.87451
v 60.797291 114.988647 -53.683643 0.341176 0.776471 0.87451
v 60.797291 114.988647 53.701077 0.341176 0.776471 0.87451
v 92.024117 115.119415 79.331139 0.341176 0.776471 0.87451
v 60.797291 114.988647 -53.683643 0.341176 0.776471 0.87451
v 92.024117 115.119415 -79.322418 0.341176 0.776471 0.87451
v 92.024117 11.631516 79.331139 0.341176 0.776471 0.87451
v 92.024117 64.242874 -79.322418 0.341176 0.776471 0.87451
v 92.024117 64.242874 79.331139 0.341176 0.776471 0.87451
v 92.024117 115.119415 -79.322418 0.341176 0.776471 0.87451
v 92.024117 115.119415 79.331139 0.341176 0.776471 0.87451
v -92.015404 11.631516 -79.322418 0.341176 0.776471 0.87451
v -92.311806 11.640228 -106.059631 0.341176 0.776471 0.87451
v -132.822983 11.648941 -106.059631 0.341176 0.776471 0.87451
v 60.797291 114.988647 53.701077 0.341176 0.776471 0.87451
v 60.797291 146.110855 -53.683643 0.341176 0.776471 0.87451
v 60.797291 146.110855 53.701077 0.341176 0.776471 0.87451
v 60.797291 189.577347 -53.683643 0.341176 0.776471 0.87451
v 60.797291 189.577347 53.701077 0.341176 0.776471 0.87451
v -60.797291 114.988647 -53.683643 0.341176 0.776471 0.87451
v -60.422428 115.058388 -79.322418 0.341176 0.776471 0.87451
v -92.015404 115.119415 -79.322418 0.341176 0.776471 0.87451
v 105.327339 -108.31543 106.077065 0.341176 0.776471 0.87451
v 105.327339 -108.31543 132.840424 0.341176 0.776471 0.87451
v 132.831711 -108.31543 106.077065 0.341176 0.776471 0.87451
v 148.453842 -108.31543 148.453842 0.341176 0.776471 0.87451
v 92.024117 11.631516 -79.322418 0.341176 0.776471 0.87451
v 132.831711 -108.31543 106.077065 0.341176 0.776471 0.87451
v 148.453842 -108.31543 148.453842 0.341176 0.776471 0.87451
v 132.831711 -108.31543 -106.059631 0.341176 0.776471 0.87451
v 148.453842 -108.31543 -148.453842 0.341176 0.776471 0.87451
v 132.831711 11.648941 106.077065 0.341176 0.776471 0.87451
v 132.831711 -108.31543 106.077065 0.341176 0.776471 0.87451
v 132.831711 11.648941 -106.059631 0.341176 0.776471 0.87451
v 132.831711 -108.31543 -106.059631 0.341176 0.776471 0.87451
v -60.797291 114.988647 53.701077 0.341176 0.776471 0.87451
v -60.797291 114.988647 -53.683643 0.341176 0.776471 0.87451
v -92.015404 115.119415 79.331139 0.341176 0.776471 0.87451
v -92.015404 115.119415 -79.322418 0.341176 0.776471 0.87451
v -92.015404 115.119415 79.331139 0.341176 0.776471 0.87451
v -92.015404 115.119415 -79.322418 0.341176 0.776471 0.87451
v -92.015404 64.242874 79.331139 0.341176 0.776471 0.87451
v -92.015404 64.242874 -79.322418 0.341176 0.776471 0.87451
v -92.015404 11.631516 79.331139 0.341176 0.776471 0.87451
v -92.015404 11.631516 -79.322418 0.341176 0.776471 0.87451
v -60.797291 189.577347 53.701077 0.341176 0.776471 0.87451
v -60.797291 189.577347 -53.683643 0.341176 0.776471 0.87451
v -60.797291 146.110855 53.701077 0.341176 0.776471 0.87451
v -60.797291 146.110855 -53.683643 0.341176 0.776471 0.87451
v -60.797291 114.988647 53.701077 0.341176 0.776471 0.87451
v -60.797291 114.988647 -53.683643 0.341176 0.776471 0.87451
v 60.797291 114.988647 -53.683643 0.341176 0.776471 0.87451
v 105.327339 -108.31543 -132.822983 0.341176 0.776471 0.87451
v 132.831711 -108.31543 -106.059631 0.341176 0.776471 0.87451
v 148.453842 -108.31543 -148.453842 0.341176 0.776471 0.87451
v -0.278967 247.794189 3.809638 0.341176 0.776471 0.87451
v -0.278967 239.442627 29.779688 0.341176 0.776471 0.87451
v 26.057228 239.442627 14.576007 0.341176 0.776471 0.87451
v -0.278967 239.442627 -31.035038 0.341176 0.776471 0.87451
v 3.565542 247.794189 -2.841973 0.341176 0.776471 0.87451
v 26.057228 239.442627 -15.831357 0.341176 0.776471 0.87451
v -26.606443 239.442627 14.576007 0.341176 0.776471 0.87451
v -4.114758 247.794189 -2.841973 0.341176 0.776471 0.87451
v -26.606443 239.442627 -15.831357 0.341176 0.776471 0.87451
v 3.565542 247.794189 -2.841973 0.341176 0.776471 0.87451
v -0.278967 247.794189 3.809638 0.341176 0.776471 0.87451
v 26.057228 239.442627 14.576007 0.341176 0.776471 0.87451
v -4.114758 247.794189 -2.841973 0.341176 0.776471 0.87451
v -26.606443 239.442627 14.576007 0.341176 0.776471 0.87451
v -0.278967 247.794189 3.809638 0.341176 0.776471 0.87451
v -0.278967 239.442627 -31.035038 0.341176 0.776471 0.87451
v -4.114758 247.794189 -2.841973 0.341176 0.776471 0.87451
v 3.565542 247.794189 -2.841973 0.341176 0.776471 0.87451
v 26.057228 239.442627 -15.831357 0.341176 0.776471 0.87451
v 3.565542 247.794189 -2.841973 0.341176 0.776471 0.87451
v 26.057228 239.442627 14.576007 0.341176 0.776471 0.87451
v 3.565542 247.794189 -2.841973 0.341176 0.776471 0.87451
v 3.565542 443.306213 -2.841973 0.341176 0.776471 0.87451
v -0.278967 247.794189 3.809638 0.341176 0.776471 0.87451
v -0.278967 443.306213 3.809638 0.341176 0.776471 0.87451
v -0.278967 247.794189 3.809638 0.341176 0.776471 0.87451
v -0.278967 443.306213 3.809638 0.341176 0.776471 0.87451
v -4.114758 247.794189 -2.841973 0.341176 0.776471 0.87451
v -4.114758 443.306213 -2.841973 0.341176 0.776471 0.87451
v -60.797291 189.577347 53.701077 0.341176 0.776471 0.87451
v -21.114286 189.577347 53.701077 0.341176 0.776471 0.87451
v -38.837387 189.577347 21.63735 0.341176 0.776471 0.87451
v -0.278967 189.577347 43.902374 0.341176 0.776471 0.87451
v -60.797291 189.577347 -53.683643 0.341176 0.776471 0.87451
v -38.837387 189.577347 -22.8927 0.341176 0.776471 0.87451
v -21.114286 189.577347 -53.683643 0.341176 0.776471 0.87451
v -0.278967 189.577347 -45.149006 0.341176 0.776471 0.87451
v -60.797291 189.577347 -53.683643 0.341176 0.776471 0.87451
v -60.797291 189.577347 53.701077 0.341176 0.776471 0.87451
v -38.837387 189.577347 -22.8927 0.341176 0.776471 0.87451
v -38.837387 189.577347 21.63735 0.341176 0.776471 0.87451
v 38.28817 189.577347 21.63735 0.341176 0.776471 0.87451
v 60.797291 189.577347 53.701077 0.341176 0.776471 0.87451
v 38.28817 189.577347 -22.8927 0.341176 0.776471 0.87451
v 60.797291 189.577347 -53.683643 0.341176 0.776471 0.87451
v 38.28817 189.577347 21.63735 0.341176 0.776471 0.87451
v 21.114286 189.577347 53.701077 0.341176 0.776471 0.87451
v -0.278967 247.794189 3.809638 0.341176 0.776471 0.87451
v -26.606443 239.442627 14.576007 0.341176 0.776471 0.87451
v -0.278967 239.442627 29.779688 0.341176 0.776471 0.87451
v -26.606443 239.442627 -15.831357 0.341176 0.776471 0.87451
v -4.114758 247.794189 -2.841973 0.341176 0.776471 0.87451
v -0.278967 239.442627 -31.035038 0.341176 0.776471 0.87451
v 3.565542 443.306213 -2.841973 0.341176 0.776471 0.87451
v -4.114758 443.306213 -2.841973 0.341176 0.776471 0.87451
v -0.278967 443.306213 3.809638 0.341176 0.776471 0.87451
v -0.278967 189.577347 43.902374 0.341176 0.776471 0.87451
v 0.0 192.99469 53.701077 0.341176 0.776471 0.87451
v 21.114286 189.577347 53.701077 0.341176 0.776471 0.87451
v 38.28817 189.577347 -22.8927 0.341176 0.776471 0.87451
v 21.114286 189.577347 -53.683643 0.341176 0.776471 0.87451
v 0.0 192.99469 53.701077 0.341176 0.776471 0.87451
v -0.278967 189.577347 43.902374 0.341176 0.776471 0.87451
v -21.114286 189.577347 53.701077 0.341176 0.776471 0.87451
v -0.278967 189.577347 -45.149006 0.341176 0.776471 0.87451
v 0.0 192.99469 -53.683643 0.341176 0.776471 0.87451
v -21.114286 189.577347 -53.683643 0.341176 0.776471 0.87451
v 0.0 192.99469 -53.683643 0.341176 0.776471 0.87451
v -0.278967 189.577347 -45.149006 0.341176 0.776471 0.87451
v 21.114286 189.577347 -53.683643 0.341176 0.776471 0.87451
v -148.453842 -128.0 148.453842 0.341176 0.776471 0.87451
v -148.453842 -128.0 -148.453842 0.341176 0.776471 0.87451
v 148.453842 -128.0 148.453842 0.341176 0.776471 0.87451
v 148.453842 -128.0 148.453842 0.341176 0.776471 0.87451
v -148.453842 -128.0 -148.453842 0.341176 0.776471 0.87451
v 148.453842 -128.0 -148.453842 0.341176 0.776471 0.87451
vt 0.8989 0.894403
vt 0.822097 0.941607
vt 0.734896 0.794303
vt 0.717306 0.9705
vt 0.607499 0.803995
vt 0.608106 0.9769
vt 0.717306 0.9705
vt 0.614902 0.336298
vt 0.659393 0.423103
vt 0.614902 0.697197
vt 0.659393 0.610603
vt 0.736507 0.665606
vt 0.735701 0.610095
vt 0.734896 0.794303
vt 0.822097 0.941607
vt 0.8989 0.894403
vt 0.959794 0.642802
vt 0.874006 0.731205
vt 0.954807 0.822602
vt 0.954807 0.822602
vt 0.874006 0.731205
vt 0.959794 0.642802
vt 0.736507 0.665606
vt 0.614902 0.697197
vt 0.659393 0.610603
vt 0.614902 0.336298
vt 0.659393 0.423103
vt 0.260798 0.074694
vt 0.260798 0.184105
vt 0.077495 0.074694
vt 0.077495 0.184105
vt 0.260798 0.074694
vt 0.260798 0.184105
vt 0.077495 0.074694
vt 0.077495 0.184105
vt 0.260798 0.074694
vt 0.260798 0.184105
vt 0.077495 0.074694
vt 0.077495 0.184105
vt 0.168299 0.184303
vt 0.075305 0.074906
vt 0.075305 0.184303
vt 0.168299 0.074906
vt 0.168299 0.184303
vt 0.168299 0.184303
vt 0.261293 0.074906
vt 0.261293 0.184303
vt 0.354301 0.074906
vt 0.354301 0.184303
vt 0.447295 0.074906
vt 0.447295 0.184303
vt 0.540303 0.074906
vt 0.540303 0.184303
vt 0.205994 0.503707
vt 0.117507 0.454596
vt 0.069597 0.503905
vt 0.069597 0.394196
vt 0.614902 0.697197
vt 0.738598 0.609402
vt 0.614902 0.082606
vt 0.738598 0.1704
vt 0.738598 0.082606
vt 0.944507 0.077505
vt 0.944507 0.367705
vt 0.808506 0.077505
vt 0.808506 0.367705
vt 0.436996 0.268806
vt 0.532406 0.268806
vt 0.436996 0.400102
vt 0.532406 0.400102
vt 0.446193 0.505303
vt 0.523194 0.505303
vt 0.436996 0.268806
vt 0.532406 0.268806
vt 0.436996 0.400102
vt 0.532406 0.400102
vt 0.446193 0.505303
vt 0.523194 0.505303
vt 0.436996 0.268806
vt 0.532406 0.268806
vt 0.436996 0.400102
vt 0.532406 0.400102
vt 0.446193 0.505303
vt 0.523194 0.505303
vt 0.436996 0.268806
vt 0.532406 0.268806
vt 0.436996 0.400102
vt 0.532406 0.400102
vt 0.446193 0.505303
vt 0.523194 0.505303
vt 0.168299 0.074906
vt 0.447295 0.184303
vt 0.540303 0.184303
vt 0.447295 0.074906
vt 0.540303 0.074906
vt 0.354301 0.184303
vt 0.261293 0.074906
vt 0.261293 0.184303
vt 0.168299 0.074906
vt 0.168299 0.184303
vt 0.354301 0.074906
vt 0.168299 0.074906
vt 0.2966 0.945704
vt 0.209794 0.930897
vt 0.387207 0.930897
vt 0.140296 0.891507
vt 0.458895 0.891507
vt 0.088896 0.823902
vt 0.5085 0.823902
vt 0.062307 0.751903
vt 0.5316 0.751903
vt 0.062307 0.580397
vt 0.5316 0.580397
vt 0.168299 0.184303
vt 0.075305 0.074906
vt 0.075305 0.184303
vt 0.168299 0.074906
vt 0.168299 0.184303
vt 0.168299 0.184303
vt 0.261194 0.074906
vt 0.261293 0.184303
vt 0.354301 0.074906
vt 0.354301 0.184303
vt 0.447295 0.074906
vt 0.447295 0.184303
vt 0.540303 0.074906
vt 0.540303 0.184303
vt 0.168299 0.074906
vt 0.540303 0.184303
vt 0.447295 0.074906
vt 0.447295 0.184303
vt 0.354301 0.074906
vt 0.354301 0.184303
vt 0.540303 0.074906
vt 0.168299 0.184303
vt 0.261293 0.184303
vt 0.168299 0.074906
vt 0.261194 0.074906
vt 0.168299 0.074906
vt 0.354301 0.184303
vt 0.447295 0.184303
vt 0.447295 0.074906
vt 0.168299 0.184303
vt 0.075305 0.074906
vt 0.075305 0.184303
vt 0.168299 0.074906
vt 0.168299 0.184303
vt 0.261293 0.074906
vt 0.261293 0.184303
vt 0.354301 0.074906
vt 0.354301 0.184303
vt 0.447295 0.074906
vt 0.447295 0.184303
vt 0.540303 0.074906
vt 0.540402 0.184303
vt 0.540402 0.184303
vt 0.447295 0.074906
vt 0.447295 0.184303
vt 0.354301 0.074906
vt 0.354301 0.184303
vt 0.261293 0.074906
vt 0.261293 0.184303
vt 0.168299 0.074906
vt 0.168299 0.184303
vt 0.354301 0.074906
vt 0.354301 0.184303
vt 0.447295 0.074906
vt 0.540303 0.074906
vt 0.607103 0.975501
vt 0.717504 0.969793
vt 0.6061 0.8035
vt 0.822295 0.941296
vt 0.7358 0.7945
vt 0.896201 0.895604
vt 0.954397 0.822899
vt 0.168299 0.074906
vt 0.954397 0.822899
vt 0.896201 0.895604
vt 0.7358 0.7945
vt 0.822295 0.941296
vt 0.717504 0.969793
vt 0.9605 0.675199
vt 0.9605 0.675199
vt 0.261293 0.184303
vt 0.354301 0.184303
vt 0.354301 0.074906
vt 0.188404 0.259396
vt 0.069597 0.259396
vt 0.188404 0.434703
vt 0.069597 0.503905
vt 0.244494 0.503905
vt 0.160797 0.482599
vt 0.101202 0.450103
vt 0.069597 0.503905
vt 0.069597 0.410204
vt 0.261194 0.074906
vt 0.261293 0.184303
vt 0.354301 0.074906
vt 0.244494 0.503905
vt 0.069597 0.503905
vt 0.188404 0.434703
vt 0.069597 0.259396
vt 0.188404 0.259396
vt 0.069597 0.394196
vt 0.117507 0.454596
vt 0.069597 0.503905
vt 0.205994 0.503707
vt 0.738598 0.082606
vt 0.738598 0.1704
vt 0.614902 0.082606
vt 0.738598 0.609402
vt 0.614902 0.697197
vt 0.738598 0.1704
vt 0.738598 0.082606
vt 0.614902 0.082606
vt 0.101202 0.450103
vt 0.160797 0.482599
vt 0.069597 0.503905
vt 0.240905 0.503905
vt 0.240905 0.503905
vt 0.659393 0.423103
vt 0.659393 0.610603
vt 0.614902 0.336298
vt 0.614902 0.697197
vt 0.614902 0.082606
vt 0.738598 0.082606
vt 0.738598 0.1704
vt 0.101202 0.450103
vt 0.069597 0.503905
vt 0.069597 0.410204
vt 0.614902 0.697197
vt 0.738598 0.697197
vt 0.738598 0.609402
vt 0.614902 0.697197
vt 0.738598 0.697197
vt 0.738598 0.609402
vt 0.738598 0.1704
vt 0.614902 0.082606
vt 0.738598 0.609402
vt 0.614902 0.697197
vt 0.808506 0.367705
vt 0.876506 0.077505
vt 0.876506 0.367705
vt 0.944507 0.077505
vt 0.944507 0.367705
vt 0.738598 0.609402
vt 0.738598 0.697197
vt 0.614902 0.697197
vt 0.808506 0.367705
vt 0.876506 0.077505
vt 0.876506 0.367705
vt 0.944507 0.077505
vt 0.944507 0.367705
vt 0.738598 0.609402
vt 0.738598 0.697197
vt 0.614902 0.697197
vt 0.735701 0.610095
vt 0.659393 0.610603
vt 0.736507 0.665606
vt 0.614902 0.697197
vt 0.808506 0.077505
vt 0.659393 0.423103
vt 0.614902 0.336298
vt 0.659393 0.610603
vt 0.614902 0.697197
vt 0.944507 0.367705
vt 0.808506 0.367705
vt 0.944507 0.077505
vt 0.808506 0.077505
vt 0.738598 0.1704
vt 0.738598 0.609402
vt 0.614902 0.082606
vt 0.614902 0.697197
vt 0.944507 0.077505
vt 0.944507 0.367705
vt 0.876506 0.077505
vt 0.876506 0.367705
vt 0.808506 0.077505
vt 0.808506 0.367705
vt 0.944507 0.077505
vt 0.944507 0.367705
vt 0.876506 0.077505
vt 0.876506 0.367705
vt 0.808506 0.077505
vt 0.808506 0.367705
vt 0.808506 0.077505
vt 0.736507 0.665606
vt 0.659393 0.610603
vt 0.614902 0.697197
vt 0.945906 0.559698
vt 0.945906 0.441103
vt 0.797796 0.510503
vt 0.797796 0.510503
vt 0.924303 0.590103
vt 0.797796 0.6494
vt 0.797796 0.510503
vt 0.924303 0.590103
vt 0.797796 0.6494
vt 0.924303 0.590103
vt 0.945906 0.559698
vt 0.797796 0.510503
vt 0.924303 0.590103
vt 0.797796 0.510503
vt 0.945906 0.559698
vt 0.797796 0.510503
vt 0.945906 0.559698
vt 0.924303 0.590103
vt 0.797796 0.6494
vt 0.924303 0.590103
vt 0.797796 0.510503
vt 0.380693 0.266898
vt 0.380693 0.449199
vt 0.276806 0.266898
vt 0.276806 0.449199
vt 0.380693 0.266898
vt 0.380693 0.449199
vt 0.276806 0.266898
vt 0.276806 0.449199
vt 0.614902 0.567794
vt 0.614902 0.450499
vt 0.745704 0.502096
vt 0.653007 0.388107
vt 0.614902 0.216304
vt 0.745704 0.274203
vt 0.614902 0.3258
vt 0.653007 0.388107
vt 0.614902 0.567794
vt 0.614902 0.216304
vt 0.707501 0.466902
vt 0.707501 0.321095
vt 0.707501 0.321095
vt 0.614902 0.216304
vt 0.707501 0.466902
vt 0.614902 0.567794
vt 0.745704 0.274203
vt 0.614902 0.3258
vt 0.945906 0.559698
vt 0.797796 0.510503
vt 0.945906 0.441103
vt 0.945906 0.441103
vt 0.945906 0.559698
vt 0.797796 0.510503
vt 0.327499 0.499101
vt 0.276806 0.449199
vt 0.380693 0.449199
vt 0.653007 0.388107
vt 0.614902 0.388107
vt 0.614902 0.3258
vt 0.745704 0.502096
vt 0.614902 0.450499
vt 0.614902 0.388107
vt 0.653007 0.388107
vt 0.614902 0.450499
vt 0.653007 0.388107
vt 0.614902 0.388107
vt 0.614902 0.3258
vt 0.614902 0.388107
vt 0.653007 0.388107
vt 0.614902 0.450499
vt 0.972693 0.051
vt 0.972693 0.951907
vt 0.508896 0.051
vt 0.508896 0.051
vt 0.972693 0.951907
vt 0.508896 0.951907
g top_4_part0
usemtl top_4_mat0
f 1/1 2/2 3/3
f 3/3 2/2 4/4
f 3/3 4/4 5/5
f 5/5 4/4 6/6
f 5/5 6/6 7/7
f 8/8 9/9 10/10
f 10/10 9/9 11/11
f 10/10 11/11 12/12
f 12/12 11/11 13/13
f 5/5 7/7 14/14
f 14/14 7/7 15/15
f 14/14 15/15 16/16
f 17/17 18/18 19/19
f 19/19 18/18 14/14
f 19/19 14/14 16/16
f 1/1 3/3 20/20
f 20/20 3/3 21/21
f 20/20 21/21 22/22
f 23/23 24/24 25/25
f 25/25 24/24 26/26
f 25/25 26/26 27/27
f 28/28 29/29 30/30
f 30/30 29/29 31/31
f 32/32 33/33 34/34
f 34/34 33/33 35/35
f 36/36 37/37 38/38
f 38/38 37/37 39/39
f 40/40 41/41 42/42
f 42/42 41/41 43/43
f 42/42 43/43 44/44
f 45/45 46/46 47/47
f 47/47 46/46 48/48
f 47/47 48/48 49/49
f 49/49 48/48 50/50
f 49/49 50/50 51/51
f 51/51 50/50 52/52
f 51/51 52/52 53/53
f 54/54 55/55 56/56
f 56/56 55/55 57/57
f 58/58 59/59 60/60
f 60/60 59/59 61/61
f 60/60 61/61 62/62
f 63/63 64/64 65/65
f 65/65 64/64 66/66
f 67/67 68/68 69/69
f 69/69 68/68 70/70
f 69/69 70/70 71/71
f 71/71 70/70 72/72
f 73/73 74/74 75/75
f 75/75 74/74 76/76
f 75/75 76/76 77/77
f 77/77 76/76 78/78
f 79/79 80/80 81/81
f 81/81 80/80 82/82
f 81/81 82/82 83/83
f 83/83 82/82 84/84
f 85/85 86/86 87/87
f 87/87 86/86 88/88
f 87/87 88/88 89/89
f 89/89 88/88 90/90
f 46/46 45/45 91/91
f 92/92 93/93 94/94
f 94/94 93/93 95/95
f 96/96 97/97 98/98
f 98/98 97/97 99/99
f 98/98 99/99 100/100
f 97/97 96/96 101/101
f 41/41 40/40 102/102
f 103/103 104/104 105/105
f 105/105 104/104 106/106
f 105/105 106/106 107/107
f 107/107 106/106 108/108
f 107/107 108/108 109/109
f 109/109 108/108 110/110
f 109/109 110/110 111/111
f 111/111 110/110 112/112
f 111/111 112/112 113/113
f 114/114 115/115 116/116
f 116/116 115/115 117/117
f 116/116 117/117 118/118
f 119/119 120/120 121/121
f 121/121 120/120 122/122
f 121/121 122/122 123/123
f 123/123 122/122 124/124
f 123/123 124/124 125/125
f 125/125 124/124 126/126
f 125/125 126/126 127/127
f 120/120 119/119 128/128
f 129/129 130/130 131/131
f 131/131 130/130 132/132
f 131/131 132/132 133/133
f 130/130 129/129 134/134
f 135/135 136/136 137/137
f 137/137 136/136 138/138
f 115/115 114/114 139/139
f 140/140 141/141 142/142
f 143/143 144/144 145/145
f 145/145 144/144 146/146
f 145/145 146/146 147/147
f 147/147 146/146 148/148
f 147/147 148/148 149/149
f 149/149 148/148 150/150
f 149/149 150/150 151/151
f 151/151 150/150 152/152
f 151/151 152/152 153/153
f 153/153 152/152 154/154
f 153/153 154/154 155/155
f 156/156 157/157 158/158
f 158/158 157/157 159/159
f 158/158 159/159 160/160
f 160/160 159/159 161/161
f 160/160 161/161 162/162
f 162/162 161/161 163/163
f 162/162 163/163 164/164
f 165/165 166/166 167/167
f 157/157 156/156 168/168
f 169/169 170/170 171/171
f 171/171 170/170 172/172
f 171/171 172/172 173/173
f 173/173 172/172 174/174
f 173/173 174/174 175/175
f 144/144 143/143 176/176
f 177/177 178/178 179/179
f 179/179 178/178 180/180
f 179/179 180/180 171/171
f 171/171 180/180 181/181
f 171/171 181/181 169/169
f 173/173 175/175 182/182
f 183/183 177/177 179/179
f 184/184 185/185 186/186
f 187/187 188/188 189/189
f 189/189 188/188 190/190
f 189/189 190/190 191/191
f 192/192 193/193 194/194
f 194/194 193/193 195/195
f 196/196 197/197 198/198
f 199/199 200/200 201/201
f 201/201 200/200 202/202
f 201/201 202/202 203/203
f 204/204 205/205 206/206
f 206/206 205/205 207/207
f 208/208 209/209 210/210
f 210/210 209/209 211/211
f 210/210 211/211 212/212
f 213/213 214/214 215/215
f 216/216 217/217 218/218
f 218/218 217/217 219/219
f 220/220 192/192 194/194
f 221/221 222/222 223/223
f 223/223 222/222 224/224
f 225/225 226/226 227/227
f 228/228 229/229 230/230
f 231/231 232/232 233/233
f 234/234 235/235 236/236
f 237/237 238/238 239/239
f 239/239 238/238 240/240
f 241/241 242/242 243/243
f 243/243 242/242 244/244
f 243/243 244/244 245/245
f 246/246 247/247 248/248
f 249/249 250/250 251/251
f 251/251 250/250 252/252
f 251/251 252/252 253/253
f 254/254 255/255 256/256
f 257/257 258/258 259/259
f 259/259 258/258 260/260
f 242/242 241/241 261/261
f 262/262 263/263 264/264
f 264/264 263/263 265/265
f 266/266 267/267 268/268
f 268/268 267/267 269/269
f 270/270 271/271 272/272
f 272/272 271/271 273/273
f 274/274 275/275 276/276
f 276/276 275/275 277/277
f 276/276 277/277 278/278
f 278/278 277/277 279/279
f 280/280 281/281 282/282
f 282/282 281/281 283/283
f 282/282 283/283 284/284
f 284/284 283/283 285/285
f 250/250 249/249 286/286
f 287/287 288/288 289/289
f 290/290 291/291 292/292
f 293/293 294/294 295/295
f 296/296 297/297 298/298
f 299/299 300/300 301/301
f 302/302 303/303 304/304
f 305/305 306/306 307/307
f 308/308 309/309 310/310
f 311/311 312/312 313/313
f 313/313 312/312 314/314
f 315/315 316/316 317/317
f 317/317 316/316 318/318
f 319/319 320/320 321/321
f 321/321 320/320 322/322
f 323/323 324/324 325/325
f 325/325 324/324 326/326
f 327/327 328/328 329/329
f 329/329 328/328 330/330
f 331/331 332/332 333/333
f 333/333 332/332 334/334
f 332/332 335/335 336/336
f 336/336 335/335 322/322
f 337/337 338/338 339/339
f 340/340 341/341 342/342
f 343/343 344/344 345/345
f 346/346 347/347 348/348
f 326/326 349/349 350/350
f 350/350 349/349 334/334
f 351/351 352/352 353/353
f 354/354 355/355 356/356
f 357/357 358/358 359/359
g top_4_part1
usemtl top_4_mat1
f 360/360 361/361 362/362
f 363/363 364/364 365/365
