# top_bonus_4 (M3G user id 43) extracted by M3gToObj
#@default_color FF57C6DF
mtllib top_bonus_4.mtl
o top_bonus_4
v 139.934265 -50.254898 -45.135551 0.341176 0.776471 0.87451
v 116.337814 -50.254898 -47.962646 0.341176 0.776471 0.87451
v 139.787292 -50.254898 45.597404 0.341176 0.776471 0.87451
v 116.176865 -50.254898 48.347523 0.341176 0.776471 0.87451
v -88.46563 121.295189 36.472324 0.341176 0.776471 0.87451
v -88.46563 85.991493 36.472324 0.341176 0.776471 0.87451
v -36.766178 121.295189 88.339722 0.341176 0.776471 0.87451
v -36.766178 85.991493 88.339722 0.341176 0.776471 0.87451
v -176.721375 109.90284 36.346367 0.341176 0.776471 0.87451
v -176.721375 121.295189 36.346367 0.341176 0.776471 0.87451
v -176.595428 109.90284 -36.892189 0.341176 0.776471 0.87451
v -176.595428 121.295189 -36.892189 0.341176 0.776471 0.87451
v 176.721497 109.90284 -36.346367 0.341176 0.776471 0.87451
v 176.721497 121.295189 -36.346367 0.341176 0.776471 0.87451
v 176.59552 109.90284 36.892189 0.341176 0.776471 0.87451
v 176.59552 121.295189 36.892189 0.341176 0.776471 0.87451
v -36.766178 121.295189 88.339722 0.341176 0.776471 0.87451
v -36.892136 121.295189 176.51149 0.341176 0.776471 0.87451
v 36.472378 121.295189 88.465683 0.341176 0.776471 0.87451
v 36.33942 121.295189 176.644455 0.341176 0.776471 0.87451
v -88.339668 121.295189 -36.766232 0.341176 0.776471 0.87451
v -176.595428 121.295189 -36.892189 0.341176 0.776471 0.87451
v -88.46563 121.295189 36.472324 0.341176 0.776471 0.87451
v -176.721375 121.295189 36.346367 0.341176 0.776471 0.87451
v 36.766285 121.295189 -88.339722 0.341176 0.776471 0.87451
v 36.892242 121.295189 -176.51149 0.341176 0.776471 0.87451
v -36.472271 121.295189 -88.465683 0.341176 0.776471 0.87451
v -36.346313 121.295189 -176.644455 0.341176 0.776471 0.87451
v 88.339775 121.295189 36.766232 0.341176 0.776471 0.87451
v 176.59552 121.295189 36.892189 0.341176 0.776471 0.87451
v 88.45874 121.295189 -36.472324 0.341176 0.776471 0.87451
v 176.721497 121.295189 -36.346367 0.341176 0.776471 0.87451
v 36.472378 85.991493 88.465683 0.341176 0.776471 0.87451
v 36.33942 109.90284 176.644455 0.341176 0.776471 0.87451
v -36.766178 85.991493 88.339722 0.341176 0.776471 0.87451
v -36.892136 109.90284 176.51149 0.341176 0.776471 0.87451
v -88.46563 85.991493 36.472324 0.341176 0.776471 0.87451
v -176.721375 109.90284 36.346367 0.341176 0.776471 0.87451
v -88.339668 85.991493 -36.766232 0.341176 0.776471 0.87451
v -176.595428 109.90284 -36.892189 0.341176 0.776471 0.87451
v 88.45874 85.991493 -36.472324 0.341176 0.776471 0.87451
v 176.721497 109.90284 -36.346367 0.341176 0.776471 0.87451
v 88.339775 85.991493 36.766232 0.341176 0.776471 0.87451
v 176.59552 109.90284 36.892189 0.341176 0.776471 0.87451
v 88.339775 85.991493 36.766232 0.341176 0.776471 0.87451
v 176.59552 109.90284 36.892189 0.341176 0.776471 0.87451
v 88.339775 121.295189 36.766232 0.341176 0.776471 0.87451
v 176.59552 121.295189 36.892189 0.341176 0.776471 0.87451
v 36.472378 121.295189 88.465683 0.341176 0.776471 0.87451
v 36.33942 121.295189 176.644455 0.341176 0.776471 0.87451
v 36.472378 85.991493 88.465683 0.341176 0.776471 0.87451
v 36.33942 109.90284 176.644455 0.341176 0.776471 0.87451
v -36.766178 85.991493 88.339722 0.341176 0.776471 0.87451
v -36.892136 109.90284 176.51149 0.341176 0.776471 0.87451
v -36.766178 121.295189 88.339722 0.341176 0.776471 0.87451
v -36.892136 121.295189 176.51149 0.341176 0.776471 0.87451
v -88.46563 121.295189 36.472324 0.341176 0.776471 0.87451
v -176.721375 121.295189 36.346367 0.341176 0.776471 0.87451
v -88.46563 85.991493 36.472324 0.341176 0.776471 0.87451
v -176.721375 109.90284 36.346367 0.341176 0.776471 0.87451
v -36.472271 121.295189 -88.465683 0.341176 0.776471 0.87451
v -36.346313 121.295189 -176.644455 0.341176 0.776471 0.87451
v -36.472271 85.991493 -88.465683 0.341176 0.776471 0.87451
v -36.346313 109.90284 -176.644455 0.341176 0.776471 0.87451
v 36.766285 85.991493 -88.339722 0.341176 0.776471 0.87451
v 36.892242 109.90284 -176.51149 0.341176 0.776471 0.87451
v 36.766285 121.295189 -88.339722 0.341176 0.776471 0.87451
v 36.892242 121.295189 -176.51149 0.341176 0.776471 0.87451
v 88.339775 121.295189 36.766232 0.341176 0.776471 0.87451
v 71.132286 149.545151 29.600525 0.341176 0.776471 0.87451
v 36.472378 121.295189 88.465683 0.341176 0.776471 0.87451
v 29.369652 149.545151 71.230202 0.341176 0.776471 0.87451
v 36.472378 121.295189 88.465683 0.341176 0.776471 0.87451
v 29.369652 149.545151 71.230202 0.341176 0.776471 0.87451
v -36.766178 121.295189 88.339722 0.341176 0.776471 0.87451
v -29.600471 149.545151 71.132233 0.341176 0.776471 0.87451
v -36.766178 121.295189 88.339722 0.341176 0.776471 0.87451
v -29.600471 149.545151 71.132233 0.341176 0.776471 0.87451
v -88.46563 121.295189 36.472324 0.341176 0.776471 0.87451
v -71.230148 149.545151 29.369598 0.341176 0.776471 0.87451
v -88.46563 121.295189 36.472324 0.341176 0.776471 0.87451
v -71.230148 149.545151 29.369598 0.341176 0.776471 0.87451
v -88.339668 121.295189 -36.766232 0.341176 0.776471 0.87451
v -71.132179 149.545151 -29.600525 0.341176 0.776471 0.87451
v 88.45874 121.295189 -36.472324 0.341176 0.776471 0.87451
v 71.230255 149.545151 -29.369598 0.341176 0.776471 0.87451
v 88.339775 121.295189 36.766232 0.341176 0.776471 0.87451
v 71.132286 149.545151 29.600525 0.341176 0.776471 0.87451
v 71.132286 149.545151 29.600525 0.341176 0.776471 0.87451
v 42.315506 172.931671 17.606363 0.341176 0.776471 0.87451
v 29.369652 149.545151 71.230202 0.341176 0.776471 0.87451
v 17.466463 172.931671 42.371437 0.341176 0.776471 0.87451
v 29.369652 149.545151 71.230202 0.341176 0.776471 0.87451
v 17.466463 172.931671 42.371437 0.341176 0.776471 0.87451
v -29.600471 149.545151 71.132233 0.341176 0.776471 0.87451
v -17.60631 172.931671 42.315453 0.341176 0.776471 0.87451
v -29.600471 149.545151 71.132233 0.341176 0.776471 0.87451
v -17.60631 172.931671 42.315453 0.341176 0.776471 0.87451
v -71.230148 149.545151 29.369598 0.341176 0.776471 0.87451
v -42.371384 172.931671 17.46641 0.341176 0.776471 0.87451
v -71.230148 149.545151 29.369598 0.341176 0.776471 0.87451
v -42.371384 172.931671 17.46641 0.341176 0.776471 0.87451
v -71.132179 149.545151 -29.600525 0.341176 0.776471 0.87451
v -42.315399 172.931671 -17.606363 0.341176 0.776471 0.87451
v -71.132179 149.545151 -29.600525 0.341176 0.776471 0.87451
v -42.315399 172.931671 -17.606363 0.341176 0.776471 0.87451
v -29.369545 149.545151 -71.230202 0.341176 0.776471 0.87451
v -17.466356 172.931671 -42.371437 0.341176 0.776471 0.87451
v -29.369545 149.545151 -71.230202 0.341176 0.776471 0.87451
v -17.466356 172.931671 -42.371437 0.341176 0.776471 0.87451
v 29.600578 149.545151 -71.132233 0.341176 0.776471 0.87451
v 17.606417 172.931671 -42.315453 0.341176 0.776471 0.87451
v 29.600578 149.545151 -71.132233 0.341176 0.776471 0.87451
v 17.606417 172.931671 -42.315453 0.341176 0.776471 0.87451
v 71.230255 149.545151 -29.369598 0.341176 0.776471 0.87451
v 42.37149 172.931671 -17.46641 0.341176 0.776471 0.87451
v 71.230255 149.545151 -29.369598 0.341176 0.776471 0.87451
v 42.37149 172.931671 -17.46641 0.341176 0.776471 0.87451
v 71.132286 149.545151 29.600525 0.341176 0.776471 0.87451
v 42.315506 172.931671 17.606363 0.341176 0.776471 0.87451
v -5.857072 330.591187 0.0 0.341176 0.776471 0.87451
v -5.857072 184.883835 0.0 0.341176 0.776471 0.87451
v 0.000053 330.591187 5.857125 0.341176 0.776471 0.87451
v 0.000053 184.883835 5.857125 0.341176 0.776471 0.87451
v 0.000053 330.591187 5.857125 0.341176 0.776471 0.87451
v 0.000053 184.883835 5.857125 0.341176 0.776471 0.87451
v 5.857179 330.591187 0.0 0.341176 0.776471 0.87451
v 5.857179 184.883835 0.0 0.341176 0.776471 0.87451
v 0.000053 330.591187 5.857125 0.341176 0.776471 0.87451
v 5.857179 330.591187 0.0 0.341176 0.776471 0.87451
v -5.857072 330.591187 0.0 0.341176 0.776471 0.87451
v 0.000053 330.591187 -5.857125 0.341176 0.776471 0.87451
v -148.450439 -128.0 148.450485 0.341176 0.776471 0.87451
v -148.450439 -128.0 -148.450485 0.341176 0.776471 0.87451
v 148.450531 -128.0 148.450485 0.341176 0.776471 0.87451
v 148.450531 -128.0 148.450485 0.341176 0.776471 0.87451
v -148.450439 -128.0 -148.450485 0.341176 0.776471 0.87451
v 148.450531 -128.0 -148.450485 0.341176 0.776471 0.87451
v 88.339775 85.991493 36.766232 0.341176 0.776471 0.87451
v 44.624767 31.471947 108.234352 0.341176 0.776471 0.87451
v 108.087456 31.471947 44.981602 0.341176 0.776471 0.87451
v 47.9627 -50.254898 116.337761 0.341176 0.776471 0.87451
v 116.176865 -50.254898 48.347523 0.341176 0.776471 0.87451
v 47.9627 -95.369446 116.337761 0.341176 0.776471 0.87451
v 116.176865 -95.369446 48.347523 0.341176 0.776471 0.87451
v 36.472378 85.991493 88.465683 0.341176 0.776471 0.87451
v 36.472378 85.991493 88.465683 0.341176 0.776471 0.87451
v -44.981548 31.471947 108.087402 0.341176 0.776471 0.87451
v 44.624767 31.471947 108.234352 0.341176 0.776471 0.87451
v -48.347469 -50.254898 116.176811 0.341176 0.776471 0.87451
v 47.9627 -50.254898 116.337761 0.341176 0.776471 0.87451
v -36.766178 85.991493 88.339722 0.341176 0.776471 0.87451
v -36.766178 85.991493 88.339722 0.341176 0.776471 0.87451
v -108.234299 31.471947 44.624714 0.341176 0.776471 0.87451
v -44.981548 31.471947 108.087402 0.341176 0.776471 0.87451
v -116.337708 -50.254898 47.962646 0.341176 0.776471 0.87451
v -48.347469 -50.254898 116.176811 0.341176 0.776471 0.87451
v -116.337708 -95.369446 47.962646 0.341176 0.776471 0.87451
v -48.347469 -95.369446 116.176811 0.341176 0.776471 0.87451
v -88.46563 85.991493 36.472324 0.341176 0.776471 0.87451
v -88.46563 85.991493 36.472324 0.341176 0.776471 0.87451
v -108.087349 31.471947 -44.981602 0.341176 0.776471 0.87451
v -108.234299 31.471947 44.624714 0.341176 0.776471 0.87451
v -116.176758 -50.254898 -48.347523 0.341176 0.776471 0.87451
v -116.337708 -50.254898 47.962646 0.341176 0.776471 0.87451
v -88.339668 85.991493 -36.766232 0.341176 0.776471 0.87451
v 88.45874 85.991493 -36.472324 0.341176 0.776471 0.87451
v 108.087456 31.471947 44.981602 0.341176 0.776471 0.87451
v 108.234406 31.471947 -44.624714 0.341176 0.776471 0.87451
v 116.176865 -50.254898 48.347523 0.341176 0.776471 0.87451
v 116.337814 -50.254898 -47.962646 0.341176 0.776471 0.87451
v 88.339775 85.991493 36.766232 0.341176 0.776471 0.87451
v 47.906719 -95.369446 148.534454 0.341176 0.776471 0.87451
v 45.135605 -50.254898 139.934204 0.341176 0.776471 0.87451
v -48.403454 -95.369446 148.373505 0.341176 0.776471 0.87451
v -45.597351 -50.254898 139.787247 0.341176 0.776471 0.87451
v -148.534393 -95.369446 47.906666 0.341176 0.776471 0.87451
v -139.941162 -50.254898 45.135551 0.341176 0.776471 0.87451
v -148.373444 -95.369446 -48.403507 0.341176 0.776471 0.87451
v -139.787201 -50.254898 -45.597404 0.341176 0.776471 0.87451
v 148.534515 -95.369446 -47.906666 0.341176 0.776471 0.87451
v 139.934265 -50.254898 -45.135551 0.341176 0.776471 0.87451
v 148.373566 -95.369446 48.403507 0.341176 0.776471 0.87451
v 139.787292 -50.254898 45.597404 0.341176 0.776471 0.87451
v -48.347469 -50.254898 116.176811 0.341176 0.776471 0.87451
v -45.597351 -50.254898 139.787247 0.341176 0.776471 0.87451
v 47.9627 -50.254898 116.337761 0.341176 0.776471 0.87451
v 45.135605 -50.254898 139.934204 0.341176 0.776471 0.87451
v -116.176758 -50.254898 -48.347523 0.341176 0.776471 0.87451
v -139.787201 -50.254898 -45.597404 0.341176 0.776471 0.87451
v -116.337708 -50.254898 47.962646 0.341176 0.776471 0.87451
v -139.941162 -50.254898 45.135551 0.341176 0.776471 0.87451
v 148.373566 -95.369446 48.403507 0.341176 0.776471 0.87451
v 116.176865 -50.254898 48.347523 0.341176 0.776471 0.87451
v 116.176865 -95.369446 48.347523 0.341176 0.776471 0.87451
v 116.176865 -50.254898 48.347523 0.341176 0.776471 0.87451
v 148.373566 -95.369446 48.403507 0.341176 0.776471 0.87451
v 139.787292 -50.254898 45.597404 0.341176 0.776471 0.87451
v 45.135605 -50.254898 139.934204 0.341176 0.776471 0.87451
v 47.9627 -95.369446 116.337761 0.341176 0.776471 0.87451
v 47.9627 -50.254898 116.337761 0.341176 0.776471 0.87451
v 47.9627 -95.369446 116.337761 0.341176 0.776471 0.87451
v 45.135605 -50.254898 139.934204 0.341176 0.776471 0.87451
v 47.906719 -95.369446 148.534454 0.341176 0.776471 0.87451
v -48.403454 -95.369446 148.373505 0.341176 0.776471 0.87451
v -48.347469 -50.254898 116.176811 0.341176 0.776471 0.87451
v -48.347469 -95.369446 116.176811 0.341176 0.776471 0.87451
v -48.347469 -50.254898 116.176811 0.341176 0.776471 0.87451
v -48.403454 -95.369446 148.373505 0.341176 0.776471 0.87451
v -45.597351 -50.254898 139.787247 0.341176 0.776471 0.87451
v -139.941162 -50.254898 45.135551 0.341176 0.776471 0.87451
v -116.337708 -95.369446 47.962646 0.341176 0.776471 0.87451
v -116.337708 -50.254898 47.962646 0.341176 0.776471 0.87451
v -116.337708 -95.369446 47.962646 0.341176 0.776471 0.87451
v -139.941162 -50.254898 45.135551 0.341176 0.776471 0.87451
v -148.534393 -95.369446 47.906666 0.341176 0.776471 0.87451
v -148.450439 -95.369446 148.450485 0.341176 0.776471 0.87451
v -148.450439 -128.0 148.450485 0.341176 0.776471 0.87451
v -48.403454 -95.369446 148.373505 0.341176 0.776471 0.87451
v 148.373566 -95.369446 48.403507 0.341176 0.776471 0.87451
v 116.176865 -95.369446 48.347523 0.341176 0.776471 0.87451
v 148.450531 -95.369446 148.450485 0.341176 0.776471 0.87451
v 47.9627 -95.369446 116.337761 0.341176 0.776471 0.87451
v 47.906719 -95.369446 148.534454 0.341176 0.776471 0.87451
v -48.403454 -95.369446 148.373505 0.341176 0.776471 0.87451
v -48.347469 -95.369446 116.176811 0.341176 0.776471 0.87451
v -148.450439 -95.369446 148.450485 0.341176 0.776471 0.87451
v -116.337708 -95.369446 47.962646 0.341176 0.776471 0.87451
v -148.534393 -95.369446 47.906666 0.341176 0.776471 0.87451
v 47.906719 -95.369446 148.534454 0.341176 0.776471 0.87451
v 148.450531 -128.0 148.450485 0.341176 0.776471 0.87451
v 148.450531 -95.369446 148.450485 0.341176 0.776471 0.87451
v 47.906719 -95.369446 148.534454 0.341176 0.776471 0.87451
v -148.450439 -128.0 148.450485 0.341176 0.776471 0.87451
v 148.450531 -128.0 148.450485 0.341176 0.776471 0.87451
v 116.337814 -95.369446 -47.962646 0.341176 0.776471 0.87451
v 148.450531 -95.369446 -148.450485 0.341176 0.776471 0.87451
v 48.347576 -95.369446 -116.176811 0.341176 0.776471 0.87451
v 48.403561 -95.369446 -148.373505 0.341176 0.776471 0.87451
v 47.906719 -95.369446 148.534454 0.341176 0.776471 0.87451
v -48.403454 -95.369446 148.373505 0.341176 0.776471 0.87451
v -148.450439 -128.0 148.450485 0.341176 0.776471 0.87451
v -148.373444 -95.369446 -48.403507 0.341176 0.776471 0.87451
v -116.176758 -95.369446 -48.347523 0.341176 0.776471 0.87451
v -148.450439 -95.369446 -148.450485 0.341176 0.776471 0.87451
v -47.962593 -95.369446 -116.337761 0.341176 0.776471 0.87451
v -47.906612 -95.369446 -148.534454 0.341176 0.776471 0.87451
v 148.534515 -95.369446 -47.906666 0.341176 0.776471 0.87451
v 148.450531 -95.369446 148.450485 0.341176 0.776471 0.87451
v 148.450531 -128.0 148.450485 0.341176 0.776471 0.87451
v 148.373566 -95.369446 48.403507 0.341176 0.776471 0.87451
v 148.373566 -95.369446 48.403507 0.341176 0.776471 0.87451
v 148.450531 -128.0 148.450485 0.341176 0.776471 0.87451
v 148.534515 -95.369446 -47.906666 0.341176 0.776471 0.87451
v 148.450531 -95.369446 -148.450485 0.341176 0.776471 0.87451
v 148.534515 -95.369446 -47.906666 0.341176 0.776471 0.87451
v 148.450531 -128.0 -148.450485 0.341176 0.776471 0.87451
v 148.534515 -95.369446 -47.906666 0.341176 0.776471 0.87451
v 148.450531 -128.0 148.450485 0.341176 0.776471 0.87451
v 148.450531 -128.0 -148.450485 0.341176 0.776471 0.87451
v -148.450439 -95.369446 -148.450485 0.341176 0.776471 0.87451
v -148.450439 -128.0 -148.450485 0.341176 0.776471 0.87451
v -148.373444 -95.369446 -48.403507 0.341176 0.776471 0.87451
v -148.450439 -95.369446 148.450485 0.341176 0.776471 0.87451
v -148.534393 -95.369446 47.906666 0.341176 0.776471 0.87451
v -148.450439 -128.0 148.450485 0.341176 0.776471 0.87451
v -148.373444 -95.369446 -48.403507 0.341176 0.776471 0.87451
v -148.450439 -128.0 -148.450485 0.341176 0.776471 0.87451
v -148.534393 -95.369446 47.906666 0.341176 0.776471 0.87451
v 88.339775 85.991493 36.766232 0.341176 0.776471 0.87451
v 88.339775 121.295189 36.766232 0.341176 0.776471 0.87451
v 36.472378 85.991493 88.465683 0.341176 0.776471 0.87451
v 36.472378 121.295189 88.465683 0.341176 0.776471 0.87451
v 36.33942 109.90284 176.644455 0.341176 0.776471 0.87451
v 36.33942 121.295189 176.644455 0.341176 0.776471 0.87451
v -36.892136 109.90284 176.51149 0.341176 0.776471 0.87451
v -36.892136 121.295189 176.51149 0.341176 0.776471 0.87451
v -148.534393 -95.369446 47.906666 0.341176 0.776471 0.87451
v -148.450439 -128.0 -148.450485 0.341176 0.776471 0.87451
v -148.450439 -128.0 148.450485 0.341176 0.776471 0.87451
v -5.857072 184.883835 0.0 0.341176 0.776471 0.87451
v -42.371384 172.931671 17.46641 0.341176 0.776471 0.87451
v -17.60631 172.931671 42.315453 0.341176 0.776471 0.87451
v 0.000053 184.883835 5.857125 0.341176 0.776471 0.87451
v -5.857072 184.883835 0.0 0.341176 0.776471 0.87451
v -17.60631 172.931671 42.315453 0.341176 0.776471 0.87451
v 0.000053 184.883835 5.857125 0.341176 0.776471 0.87451
v -17.60631 172.931671 42.315453 0.341176 0.776471 0.87451
v 17.466463 172.931671 42.371437 0.341176 0.776471 0.87451
v 0.000053 184.883835 5.857125 0.341176 0.776471 0.87451
v 17.466463 172.931671 42.371437 0.341176 0.776471 0.87451
v 5.857179 184.883835 0.0 0.341176 0.776471 0.87451
v 42.315506 172.931671 17.606363 0.341176 0.776471 0.87451
v 5.857179 184.883835 0.0 0.341176 0.776471 0.87451
v 17.466463 172.931671 42.371437 0.341176 0.776471 0.87451
v 5.857179 184.883835 0.0 0.341176 0.776471 0.87451
v 42.315506 172.931671 17.606363 0.341176 0.776471 0.87451
v 42.37149 172.931671 -17.46641 0.341176 0.776471 0.87451
v 5.857179 184.883835 0.0 0.341176 0.776471 0.87451
v 42.37149 172.931671 -17.46641 0.341176 0.776471 0.87451
v 0.000053 184.883835 -5.857125 0.341176 0.776471 0.87451
v 0.000053 184.883835 -5.857125 0.341176 0.776471 0.87451
v 42.37149 172.931671 -17.46641 0.341176 0.776471 0.87451
v 17.606417 172.931671 -42.315453 0.341176 0.776471 0.87451
v 0.000053 184.883835 -5.857125 0.341176 0.776471 0.87451
v 17.606417 172.931671 -42.315453 0.341176 0.776471 0.87451
v -17.466356 172.931671 -42.371437 0.341176 0.776471 0.87451
v -42.315399 172.931671 -17.606363 0.341176 0.776471 0.87451
v 0.000053 184.883835 -5.857125 0.341176 0.776471 0.87451
v -17.466356 172.931671 -42.371437 0.341176 0.776471 0.87451
v -42.315399 172.931671 -17.606363 0.341176 0.776471 0.87451
v -5.857072 184.883835 0.0 0.341176 0.776471 0.87451
v 0.000053 184.883835 -5.857125 0.341176 0.776471 0.87451
v -42.371384 172.931671 17.46641 0.341176 0.776471 0.87451
v -5.857072 184.883835 0.0 0.341176 0.776471 0.87451
v -42.315399 172.931671 -17.606363 0.341176 0.776471 0.87451
vt 0.539697 0.280595
vt 0.539697 0.058798
vt 0.277406 0.280595
vt 0.277406 0.058798
vt 0.0523 0.929201
vt 0.0523 0.829205
vt 0.259802 0.929201
vt 0.259802 0.829205
vt 0.259802 0.829205
vt 0.259802 0.929201
vt 0.0523 0.829205
vt 0.0523 0.929201
vt 0.259802 0.829205
vt 0.259802 0.929201
vt 0.0523 0.829205
vt 0.0523 0.929201
vt 0.277406 0.280595
vt 0.277406 0.058798
vt 0.539697 0.280595
vt 0.539697 0.058798
vt 0.277406 0.280595
vt 0.277406 0.058798
vt 0.539697 0.280595
vt 0.539697 0.058798
vt 0.277406 0.280595
vt 0.277406 0.058798
vt 0.539697 0.280595
vt 0.539697 0.058798
vt 0.277406 0.280595
vt 0.277406 0.058798
vt 0.539697 0.280595
vt 0.539697 0.058798
vt 0.600006 0.734604
vt 0.600006 0.934499
vt 0.4 0.734604
vt 0.4 0.934499
vt 0.600006 0.734604
vt 0.600006 0.934499
vt 0.4 0.734604
vt 0.4 0.934499
vt 0.600006 0.734604
vt 0.600006 0.934499
vt 0.4 0.734604
vt 0.4 0.934499
vt 0.600006 0.934499
vt 0.524804 0.734507
vt 0.4 0.934499
vt 0.4 0.734507
vt 0.4 0.934499
vt 0.4 0.734507
vt 0.600006 0.934499
vt 0.524804 0.734507
vt 0.600006 0.934499
vt 0.524804 0.734507
vt 0.4 0.934499
vt 0.4 0.734507
vt 0.4 0.934499
vt 0.4 0.734507
vt 0.600006 0.934499
vt 0.524804 0.734507
vt 0.4 0.934499
vt 0.4 0.734507
vt 0.600006 0.934499
vt 0.524804 0.734507
vt 0.600006 0.934499
vt 0.524804 0.734507
vt 0.4 0.934499
vt 0.4 0.734507
vt 0.539697 0.280595
vt 0.539697 0.391493
vt 0.277406 0.280595
vt 0.277406 0.391493
vt 0.539697 0.280595
vt 0.539697 0.391493
vt 0.277406 0.280595
vt 0.277406 0.391493
vt 0.539697 0.280595
vt 0.539697 0.391493
vt 0.277406 0.280595
vt 0.277406 0.391493
vt 0.539697 0.280595
vt 0.539697 0.391493
vt 0.277406 0.280595
vt 0.277406 0.391493
vt 0.539697 0.280595
vt 0.539697 0.391493
vt 0.277406 0.280595
vt 0.277406 0.391493
vt 0.539697 0.391493
vt 0.539697 0.502294
vt 0.277406 0.391493
vt 0.408593 0.502406
vt 0.539697 0.391493
vt 0.539697 0.502294
vt 0.277406 0.391493
vt 0.408593 0.502294
vt 0.539697 0.391493
vt 0.539697 0.502294
vt 0.277406 0.391493
vt 0.408593 0.502406
vt 0.539697 0.391493
vt 0.539697 0.502294
vt 0.277406 0.391493
vt 0.408593 0.502294
vt 0.539697 0.391493
vt 0.539697 0.502294
vt 0.277406 0.391493
vt 0.408593 0.502406
vt 0.539697 0.391493
vt 0.539697 0.502294
vt 0.277406 0.391493
vt 0.408593 0.502294
vt 0.539697 0.391493
vt 0.539697 0.502294
vt 0.277406 0.391493
vt 0.408593 0.502406
vt 0.539697 0.391493
vt 0.539697 0.502294
vt 0.277406 0.391493
vt 0.408593 0.502294
vt 0.259899 0.700007
vt 0.259899 0.560699
vt 0.328301 0.700007
vt 0.328301 0.560699
vt 0.259899 0.700007
vt 0.259899 0.560699
vt 0.328301 0.700007
vt 0.328301 0.560699
vt 0.259899 0.700007
vt 0.328301 0.700007
vt 0.259899 0.762805
vt 0.328301 0.762805
vt 0.9636 0.0488
vt 0.9636 0.9512
vt 0.510606 0.0488
vt 0.510606 0.0488
vt 0.9636 0.9512
vt 0.510606 0.9512
vt 0.618598 0.650905
vt 0.953699 0.464902
vt 0.618598 0.464902
vt 0.953699 0.209397
vt 0.618598 0.209397
vt 0.953699 0.068504
vt 0.618598 0.068504
vt 0.953699 0.650905
vt 0.618403 0.650905
vt 0.953699 0.464902
vt 0.618403 0.464902
vt 0.953699 0.209397
vt 0.618403 0.209397
vt 0.953699 0.650905
vt 0.618598 0.650905
vt 0.953699 0.464902
vt 0.618598 0.464902
vt 0.953699 0.209397
vt 0.618598 0.209397
vt 0.953699 0.068504
vt 0.618598 0.068504
vt 0.953699 0.650905
vt 0.618403 0.650905
vt 0.953699 0.464902
vt 0.618403 0.464902
vt 0.953699 0.209397
vt 0.618403 0.209397
vt 0.953699 0.650905
vt 0.618403 0.650905
vt 0.953699 0.464902
vt 0.618306 0.464902
vt 0.953797 0.209397
vt 0.618306 0.209397
vt 0.953797 0.650905
vt 0.259802 0.829205
vt 0.259802 0.929201
vt 0.0523 0.829205
vt 0.0523 0.929201
vt 0.259802 0.829205
vt 0.259802 0.929201
vt 0.0523 0.829205
vt 0.0523 0.929201
vt 0.259899 0.829205
vt 0.259899 0.929201
vt 0.0523 0.829205
vt 0.0523 0.929201
vt 0.277406 0.280595
vt 0.277406 0.058798
vt 0.539697 0.280595
vt 0.539697 0.058798
vt 0.539697 0.058798
vt 0.539697 0.280595
vt 0.277406 0.058798
vt 0.277406 0.280595
vt 0.600006 0.834503
vt 0.4 0.934499
vt 0.600006 0.934499
vt 0.4 0.934499
vt 0.600006 0.834503
vt 0.4 0.8346
vt 0.4 0.834503
vt 0.600006 0.934499
vt 0.4 0.934499
vt 0.600006 0.934499
vt 0.4 0.834503
vt 0.600006 0.834503
vt 0.600006 0.834503
vt 0.4 0.934499
vt 0.600006 0.934499
vt 0.4 0.934499
vt 0.600006 0.834503
vt 0.4 0.8346
vt 0.4 0.8346
vt 0.600006 0.934499
vt 0.4 0.934499
vt 0.600006 0.934499
vt 0.4 0.8346
vt 0.600006 0.834503
vt 0.058697 0.056698
vt 0.177799 0.056698
vt 0.058697 0.289606
vt 0.956105 0.923597
vt 0.8716 0.923597
vt 0.956202 0.693499
vt 0.692702 0.767296
vt 0.692605 0.693401
vt 0.692605 0.693401
vt 0.692702 0.767296
vt 0.956202 0.693499
vt 0.8716 0.923597
vt 0.956105 0.923597
vt 0.058697 0.522694
vt 0.177799 0.755504
vt 0.058697 0.755504
vt 0.058697 0.522694
vt 0.177799 0.056698
vt 0.177799 0.755504
vt 0.692702 0.767296
vt 0.956202 0.693499
vt 0.8716 0.923597
vt 0.956105 0.923597
vt 0.058697 0.522694
vt 0.058697 0.289606
vt 0.177799 0.056698
vt 0.956105 0.923597
vt 0.8716 0.923597
vt 0.956202 0.693499
vt 0.692702 0.767296
vt 0.692605 0.693401
vt 0.692605 0.693401
vt 0.058697 0.056601
vt 0.177799 0.056601
vt 0.058697 0.289606
vt 0.058697 0.289606
vt 0.177799 0.056601
vt 0.058697 0.522694
vt 0.058697 0.755699
vt 0.058697 0.522694
vt 0.177799 0.755699
vt 0.058697 0.522694
vt 0.177799 0.056601
vt 0.177799 0.755699
vt 0.058697 0.056698
vt 0.177799 0.056698
vt 0.058697 0.289606
vt 0.058697 0.755504
vt 0.058697 0.522694
vt 0.177799 0.755504
vt 0.058697 0.289606
vt 0.177799 0.056698
vt 0.058697 0.522694
vt 0.259802 0.829205
vt 0.259802 0.929201
vt 0.0523 0.829205
vt 0.0523 0.929201
vt 0.259802 0.829205
vt 0.259802 0.929201
vt 0.0523 0.829205
vt 0.0523 0.929201
vt 0.058697 0.522694
vt 0.177799 0.056698
vt 0.177799 0.755504
vt 0.474993 0.616906
vt 0.408593 0.502406
vt 0.539697 0.502294
vt 0.474993 0.616906
vt 0.453203 0.635206
vt 0.408593 0.502406
vt 0.474993 0.616906
vt 0.408593 0.502406
vt 0.539697 0.502294
vt 0.474993 0.616906
vt 0.539697 0.502294
vt 0.4967 0.635206
vt 0.539697 0.502294
vt 0.474993 0.616906
vt 0.408593 0.502406
vt 0.474993 0.616906
vt 0.408593 0.502406
vt 0.539697 0.502294
vt 0.474993 0.616906
vt 0.539697 0.502294
vt 0.4967 0.635206
vt 0.474993 0.616906
vt 0.408593 0.502406
vt 0.539697 0.502294
vt 0.474993 0.616906
vt 0.408593 0.502406
vt 0.539697 0.502294
vt 0.539697 0.502294
vt 0.474993 0.616906
vt 0.408593 0.502406
vt 0.408593 0.502406
vt 0.474993 0.616906
vt 0.453203 0.635206
vt 0.539697 0.502294
vt 0.474993 0.616906
vt 0.408593 0.502406
g top_bonus_4_part0
usemtl top_bonus_4_mat0
f 1/1 2/2 3/3
f 3/3 2/2 4/4
f 5/5 6/6 7/7
f 7/7 6/6 8/8
f 9/9 10/10 11/11
f 11/11 10/10 12/12
f 13/13 14/14 15/15
f 15/15 14/14 16/16
f 17/17 18/18 19/19
f 19/19 18/18 20/20
f 21/21 22/22 23/23
f 23/23 22/22 24/24
f 25/25 26/26 27/27
f 27/27 26/26 28/28
f 29/29 30/30 31/31
f 31/31 30/30 32/32
f 33/33 34/34 35/35
f 35/35 34/34 36/36
f 37/37 38/38 39/39
f 39/39 38/38 40/40
f 41/41 42/42 43/43
f 43/43 42/42 44/44
f 45/45 46/46 47/47
f 47/47 46/46 48/48
f 49/49 50/50 51/51
f 51/51 50/50 52/52
f 53/53 54/54 55/55
f 55/55 54/54 56/56
f 57/57 58/58 59/59
f 59/59 58/58 60/60
f 61/61 62/62 63/63
f 63/63 62/62 64/64
f 65/65 66/66 67/67
f 67/67 66/66 68/68
f 69/69 70/70 71/71
f 71/71 70/70 72/72
f 73/73 74/74 75/75
f 75/75 74/74 76/76
f 77/77 78/78 79/79
f 79/79 78/78 80/80
f 81/81 82/82 83/83
f 83/83 82/82 84/84
f 85/85 86/86 87/87
f 87/87 86/86 88/88
f 89/89 90/90 91/91
f 91/91 90/90 92/92
f 93/93 94/94 95/95
f 95/95 94/94 96/96
f 97/97 98/98 99/99
f 99/99 98/98 100/100
f 101/101 102/102 103/103
f 103/103 102/102 104/104
f 105/105 106/106 107/107
f 107/107 106/106 108/108
f 109/109 110/110 111/111
f 111/111 110/110 112/112
f 113/113 114/114 115/115
f 115/115 114/114 116/116
f 117/117 118/118 119/119
f 119/119 118/118 120/120
f 121/121 122/122 123/123
f 123/123 122/122 124/124
f 125/125 126/126 127/127
f 127/127 126/126 128/128
f 129/129 130/130 131/131
f 131/131 130/130 132/132
f 139/139 140/140 141/141
f 141/141 140/140 142/142
f 141/141 142/142 143/143
f 143/143 142/142 144/144
f 143/143 144/144 145/145
f 140/140 139/139 146/146
f 147/147 148/148 149/149
f 149/149 148/148 150/150
f 149/149 150/150 151/151
f 148/148 147/147 152/152
f 153/153 154/154 155/155
f 155/155 154/154 156/156
f 155/155 156/156 157/157
f 157/157 156/156 158/158
f 157/157 158/158 159/159
f 154/154 153/153 160/160
f 161/161 162/162 163/163
f 163/163 162/162 164/164
f 163/163 164/164 165/165
f 162/162 161/161 166/166
f 167/167 168/168 169/169
f 169/169 168/168 170/170
f 169/169 170/170 171/171
f 168/168 167/167 172/172
f 173/173 174/174 175/175
f 175/175 174/174 176/176
f 177/177 178/178 179/179
f 179/179 178/178 180/180
f 181/181 182/182 183/183
f 183/183 182/182 184/184
f 185/185 186/186 187/187
f 187/187 186/186 188/188
f 189/189 190/190 191/191
f 191/191 190/190 192/192
f 193/193 194/194 195/195
f 196/196 197/197 198/198
f 199/199 200/200 201/201
f 202/202 203/203 204/204
f 205/205 206/206 207/207
f 208/208 209/209 210/210
f 211/211 212/212 213/213
f 214/214 215/215 216/216
f 217/217 218/218 219/219
f 220/220 221/221 222/222
f 222/222 221/221 223/223
f 222/222 223/223 224/224
f 225/225 226/226 227/227
f 227/227 226/226 228/228
f 227/227 228/228 229/229
f 230/230 231/231 232/232
f 233/233 234/234 235/235
f 236/236 237/237 238/238
f 238/238 237/237 239/239
f 240/240 241/241 242/242
f 243/243 244/244 245/245
f 245/245 244/244 246/246
f 245/245 246/246 247/247
f 236/236 248/248 237/237
f 249/249 250/250 251/251
f 252/252 253/253 254/254
f 255/255 256/256 257/257
f 258/258 259/259 260/260
f 261/261 262/262 263/263
f 264/264 265/265 266/266
f 267/267 268/268 269/269
f 270/270 271/271 272/272
f 272/272 271/271 273/273
f 274/274 275/275 276/276
f 276/276 275/275 277/277
f 278/278 279/279 280/280
f 281/281 282/282 283/283
f 284/284 285/285 286/286
f 287/287 288/288 289/289
f 290/290 291/291 292/292
f 293/293 294/294 295/295
f 296/296 297/297 298/298
f 299/299 300/300 301/301
f 302/302 303/303 304/304
f 305/305 306/306 307/307
f 308/308 309/309 310/310
f 311/311 312/312 313/313
f 314/314 315/315 316/316
g top_bonus_4_part1
usemtl top_bonus_4_mat1
f 133/133 134/134 135/135
f 136/136 137/137 138/138
