# top_bonus_1 (M3G user id 40) extracted by M3gToObj
#@default_color FFE1C758
mtllib top_bonus_1.mtl
o top_bonus_1
v 5.999182 187.325989 143.039703 0.882353 0.780392 0.345098
v -143.057236 105.181053 143.039703 0.882353 0.780392 0.345098
v 143.100235 105.181053 143.039703 0.882353 0.780392 0.345098
v -143.057236 87.832916 143.039703 0.882353 0.780392 0.345098
v 143.100235 87.832916 143.039703 0.882353 0.780392 0.345098
v 128.00177 -128.0 127.999077 0.882353 0.780392 0.345098
v 128.00177 -84.877121 127.999077 0.882353 0.780392 0.345098
v -127.99733 -128.0 127.999077 0.882353 0.780392 0.345098
v -127.99733 -84.877121 127.999077 0.882353 0.780392 0.345098
v 128.00177 -128.0 -128.0 0.882353 0.780392 0.345098
v 128.00177 -128.0 127.999077 0.882353 0.780392 0.345098
v -127.99733 -128.0 -128.0 0.882353 0.780392 0.345098
v -127.99733 -128.0 127.999077 0.882353 0.780392 0.345098
v 128.00177 -84.877121 -128.0 0.882353 0.780392 0.345098
v 128.00177 -84.877121 127.999077 0.882353 0.780392 0.345098
v 128.00177 -128.0 -128.0 0.882353 0.780392 0.345098
v 128.00177 -128.0 127.999077 0.882353 0.780392 0.345098
v -127.99733 -128.0 -128.0 0.882353 0.780392 0.345098
v -127.99733 -128.0 127.999077 0.882353 0.780392 0.345098
v -127.99733 -84.877121 -128.0 0.882353 0.780392 0.345098
v -127.99733 -84.877121 127.999077 0.882353 0.780392 0.345098
v 114.632317 -84.877121 -114.585571 0.882353 0.780392 0.345098
v 114.632317 54.576431 -114.51487 0.882353 0.780392 0.345098
v 114.677315 -84.877121 114.591072 0.882353 0.780392 0.345098
v 114.632317 54.576431 114.591072 0.882353 0.780392 0.345098
v -114.550751 -84.877121 -114.592003 0.882353 0.780392 0.345098
v -127.99733 -84.877121 -128.0 0.882353 0.780392 0.345098
v -114.589317 -84.877121 114.533226 0.882353 0.780392 0.345098
v -127.99733 -84.877121 127.999077 0.882353 0.780392 0.345098
v 114.632317 54.576431 -114.51487 0.882353 0.780392 0.345098
v 125.726387 54.203629 -125.602509 0.882353 0.780392 0.345098
v 114.632317 54.576431 114.591072 0.882353 0.780392 0.345098
v 125.726387 54.203629 125.678711 0.882353 0.780392 0.345098
v 114.632317 54.576431 114.591072 0.882353 0.780392 0.345098
v 125.726387 54.203629 125.678711 0.882353 0.780392 0.345098
v -114.589317 54.576431 114.591072 0.882353 0.780392 0.345098
v -125.683388 54.203629 125.678711 0.882353 0.780392 0.345098
v -114.589317 54.576431 114.591072 0.882353 0.780392 0.345098
v -125.683388 54.203629 125.678711 0.882353 0.780392 0.345098
v -114.589317 54.576431 -114.51487 0.882353 0.780392 0.345098
v -125.683388 54.203629 -125.602509 0.882353 0.780392 0.345098
v -114.589317 54.576431 -114.51487 0.882353 0.780392 0.345098
v -125.683388 54.203629 -125.602509 0.882353 0.780392 0.345098
v 114.632317 54.576431 -114.51487 0.882353 0.780392 0.345098
v 125.726387 54.203629 -125.602509 0.882353 0.780392 0.345098
v 125.726387 54.203629 125.678711 0.882353 0.780392 0.345098
v 125.726387 70.150543 125.678711 0.882353 0.780392 0.345098
v -125.683388 54.203629 125.678711 0.882353 0.780392 0.345098
v -125.683388 70.150543 125.678711 0.882353 0.780392 0.345098
v 125.726387 54.203629 -125.602509 0.882353 0.780392 0.345098
v 125.726387 70.150543 -125.602509 0.882353 0.780392 0.345098
v 125.726387 54.203629 125.678711 0.882353 0.780392 0.345098
v 125.726387 70.150543 125.678711 0.882353 0.780392 0.345098
v -125.683388 54.203629 125.678711 0.882353 0.780392 0.345098
v -125.683388 70.150543 125.678711 0.882353 0.780392 0.345098
v -125.683388 54.203629 -125.602509 0.882353 0.780392 0.345098
v -125.683388 70.150543 -125.602509 0.882353 0.780392 0.345098
v 125.726387 70.150543 125.678711 0.882353 0.780392 0.345098
v 114.580894 69.527069 114.53965 0.882353 0.780392 0.345098
v -125.683388 70.150543 125.678711 0.882353 0.780392 0.345098
v -114.537895 69.527069 114.53965 0.882353 0.780392 0.345098
v 125.726387 70.150543 -125.602509 0.882353 0.780392 0.345098
v 114.580894 69.527069 -114.463448 0.882353 0.780392 0.345098
v 125.726387 70.150543 125.678711 0.882353 0.780392 0.345098
v 114.580894 69.527069 114.53965 0.882353 0.780392 0.345098
v -125.683388 70.150543 -125.602509 0.882353 0.780392 0.345098
v -114.537895 69.527069 -114.463448 0.882353 0.780392 0.345098
v 125.726387 70.150543 -125.602509 0.882353 0.780392 0.345098
v 114.580894 69.527069 -114.463448 0.882353 0.780392 0.345098
v -125.683388 70.150543 125.678711 0.882353 0.780392 0.345098
v -114.537895 69.527069 114.53965 0.882353 0.780392 0.345098
v -125.683388 70.150543 -125.602509 0.882353 0.780392 0.345098
v -114.537895 69.527069 -114.463448 0.882353 0.780392 0.345098
v 114.580894 69.527069 114.53965 0.882353 0.780392 0.345098
v 114.580894 87.742928 114.53965 0.882353 0.780392 0.345098
v -114.537895 69.527069 114.53965 0.882353 0.780392 0.345098
v -114.537895 87.742928 114.53965 0.882353 0.780392 0.345098
v 114.580894 69.527069 -114.463448 0.882353 0.780392 0.345098
v 114.580894 87.742928 -114.463448 0.882353 0.780392 0.345098
v 114.580894 69.527069 114.53965 0.882353 0.780392 0.345098
v 114.580894 87.742928 114.53965 0.882353 0.780392 0.345098
v -114.537895 69.527069 114.53965 0.882353 0.780392 0.345098
v -114.537895 87.742928 114.53965 0.882353 0.780392 0.345098
v -114.537895 69.527069 -114.463448 0.882353 0.780392 0.345098
v -114.537895 87.742928 -114.463448 0.882353 0.780392 0.345098
v 114.580894 87.742928 114.53965 0.882353 0.780392 0.345098
v 143.100235 87.832916 143.039703 0.882353 0.780392 0.345098
v -114.537895 87.742928 114.53965 0.882353 0.780392 0.345098
v -143.057236 87.832916 143.039703 0.882353 0.780392 0.345098
v 114.580894 87.742928 -114.463448 0.882353 0.780392 0.345098
v 143.100235 87.832916 -142.963501 0.882353 0.780392 0.345098
v 114.580894 87.742928 114.53965 0.882353 0.780392 0.345098
v 143.100235 87.832916 143.039703 0.882353 0.780392 0.345098
v -114.537895 87.742928 -114.463448 0.882353 0.780392 0.345098
v -143.057236 87.832916 -142.963501 0.882353 0.780392 0.345098
v 114.580894 87.742928 -114.463448 0.882353 0.780392 0.345098
v 143.100235 87.832916 -142.963501 0.882353 0.780392 0.345098
v -114.537895 87.742928 114.53965 0.882353 0.780392 0.345098
v -143.057236 87.832916 143.039703 0.882353 0.780392 0.345098
v -114.537895 87.742928 -114.463448 0.882353 0.780392 0.345098
v -143.057236 87.832916 -142.963501 0.882353 0.780392 0.345098
v 143.100235 87.832916 -142.963501 0.882353 0.780392 0.345098
v 143.100235 105.181053 -142.963501 0.882353 0.780392 0.345098
v 143.100235 87.832916 143.039703 0.882353 0.780392 0.345098
v 143.100235 105.181053 143.039703 0.882353 0.780392 0.345098
v -143.057236 87.832916 143.039703 0.882353 0.780392 0.345098
v -143.057236 105.181053 143.039703 0.882353 0.780392 0.345098
v -143.057236 87.832916 -142.963501 0.882353 0.780392 0.345098
v -143.057236 105.181053 -142.963501 0.882353 0.780392 0.345098
v 114.632317 54.576431 114.591072 0.882353 0.780392 0.345098
v -114.589317 -84.877121 114.533226 0.882353 0.780392 0.345098
v 114.677315 -84.877121 114.591072 0.882353 0.780392 0.345098
v -114.589317 -84.877121 114.533226 0.882353 0.780392 0.345098
v 114.632317 54.576431 114.591072 0.882353 0.780392 0.345098
v -114.589317 54.576431 114.591072 0.882353 0.780392 0.345098
v -114.589317 -84.877121 114.533226 0.882353 0.780392 0.345098
v -114.589317 54.576431 114.591072 0.882353 0.780392 0.345098
v -114.589317 54.576431 -114.51487 0.882353 0.780392 0.345098
v -114.589317 54.576431 -114.51487 0.882353 0.780392 0.345098
v -114.550751 -84.877121 -114.592003 0.882353 0.780392 0.345098
v -114.589317 -84.877121 114.533226 0.882353 0.780392 0.345098
v 128.00177 -84.877121 127.999077 0.882353 0.780392 0.345098
v 114.677315 -84.877121 114.591072 0.882353 0.780392 0.345098
v -127.99733 -84.877121 127.999077 0.882353 0.780392 0.345098
v -114.589317 -84.877121 114.533226 0.882353 0.780392 0.345098
v 128.00177 -84.877121 -128.0 0.882353 0.780392 0.345098
v 114.632317 -84.877121 -114.585571 0.882353 0.780392 0.345098
v 128.00177 -84.877121 127.999077 0.882353 0.780392 0.345098
v 114.677315 -84.877121 114.591072 0.882353 0.780392 0.345098
v -127.99733 -84.877121 -128.0 0.882353 0.780392 0.345098
v -114.550751 -84.877121 -114.592003 0.882353 0.780392 0.345098
v 128.00177 -84.877121 -128.0 0.882353 0.780392 0.345098
v 114.632317 -84.877121 -114.585571 0.882353 0.780392 0.345098
v 143.100235 105.181053 -142.963501 0.882353 0.780392 0.345098
v 5.999182 187.325989 96.336639 0.882353 0.780392 0.345098
v 143.100235 105.181053 143.039703 0.882353 0.780392 0.345098
v 5.999182 187.325989 108.189163 0.882353 0.780392 0.345098
v 5.999182 187.325989 143.039703 0.882353 0.780392 0.345098
v -6.001176 187.325989 143.039703 0.882353 0.780392 0.345098
v 5.999182 187.325989 108.189163 0.882353 0.780392 0.345098
v -6.001176 187.325989 143.039703 0.882353 0.780392 0.345098
v 5.999182 187.325989 143.039703 0.882353 0.780392 0.345098
v -6.001176 187.325989 143.039703 0.882353 0.780392 0.345098
v 5.999182 187.325989 108.189163 0.882353 0.780392 0.345098
v -6.001176 187.325989 108.189163 0.882353 0.780392 0.345098
v 5.999182 187.325989 -142.963501 0.882353 0.780392 0.345098
v -6.001176 187.325989 -142.963501 0.882353 0.780392 0.345098
v -143.057236 105.181053 -142.963501 0.882353 0.780392 0.345098
v -6.001176 187.325989 96.336639 0.882353 0.780392 0.345098
v -143.057236 105.181053 143.039703 0.882353 0.780392 0.345098
v -6.001176 187.325989 108.189163 0.882353 0.780392 0.345098
v 5.999182 293.227386 108.189163 0.882353 0.780392 0.345098
v 5.999182 293.227386 96.336639 0.882353 0.780392 0.345098
v -6.001176 293.227386 108.189163 0.882353 0.780392 0.345098
v -6.001176 293.227386 96.336639 0.882353 0.780392 0.345098
v 5.999182 187.325989 108.189163 0.882353 0.780392 0.345098
v 5.999182 293.227386 108.189163 0.882353 0.780392 0.345098
v -6.001176 187.325989 108.189163 0.882353 0.780392 0.345098
v -6.001176 293.227386 108.189163 0.882353 0.780392 0.345098
v 5.999182 187.325989 96.336639 0.882353 0.780392 0.345098
v 5.999182 293.227386 96.336639 0.882353 0.780392 0.345098
v 5.999182 187.325989 108.189163 0.882353 0.780392 0.345098
v 5.999182 293.227386 108.189163 0.882353 0.780392 0.345098
v -6.001176 187.325989 108.189163 0.882353 0.780392 0.345098
v -6.001176 293.227386 108.189163 0.882353 0.780392 0.345098
v -6.001176 187.325989 96.336639 0.882353 0.780392 0.345098
v -6.001176 293.227386 96.336639 0.882353 0.780392 0.345098
v 5.999182 187.325989 -142.963501 0.882353 0.780392 0.345098
v -6.001176 187.325989 96.336639 0.882353 0.780392 0.345098
v 5.999182 187.325989 96.336639 0.882353 0.780392 0.345098
v -6.001176 187.325989 96.336639 0.882353 0.780392 0.345098
v 5.999182 187.325989 -142.963501 0.882353 0.780392 0.345098
v -6.001176 187.325989 -142.963501 0.882353 0.780392 0.345098
v -6.001176 187.325989 108.189163 0.882353 0.780392 0.345098
v -143.057236 105.181053 143.039703 0.882353 0.780392 0.345098
v -6.001176 187.325989 143.039703 0.882353 0.780392 0.345098
vt 0.5269 0.2949
vt 0.057099 0.088
vt 0.948397 0.087902
vt 0.057295 0.044204
vt 0.948397 0.044204
vt 0.799999 0.702505
vt 0.700005 0.702505
vt 0.799999 0.266597
vt 0.700005 0.266498
vt 0.511702 0.956599
vt 0.511702 0.0436
vt 0.962597 0.956599
vt 0.962597 0.0436
vt 0.700005 0.7028
vt 0.700005 0.266695
vt 0.799999 0.7028
vt 0.799999 0.266695
vt 0.799999 0.266597
vt 0.799999 0.702505
vt 0.700005 0.266498
vt 0.700005 0.702505
vt 0.500002 0.339299
vt 0.499805 0.622105
vt 0.046494 0.337207
vt 0.046494 0.619998
vt 0.8569 0.219795
vt 0.954198 0.132596
vt 0.8569 0.634901
vt 0.954198 0.722099
vt 0.8569 0.219795
vt 0.954198 0.132596
vt 0.8569 0.634901
vt 0.954198 0.722099
vt 0.8569 0.219795
vt 0.954198 0.132596
vt 0.8569 0.634901
vt 0.954198 0.722099
vt 0.8569 0.219795
vt 0.954198 0.132596
vt 0.8569 0.634901
vt 0.954198 0.722099
vt 0.8569 0.219795
vt 0.954198 0.132596
vt 0.8569 0.634901
vt 0.954198 0.722099
vt 0.645393 0.702701
vt 0.573098 0.702701
vt 0.645393 0.342994
vt 0.573098 0.342994
vt 0.645393 0.702701
vt 0.573098 0.702701
vt 0.645393 0.342994
vt 0.573098 0.342994
vt 0.645393 0.702701
vt 0.573098 0.702701
vt 0.645393 0.342994
vt 0.573098 0.342994
vt 0.954198 0.722099
vt 0.856704 0.634802
vt 0.954198 0.132596
vt 0.856704 0.219893
vt 0.954198 0.722099
vt 0.856704 0.634802
vt 0.954198 0.132596
vt 0.856704 0.219893
vt 0.954198 0.722099
vt 0.856704 0.634802
vt 0.954198 0.132596
vt 0.856704 0.219893
vt 0.954198 0.722099
vt 0.856704 0.634802
vt 0.954198 0.132596
vt 0.856704 0.219893
vt 0.645393 0.702701
vt 0.573098 0.702701
vt 0.645393 0.342994
vt 0.573098 0.342994
vt 0.645393 0.702701
vt 0.573098 0.702701
vt 0.645393 0.342994
vt 0.573098 0.342994
vt 0.645393 0.702701
vt 0.573098 0.702701
vt 0.645393 0.342994
vt 0.573098 0.342994
vt 0.8569 0.219795
vt 0.954198 0.132596
vt 0.8569 0.634901
vt 0.954198 0.722099
vt 0.8569 0.219795
vt 0.954198 0.132596
vt 0.8569 0.634901
vt 0.954198 0.722099
vt 0.8569 0.219795
vt 0.954198 0.132596
vt 0.8569 0.634901
vt 0.954198 0.722099
vt 0.8569 0.219795
vt 0.954198 0.132596
vt 0.8569 0.634901
vt 0.954198 0.722099
vt 0.948397 0.044204
vt 0.948397 0.087902
vt 0.057295 0.044204
vt 0.057295 0.087902
vt 0.948397 0.044204
vt 0.948397 0.087902
vt 0.057295 0.044204
vt 0.057099 0.088
vt 0.499903 0.9641
vt 0.046606 0.6793
vt 0.500002 0.681295
vt 0.046606 0.6793
vt 0.499903 0.9641
vt 0.046606 0.961993
vt 0.499594 0.339299
vt 0.499805 0.622105
vt 0.046494 0.619998
vt 0.046494 0.619998
vt 0.046297 0.337207
vt 0.499594 0.339299
vt 0.954198 0.722099
vt 0.8569 0.634901
vt 0.954198 0.132596
vt 0.8569 0.219795
vt 0.954198 0.722099
vt 0.8569 0.634901
vt 0.954198 0.132596
vt 0.8569 0.219795
vt 0.954198 0.722099
vt 0.8569 0.634901
vt 0.954198 0.132596
vt 0.8569 0.219795
vt 0.568196 0.958903
vt 0.939801 0.811306
vt 0.568196 0.770797
vt 0.939801 0.801095
vt 0.939702 0.770994
vt 0.478399 0.294998
vt 0.964803 0.801095
vt 0.939702 0.770994
vt 0.964803 0.770994
vt 0.939702 0.770994
vt 0.964803 0.801095
vt 0.939801 0.801095
vt 0.939801 0.959198
vt 0.939801 0.959198
vt 0.568196 0.958903
vt 0.939801 0.811306
vt 0.568196 0.770797
vt 0.939801 0.801095
vt 0.108606 0.287694
vt 0.067704 0.287694
vt 0.108606 0.233602
vt 0.067704 0.233602
vt 0.231201 0.287694
vt 0.108606 0.287694
vt 0.231201 0.233602
vt 0.108606 0.233602
vt 0.231201 0.287694
vt 0.108606 0.287694
vt 0.231201 0.233602
vt 0.108606 0.233602
vt 0.231201 0.287694
vt 0.108606 0.287694
vt 0.231201 0.233602
vt 0.108606 0.233602
vt 0.964803 0.959198
vt 0.939801 0.811306
vt 0.964803 0.811306
vt 0.939801 0.811306
vt 0.964803 0.959198
vt 0.939801 0.959198
vt 0.939801 0.801095
vt 0.568196 0.770797
vt 0.939702 0.770994
g top_bonus_1_part0
usemtl top_bonus_1_mat0
f 1/1 2/2 3/3
f 3/3 2/2 4/4
f 3/3 4/4 5/5
f 6/6 7/7 8/8
f 8/8 7/7 9/9
f 14/14 15/15 16/16
f 16/16 15/15 17/17
f 18/18 19/19 20/20
f 20/20 19/19 21/21
f 22/22 23/23 24/24
f 24/24 23/23 25/25
f 26/26 27/27 28/28
f 28/28 27/27 29/29
f 30/30 31/31 32/32
f 32/32 31/31 33/33
f 34/34 35/35 36/36
f 36/36 35/35 37/37
f 38/38 39/39 40/40
f 40/40 39/39 41/41
f 42/42 43/43 44/44
f 44/44 43/43 45/45
f 46/46 47/47 48/48
f 48/48 47/47 49/49
f 50/50 51/51 52/52
f 52/52 51/51 53/53
f 54/54 55/55 56/56
f 56/56 55/55 57/57
f 58/58 59/59 60/60
f 60/60 59/59 61/61
f 62/62 63/63 64/64
f 64/64 63/63 65/65
f 66/66 67/67 68/68
f 68/68 67/67 69/69
f 70/70 71/71 72/72
f 72/72 71/71 73/73
f 74/74 75/75 76/76
f 76/76 75/75 77/77
f 78/78 79/79 80/80
f 80/80 79/79 81/81
f 82/82 83/83 84/84
f 84/84 83/83 85/85
f 86/86 87/87 88/88
f 88/88 87/87 89/89
f 90/90 91/91 92/92
f 92/92 91/91 93/93
f 94/94 95/95 96/96
f 96/96 95/95 97/97
f 98/98 99/99 100/100
f 100/100 99/99 101/101
f 102/102 103/103 104/104
f 104/104 103/103 105/105
f 106/106 107/107 108/108
f 108/108 107/107 109/109
f 110/110 111/111 112/112
f 113/113 114/114 115/115
f 116/116 117/117 118/118
f 119/119 120/120 121/121
f 122/122 123/123 124/124
f 124/124 123/123 125/125
f 126/126 127/127 128/128
f 128/128 127/127 129/129
f 130/130 131/131 132/132
f 132/132 131/131 133/133
f 134/134 135/135 136/136
f 136/136 135/135 137/137
f 136/136 137/137 138/138
f 2/2 1/1 139/139
f 140/140 141/141 142/142
f 143/143 144/144 145/145
f 146/146 135/135 134/134
f 147/147 148/148 149/149
f 149/149 148/148 150/150
f 149/149 150/150 151/151
f 152/152 153/153 154/154
f 154/154 153/153 155/155
f 156/156 157/157 158/158
f 158/158 157/157 159/159
f 160/160 161/161 162/162
f 162/162 161/161 163/163
f 164/164 165/165 166/166
f 166/166 165/165 167/167
f 168/168 169/169 170/170
f 171/171 172/172 173/173
f 174/174 175/175 176/176
g top_bonus_1_part1
usemtl top_bonus_1_mat1
f 10/10 11/11 12/12
f 12/12 11/11 13/13
